<?xml version="1.0" encoding="UTF-8" standalone="no" ?>
<!DOCTYPE sesx>
<sesx version="1.7">

  <session appBuild="12.0.0.241" appVersion="12.0" audioChannelType="stereo" bitDepth="32" duration="1440000" sampleRate="48000">
    <tracks>
      <audioTrack automationLaneOpenState="false" id="10001" index="1" select="true" visible="true">
        <trackParameters trackHeight="316" trackHue="160" trackMinimized="false">
          <name>Faixa 1</name>
        </trackParameters>
        <trackAudioParameters audioChannelType="stereo" automationMode="1" monitoring="false" recordArmed="false" solo="false" soloSafe="false">
          <trackOutput outputID="10000" type="trackID"/>
          <trackInput inputID="1"/>
          <component componentGuid="558b7c3b-5d27-4f09-bb8a-740a1f1b280c" componentID="Audition.Fader" id="trackFader" name="volume" powered="true">
            <parameter index="0" name="volume" parameterValue="0.70794582366943359375"/>
            <parameter index="1" name="static gain" parameterValue="1"/>
          </component>
          <component componentGuid="7196054b-c588-4dff-8cab-a21db9fbfe70" componentID="Audition.Mute" id="trackMute" name="Mute" powered="true">
            <parameter index="0" parameterValue="0"/>
            <parameter index="1" name="mute" parameterValue="0"/>
          </component>
          <component componentGuid="42f1fd70-d467-4ce3-a49f-dd0b101a9812" componentID="Audition.StereoPanner" id="trackPan" name="StereoPanner" powered="true">
            <parameter index="0" name="Deslocar" parameterValue="0"/>
          </component>
          <component componentGuid="5dda8a1d-f91b-4a0a-a3d8-2bb5aa7f90f8" componentID="Audition.EQ" id="trackEQ" name="EQ" powered="false">
            <parameter index="0" name="Frequência de estante inferior" parameterValue="0.000834028352983295917510986328125"/>
            <parameter index="1" name="Ganho de estante inferior" parameterValue="0.5"/>
            <parameter index="2" name="Frequência de prateleira superior" parameterValue="0.74979150295257568359375"/>
            <parameter index="3" name="Ganho de estante superior" parameterValue="0.5"/>
            <parameter index="4" name="Frequência central de banda de EQ 1" parameterValue="0.00125104258768260478973388671875"/>
            <parameter index="5" name="Banda de EQ 1 Q" parameterValue="0.000199989997781813144683837890625"/>
            <parameter index="6" name="Ganho de banda de EQ 1" parameterValue="0.5"/>
            <parameter index="7" name="Ativar Banda de EQ 1" parameterValue="1"/>
            <parameter index="8" name="Frequências centrais de banda de EQ 2" parameterValue="0.0075062550604343414306640625"/>
            <parameter index="9" name="Banda de EQ 2 Q" parameterValue="0.000199989997781813144683837890625"/>
            <parameter index="10" name="Ganho de banda de EQ 2" parameterValue="0.5"/>
            <parameter index="11" name="Ativar banda de EQ 2" parameterValue="1"/>
            <parameter index="12" name="Frequências centrais de banda de EQ 3" parameterValue="0.0325271077454090118408203125"/>
            <parameter index="13" name="Banda de EQ 3 Q" parameterValue="0.000199989997781813144683837890625"/>
            <parameter index="14" name="Ganho de banda de EQ 3" parameterValue="0.5"/>
            <parameter index="15" name="Ativar banda de EQ 3" parameterValue="1"/>
            <parameter index="16" name="Frequência central de banda de EQ 4" parameterValue="0.13261051476001739501953125"/>
            <parameter index="17" name="Banda de EQ 4 Q" parameterValue="0.000199989997781813144683837890625"/>
            <parameter index="18" name="Ganho de banda de EQ 4" parameterValue="0.5"/>
            <parameter index="19" name="Ativar banda de EQ 4" parameterValue="1"/>
            <parameter index="20" name="Frequências centrais de banda de EQ 5" parameterValue="0.532944142818450927734375"/>
            <parameter index="21" name="Banda de EQ 5 Q" parameterValue="0.000199989997781813144683837890625"/>
            <parameter index="22" name="Ganho de banda de EQ 5" parameterValue="0.5"/>
            <parameter index="23" name="Ativar banda de EQ 5" parameterValue="1"/>
            <parameter index="24" name="Ganho principal" parameterValue="0.666666686534881591796875"/>
            <parameter index="25" name="ConstantQ" parameterValue="1"/>
            <parameter index="26" name="Ordem de filtro de estante inferior" parameterValue="0"/>
            <parameter index="27" name="Ordem de filtro de estante superior" parameterValue="0"/>
            <parameter index="28" name="Modo ultra silencioso" parameterValue="0"/>
            <parameter index="29" name="Ativar estante inferior" parameterValue="1"/>
            <parameter index="30" name="Ativar estante superior" parameterValue="1"/>
            <parameter index="31" name="Taxa de amostragem original" parameterValue="0.25"/>
            <parameter index="32" name="Largura de banda de banda de EQ 1" parameterValue="0.002499990165233612060546875"/>
            <parameter index="33" name="Largura de banda de EQ 2" parameterValue="0.0099999904632568359375"/>
            <parameter index="34" name="Largura de banda de EQ 3" parameterValue="0.0399999916553497314453125"/>
            <parameter index="35" name="Largura de banda de EQ 4" parameterValue="0.15999998152256011962890625"/>
            <parameter index="36" name="Largura de banda de EQ 5" parameterValue="0.63999998569488525390625"/>
            <parameter index="37" name="Ativar filtro de alta frequência" parameterValue="0"/>
            <parameter index="38" name="Frequência de corte de alta frequência" parameterValue="0"/>
            <parameter index="39" name="Inclinação de alta frequência" parameterValue="0.4000000059604644775390625"/>
            <parameter index="40" name="Ativar filtro de passagem de baixa aprovação" parameterValue="0"/>
            <parameter index="41" name="Frequência de corte de passe para baixo" parameterValue="0.833194315433502197265625"/>
            <parameter index="42" name="Inclinação de passe para baixo" parameterValue="0.4000000059604644775390625"/>
            <parameter index="43" name="Desvio" parameterValue="0"/>
            <parameter index="44" name="Faixa de gráfico baixa" parameterValue="1"/>
          </component>
        </trackAudioParameters>
        <effectsRack preFader="true">
          <component componentGuid="d339bbca-c1c3-4193-8221-274a694c1c22" componentID="Audition.ComponentGroup" id="rackMix" powered="true">
            <parameter index="0" parameterValue="0"/>
            <parameter index="1" parameterValue="0.12000000476837158203125"/>
          </component>
          <component componentGuid="e2a42bd1-c8f1-4069-be2c-232d5d3a1c98" id="rackInput" powered="true">
            <parameter index="0" parameterValue="1"/>
            <parameter index="1" parameterValue="0"/>
          </component>
          <component componentGuid="33c1c3b9-3a5b-4297-a877-13b786cb9686" id="rackOutput" powered="true">
            <parameter index="0" parameterValue="1"/>
            <parameter index="1" parameterValue="0"/>
          </component>
          <slot powered="true" slotIndex="0">
            <component componentGuid="e145fd11-87f6-4e85-bcb1-1e1363c6509c" componentID="db912dc1-cfd7-4c26-8bbc-ffe2a16ded2d" editorHeight="466" editorLeft="713" editorTop="287" editorWidth="494" name="Reverberação">
              <busConfig><![CDATA[{"in":[{"layout":[100,101],"name":"Estéreo ligado","type":0}],"out":[{"layout":[100,101],"name":"Saída de estéreo","type":0}]}]]></busConfig>
              <channelMap direction="input">
                <channel index="0" sourceIndex="0"/>
                <channel index="1" sourceIndex="1"/>
              </channelMap>
              <channelMap direction="output">
                <channel index="0" sourceIndex="0"/>
                <channel index="1" sourceIndex="1"/>
              </channelMap>
              <parameter index="0" name="Tempo de decréscimo" parameterValue="0.075226962566375732421875"/>
              <parameter index="1" name="Tempo de pré-atraso" parameterValue="0.0822580754756927490234375"/>
              <parameter index="2" name="Percepção" parameterValue="0.23440860211849212646484375"/>
              <parameter index="3" name="Nível de saída original" parameterValue="0.5"/>
              <parameter index="4" name="Nível de saída úmido" parameterValue="0.070000000298023223876953125"/>
              <parameter index="5" name="Difusão" parameterValue="0.4516290724277496337890625"/>
              <parameter index="6" name="Somar entradas" parameterValue="0.753768861293792724609375"/>
              <parameter index="7" name="Cálculo de impulso" parameterValue="1"/>
              <parameter index="8" name="Em processamento" parameterValue="0.251256287097930908203125"/>
            </component>
          </slot>
          <slot powered="true" slotIndex="1">
            <component componentGuid="7164c4ed-28f9-43cc-981a-574f187a7f1a" componentID="f205d7b7-5e0b-421b-bc6d-5f27096ba192" editorHeight="467" editorLeft="721" editorTop="348" editorWidth="901" name="Eco">
              <busConfig><![CDATA[{"in":[{"layout":[100,101],"name":"Estéreo ligado","type":0}],"out":[{"layout":[100,101],"name":"Saída de estéreo","type":0}]}]]></busConfig>
              <channelMap direction="input">
                <channel index="0" sourceIndex="0"/>
                <channel index="1" sourceIndex="1"/>
              </channelMap>
              <channelMap direction="output">
                <channel index="0" sourceIndex="0"/>
                <channel index="1" sourceIndex="1"/>
              </channelMap>
              <parameter index="0" name="Tempo de atraso (canal esquerdo)" parameterValue="0.10822351276874542236328125"/>
              <parameter index="1" name="Tempo de atraso (canal direito)" parameterValue="0.072182357311248779296875"/>
              <parameter index="2" name="Comentários (canal à esquerda)" parameterValue="0.6396396160125732421875"/>
              <parameter index="3" name="Comentários (canal direito)" parameterValue="0.6396396160125732421875"/>
              <parameter index="4" name="Nível de eco (Canal esquerdo)" parameterValue="0.849849879741668701171875"/>
              <parameter index="5" name="Nível de eco (canal direito)" parameterValue="0.849849879741668701171875"/>
              <parameter index="6" name="Banda de EQ 1" parameterValue="0.17333333194255828857421875"/>
              <parameter index="7" name="Banda de EQ 2" parameterValue="0.170000016689300537109375"/>
              <parameter index="8" name="Banda de EQ 3" parameterValue="0.17999999225139617919921875"/>
              <parameter index="9" name="Banda de EQ 4" parameterValue="0.183333337306976318359375"/>
              <parameter index="10" name="Banda de EQ 5" parameterValue="0.420000016689300537109375"/>
              <parameter index="11" name="Banda de EQ 6" parameterValue="0.2666666805744171142578125"/>
              <parameter index="12" name="Banda de EQ 7" parameterValue="0.463333308696746826171875"/>
              <parameter index="13" name="Banda de EQ 8" parameterValue="0.5"/>
              <parameter index="14" name="Bloquear os canais esquerdo e direito" parameterValue="0"/>
              <parameter index="15" name="Limite de eco" parameterValue="0"/>
              <parameter index="16" name="Unidades de tempo de atraso" parameterValue="0"/>
              <parameter index="17" name="Número de canais" parameterValue="0.0625"/>
            </component>
          </slot>
          <slot powered="true" slotIndex="2">
            <component componentGuid="c1149de5-0960-47ce-9072-2297dd511f10" componentID="8edcd326-33de-4a4d-985b-f1bf48ed1427" editorHeight="565" editorLeft="550" editorTop="238" editorWidth="821" name="Equalizador paramétrico">
              <busConfig><![CDATA[{"in":[{"layout":[100,101],"name":"Estéreo ligado","type":0}],"out":[{"layout":[100,101],"name":"Saída de estéreo","type":0}]}]]></busConfig>
              <channelMap direction="input">
                <channel index="0" sourceIndex="0"/>
                <channel index="1" sourceIndex="1"/>
              </channelMap>
              <channelMap direction="output">
                <channel index="0" sourceIndex="0"/>
                <channel index="1" sourceIndex="1"/>
              </channelMap>
              <parameter index="0" name="Frequência de estante inferior" parameterValue="0.0007001730264164507389068603515625"/>
              <parameter index="1" name="Ganho de estante inferior" parameterValue="0.12631578743457794189453125"/>
              <parameter index="2" name="Frequência de prateleira superior" parameterValue="0.73251426219940185546875"/>
              <parameter index="3" name="Ganho de estante superior" parameterValue="0.7052631378173828125"/>
              <parameter index="4" name="Frequência central de banda de EQ 1" parameterValue="0.00125104258768260478973388671875"/>
              <parameter index="5" name="Banda de EQ 1 Q" parameterValue="0.000199989997781813144683837890625"/>
              <parameter index="6" name="Ganho de banda de EQ 1" parameterValue="0.5"/>
              <parameter index="7" name="Ativar Banda de EQ 1" parameterValue="1"/>
              <parameter index="8" name="Frequências centrais de banda de EQ 2" parameterValue="0.0058237127959728240966796875"/>
              <parameter index="9" name="Banda de EQ 2 Q" parameterValue="0.000199989997781813144683837890625"/>
              <parameter index="10" name="Ganho de banda de EQ 2" parameterValue="0.778947353363037109375"/>
              <parameter index="11" name="Ativar banda de EQ 2" parameterValue="1"/>
              <parameter index="12" name="Frequências centrais de banda de EQ 3" parameterValue="0.02255090884864330291748046875"/>
              <parameter index="13" name="Banda de EQ 3 Q" parameterValue="0.000199989997781813144683837890625"/>
              <parameter index="14" name="Ganho de banda de EQ 3" parameterValue="0.542105257511138916015625"/>
              <parameter index="15" name="Ativar banda de EQ 3" parameterValue="1"/>
              <parameter index="16" name="Frequência central de banda de EQ 4" parameterValue="0.241562187671661376953125"/>
              <parameter index="17" name="Banda de EQ 4 Q" parameterValue="0.000199989997781813144683837890625"/>
              <parameter index="18" name="Ganho de banda de EQ 4" parameterValue="0.2842105329036712646484375"/>
              <parameter index="19" name="Ativar banda de EQ 4" parameterValue="1"/>
              <parameter index="20" name="Frequências centrais de banda de EQ 5" parameterValue="0.3737923800945281982421875"/>
              <parameter index="21" name="Banda de EQ 5 Q" parameterValue="0.000199989997781813144683837890625"/>
              <parameter index="22" name="Ganho de banda de EQ 5" parameterValue="0.673684298992156982421875"/>
              <parameter index="23" name="Ativar banda de EQ 5" parameterValue="1"/>
              <parameter index="24" name="Ganho principal" parameterValue="0.666666686534881591796875"/>
              <parameter index="25" name="ConstantQ" parameterValue="1"/>
              <parameter index="26" name="Ordem de filtro de estante inferior" parameterValue="0"/>
              <parameter index="27" name="Ordem de filtro de estante superior" parameterValue="0"/>
              <parameter index="28" name="Modo ultra silencioso" parameterValue="0"/>
              <parameter index="29" name="Ativar estante inferior" parameterValue="1"/>
              <parameter index="30" name="Ativar estante superior" parameterValue="1"/>
              <parameter index="31" name="Taxa de amostragem original" parameterValue="0.25"/>
              <parameter index="32" name="Largura de banda de banda de EQ 1" parameterValue="0.002499990165233612060546875"/>
              <parameter index="33" name="Largura de banda de EQ 2" parameterValue="0.007982621900737285614013671875"/>
              <parameter index="34" name="Largura de banda de EQ 3" parameterValue="0.0280385315418243408203125"/>
              <parameter index="35" name="Largura de banda de EQ 4" parameterValue="0.2906330525875091552734375"/>
              <parameter index="36" name="Largura de banda de EQ 5" parameterValue="0.4491770565509796142578125"/>
              <parameter index="37" name="Ativar filtro de alta frequência" parameterValue="0"/>
              <parameter index="38" name="Frequência de corte de alta frequência" parameterValue="0"/>
              <parameter index="39" name="Inclinação de alta frequência" parameterValue="0.4000000059604644775390625"/>
              <parameter index="40" name="Ativar filtro de passagem de baixa aprovação" parameterValue="0"/>
              <parameter index="41" name="Frequência de corte de passe para baixo" parameterValue="0.833194315433502197265625"/>
              <parameter index="42" name="Inclinação de passe para baixo" parameterValue="0.4000000059604644775390625"/>
              <parameter index="43" name="Desvio" parameterValue="0"/>
              <parameter index="44" name="Faixa de gráfico baixa" parameterValue="0"/>
            </component>
          </slot>
          <slot powered="true" slotIndex="3">
            <component componentGuid="62c29ecb-d499-4898-9839-594fe4028aca" componentID="9b66ab13-4d1b-469a-88c6-b807fcf1df16" editorHeight="551" editorLeft="606" editorTop="245" editorWidth="708" name="Distorção">
              <busConfig><![CDATA[{"in":[{"layout":[100,101],"name":"Estéreo ligado","type":0}],"out":[{"layout":[100,101],"name":"Saída de estéreo","type":0}]}]]></busConfig>
              <channelMap direction="input">
                <channel index="0" sourceIndex="0"/>
                <channel index="1" sourceIndex="1"/>
              </channelMap>
              <channelMap direction="output">
                <channel index="0" sourceIndex="0"/>
                <channel index="1" sourceIndex="1"/>
              </channelMap>
              <presetChunkData><![CDATA[BSBuYWZldFMHAAAAAQAAAAAAAAAAAAAAAAAAAAAAcMIAAAFABgAAAAAAgAAAekOq6hNDq6rxQgAAekMAAAAAAACAvwAAAAAAAAAAAAAAAAAAAAAAAAAAAAAAAAAAAAAAAAAAAAAAAAAAAAAAAAAAAAAAAAAAAAAAAAAAAAAAAAAAAAAAAAAAAAAAAAAAAAAAAAAAAAAAAAAAAAAAAAAAAAAAAAAAAAAAAAAAAAAAAAAAAAAAAAAAAAAAAAAAAAAAAAAAAAAAAAAAAAAAAAAAAAAAAAAAAAAAAAAAAAAAAAAAAAAAAAAAAAAAAAAAAAAAAAAAAAAAAAAAAAAAAAAAAAAAAAAAAAAAAAAAAAAAAAAAAAAAAAAAAAAAAAAAAAAAAAAAAAAAAAAAAAAAAAAAAAAAAAAAAAAAAAAAAAAAAAAAAAAAAAAAAAAAAAAAAAAAAAAAAAAAAAAAAAAAAAAAAAAAAAAAAAAAAAAAAAAAAAAAAAAAAAAAAAAAAAAAAAAAAAAAAAAAAAAAAAAAAAAAAAAAAAAAAAAAAAAAAAAAAAAAAAAAAAAAAAAAAAAAAAAAAAAAAAAAAAAAAAAAAAAAAAAAAAAAAAAAAAAAAAAAAAAAAAAAAAAAAAAAAAAAAAAAAAAAAAAAAAAAAAAAAAAAAAAAAAAAAAAAAAAAAAAAAAAAAAAAAAAAAAAAAAAAAAAAAAAAAAAAAAAAAAAAAAAAAAAAAAAAAAAAAAAAAAAAAAAAAAAAAAAAAAAAAAAAAAAAAAAAAAAAAAAAAAAAAAAAAAAAAAAAAAAAAAAAAAAAAAAAAAAAAAAAAAAAAAAAAAAAAAAAAAAAAAAAAAAAAAAAAAAAAAAAAAAAAAAAAAAAAAAAAAAAAAAAAAAAAAAAAAAAAAAAAAAAAAAAAAAAAAAAAAAAAAAAAAAAAAAAAAAAAAAAAAAAAAAAAAAAAAAAAAAAAAAAAAAAAAAAAAAAAAAAAAAAAAAAAAAAAAAAAAAAAAAAAAAAAAAAAAAAAAAAAAAAAAAAAAAAAAAAAAAAAAAAAAAAAAAAAAAAAAAAAAAAAAAAAAAAAAAAAAAAAAAAAAAAAAAAAAAAAAAAAAAAAAAAAAAAAAAAAAAAAACAAAB6QwBAHEOrKv5CAAB6QwAAAAAAAIC/AAAAAAAAAAAAAAAAAAAAAAAAAAAAAAAAAAAAAAAAAAAAAAAAAAAAAAAAAAAAAAAAAAAAAAAAAAAAAAAAAAAAAAAAAAAAAAAAAAAAAAAAAAAAAAAAAAAAAAAAAAAAAAAAAAAAAAAAAAAAAAAAAAAAAAAAAAAAAAAAAAAAAAAAAAAAAAAAAAAAAAAAAAAAAAAAAAAAAAAAAAAAAAAAAAAAAAAAAAAAAAAAAAAAAAAAAAAAAAAAAAAAAAAAAAAAAAAAAAAAAAAAAAAAAAAAAAAAAAAAAAAAAAAAAAAAAAAAAAAAAAAAAAAAAAAAAAAAAAAAAAAAAAAAAAAAAAAAAAAAAAAAAAAAAAAAAAAAAAAAAAAAAAAAAAAAAAAAAAAAAAAAAAAAAAAAAAAAAAAAAAAAAAAAAAAAAAAAAAAAAAAAAAAAAAAAAAAAAAAAAAAAAAAAAAAAAAAAAAAAAAAAAAAAAAAAAAAAAAAAAAAAAAAAAAAAAAAAAAAAAAAAAAAAAAAAAAAAAAAAAAAAAAAAAAAAAAAAAAAAAAAAAAAAAAAAAAAAAAAAAAAAAAAAAAAAAAAAAAAAAAAAAAAAAAAAAAAAAAAAAAAAAAAAAAAAAAAAAAAAAAAAAAAAAAAAAAAAAAAAAAAAAAAAAAAAAAAAAAAAAAAAAAAAAAAAAAAAAAAAAAAAAAAAAAAAAAAAAAAAAAAAAAAAAAAAAAAAAAAAAAAAAAAAAAAAAAAAAAAAAAAAAAAAAAAAAAAAAAAAAAAAAAAAAAAAAAAAAAAAAAAAAAAAAAAAAAAAAAAAAAAAAAAAAAAAAAAAAAAAAAAAAAAAAAAAAAAAAAAAAAAAAAAAAAAAAAAAAAAAAAAAAAAAAAAAAAAAAAAAAAAAAAAAAAAAAAAAAAAAAAAAAAAAAAAAAAAAAAAAAAAAAAAAAAAAAAAAAAAAAAAAAAAAAAAAAAAAAAAAAAAAAAAAAAAAAAAAAAAAAAAAAAAAAAAAAAAAAAAAAAAAAAAAAAAAAAAAAAAAAAAAAAAAAA==]]></presetChunkData>
            </component>
          </slot>
          <slot powered="true" slotIndex="4">
            <component componentGuid="d34f8f10-bf80-48c5-8843-9842887bd0d1" componentID="3981e750-c8ae-40a2-889f-41a01c7efa03" editorHeight="667" editorLeft="623" editorTop="187" editorWidth="674" name="Compactador de multibanda">
              <busConfig><![CDATA[{"in":[{"layout":[100,101],"name":"Estéreo ligado","type":0}],"out":[{"layout":[100,101],"name":"Saída de estéreo","type":0}]}]]></busConfig>
              <channelMap direction="input">
                <channel index="0" sourceIndex="0"/>
                <channel index="1" sourceIndex="1"/>
              </channelMap>
              <channelMap direction="output">
                <channel index="0" sourceIndex="0"/>
                <channel index="1" sourceIndex="1"/>
              </channelMap>
              <presetChunkData><![CDATA[AiBuYWZldFNoAAAAAABAwAAAAAAAAODBAACAwQAAYMEAAABAAAAAQAAAAEAAAABAAAAgQQAAIEEAACBBAAAgQQAAyEIAAMhCAADIQgAAyEIAAAAAAAAAAAAAAAAAAAAAAAAAAAAAAAAAAAAAAAAAAAAAAAAAAAAAAAAAAAAAAAAAAAAAAAAAAAAAAAAAAAAAAADwQgAA+kQAQBxGAAAAAAAAAAAAAAAAAAAAAAAAAAAAAAAAAAAAAAAAAAAAAAAAAAAAAAAAAAAAAAAAAAAAAAAAAAAAAIBAAAD6QwAAAAAAAAAAAAAAAAAAAAAAAAAAAAAAAAAAAAAAAAAAAAAAAAAAAAAAAAAAAAAAAAAAAAAAAAAAAAAAAAAAAAAAAAAAAAAAAAAAAAAAAAAAAAAAAAAAAAAAAAAAAAAAAAAAAAAAAAAAAAAAAAAAAAAAAAAAAAAAAAAAAAAAAAAAAAAAAAAAAAAAAAAAAAAAAAAAAAAAAAAAAAAAAAAAAAAAAAAAAAAAAAAAAAAAAAAAAAAAAAAAAAAAAAAAAAAAAAAAAAAAAAAAAAAAAAAAAAA=]]></presetChunkData>
            </component>
          </slot>
          <slot powered="true" slotIndex="5">
            <component componentGuid="19695396-5b6d-4f69-a2bf-d12a015cf3ce" componentID="094e8ed0-1fcc-4bec-ac4a-b358c4ce1f27" editorHeight="489" editorLeft="569" editorTop="276" editorWidth="783" name="Masterização">
              <busConfig><![CDATA[{"in":[{"layout":[100,101],"name":"Estéreo ligado","type":0}],"out":[{"layout":[100,101],"name":"Saída de estéreo","type":0}]}]]></busConfig>
              <channelMap direction="input">
                <channel index="0" sourceIndex="0"/>
                <channel index="1" sourceIndex="1"/>
              </channelMap>
              <channelMap direction="output">
                <channel index="0" sourceIndex="0"/>
                <channel index="1" sourceIndex="1"/>
              </channelMap>
              <presetChunkData><![CDATA[ByBuYWZldFMSAAAAAQAAAAAA8EEAAAAAAADAQADsi0lEaGYGwAAAgD8Bo/IBRmhm2sAAAMBAAaaL/kHooiPBuugMQumio0HA6II/AAAAAA==]]></presetChunkData>
            </component>
          </slot>
        </effectsRack>
        <editParameter parameterIndex="0" slotIndex="4294967280"/>
        <audioClip clipAutoCrossfade="true" crossFadeHeadClipID="-1" crossFadeTailClipID="-1" endPoint="8202" fileID="0" hue="-1" id="0" lockedInTime="false" looped="false" name="sfx_coin_single2 48000 1" offline="false" select="false" sourceInPoint="0" sourceOutPoint="8202" startPoint="0" zOrder="0">
          <effectsRack preFader="true">
            <component componentGuid="358eab9f-5064-4742-8a3e-25347b7c5774" componentID="Audition.ComponentGroup" id="rackMix" powered="true">
              <parameter index="0" parameterValue="0"/>
              <parameter index="1" parameterValue="0"/>
            </component>
            <component componentGuid="c5d3a537-0fd4-4899-b63e-f569addfd54c" id="rackInput" powered="true">
              <parameter index="0" parameterValue="1"/>
              <parameter index="1" parameterValue="0"/>
            </component>
            <component componentGuid="7803319e-6712-4b87-9ab4-d549674ab217" id="rackOutput" powered="true">
              <parameter index="0" parameterValue="1"/>
              <parameter index="1" parameterValue="0"/>
            </component>
            <slot powered="true" slotIndex="0">
              <component componentGuid="52f585f0-de98-4914-93b1-5aaaeadcbd29" componentID="164b4e8a-7105-406b-b23b-1ef2cc4d8957" editorHeight="439" editorLeft="705" editorTop="301" editorWidth="511" name="Deslocador de tom">
                <busConfig><![CDATA[{"in":[{"layout":[0],"name":"Entrada de mono","type":0}],"out":[{"layout":[0],"name":"Saída de mono","type":0}]}]]></busConfig>
                <channelMap direction="input">
                  <channel index="0" sourceIndex="0"/>
                </channelMap>
                <channelMap direction="output">
                  <channel index="0" sourceIndex="0"/>
                </channelMap>
                <parameter index="0" name="Transpor proporção" parameterValue="0.414974689483642578125"/>
                <parameter index="1" name="Precisão" parameterValue="0.16666667163372039794921875"/>
                <parameter index="2" name="Frequência" parameterValue="0.0303030312061309814453125"/>
                <parameter index="3" name="Sobreposição" parameterValue="0.20000000298023223876953125"/>
                <parameter index="4" name="Configuração de uso padrão" parameterValue="0.25"/>
              </component>
            </slot>
          </effectsRack>
          <component componentGuid="3fd0909b-4476-4a54-938e-a606a97458a0" componentID="Audition.Fader" id="clipGain" name="volume" powered="true">
            <parameter index="0" name="volume" parameterValue="1"/>
            <parameter index="1" name="static gain" parameterValue="1"/>
          </component>
          <component componentGuid="4859b820-7873-47bb-8ab4-e9117b9ce5f7" componentID="Audition.Mute" id="clipMute" name="Mute" powered="true">
            <parameter index="0" parameterValue="0"/>
            <parameter index="1" name="mute" parameterValue="0"/>
          </component>
          <component componentGuid="bda31a5b-a838-4d69-ab16-7c51f18b53c4" componentID="Audition.StereoPanner" id="clipPan" name="StereoPanner" powered="true">
            <parameter index="0" name="Deslocar" parameterValue="0"/>
          </component>
          <fadeIn crossFadeLinkType="linkedAsymmetric" endPoint="0" shape="0" startPoint="0" type="cosine"/>
          <fadeOut crossFadeLinkType="linkedAsymmetric" endPoint="8202" shape="0" startPoint="8202" type="cosine"/>
          <editParameter parameterIndex="0" slotIndex="4294967280"/>
          <editParameter parameterIndex="0" slotIndex="4294967281"/>
          <channelMap>
            <channel index="0" sourceIndex="0"/>
          </channelMap>
        </audioClip>
        <audioClip clipAutoCrossfade="true" crossFadeHeadClipID="-1" crossFadeTailClipID="-1" endPoint="28750" fileID="0" hue="-1" id="1" lockedInTime="false" looped="false" name="sfx_coin_single2 48000 1" offline="false" select="false" sourceInPoint="0" sourceOutPoint="8202" startPoint="20548" zOrder="1">
          <effectsRack preFader="true">
            <component componentGuid="81c07ee9-d8c4-4abf-8802-84619224cae1" componentID="Audition.ComponentGroup" id="rackMix" powered="true">
              <parameter index="0" parameterValue="0"/>
              <parameter index="1" parameterValue="0"/>
            </component>
            <component componentGuid="22822d73-2549-4cad-825b-1ddcb40be221" id="rackInput" powered="true">
              <parameter index="0" parameterValue="1"/>
              <parameter index="1" parameterValue="0"/>
            </component>
            <component componentGuid="73288cde-e6b8-4ebd-82be-17a5d5f7e1f3" id="rackOutput" powered="true">
              <parameter index="0" parameterValue="1"/>
              <parameter index="1" parameterValue="0"/>
            </component>
            <slot powered="true" slotIndex="0">
              <component componentGuid="d8d422c0-8398-46ac-8ce1-1bf2cfb9e9bc" componentID="164b4e8a-7105-406b-b23b-1ef2cc4d8957" editorHeight="439" editorLeft="1085" editorTop="400" editorWidth="511" name="Deslocador de tom">
                <busConfig><![CDATA[{"in":[{"layout":[0],"name":"Entrada de mono","type":0}],"out":[{"layout":[0],"name":"Saída de mono","type":0}]}]]></busConfig>
                <channelMap direction="input">
                  <channel index="0" sourceIndex="0"/>
                </channelMap>
                <channelMap direction="output">
                  <channel index="0" sourceIndex="0"/>
                </channelMap>
                <parameter index="0" name="Transpor proporção" parameterValue="0.22726428508758544921875"/>
                <parameter index="1" name="Precisão" parameterValue="0.16666667163372039794921875"/>
                <parameter index="2" name="Frequência" parameterValue="0.0303030312061309814453125"/>
                <parameter index="3" name="Sobreposição" parameterValue="0.20000000298023223876953125"/>
                <parameter index="4" name="Configuração de uso padrão" parameterValue="0.25"/>
              </component>
            </slot>
          </effectsRack>
          <component componentGuid="ddec573b-56df-4948-a289-0d72684a988f" componentID="Audition.Fader" id="clipGain" name="volume" powered="true">
            <parameter index="0" name="volume" parameterValue="1"/>
            <parameter index="1" name="static gain" parameterValue="1"/>
          </component>
          <component componentGuid="5cf2d3d3-31ef-4e2b-bfa4-8057142452f9" componentID="Audition.Mute" id="clipMute" name="Mute" powered="true">
            <parameter index="0" parameterValue="0"/>
            <parameter index="1" name="mute" parameterValue="0"/>
          </component>
          <component componentGuid="5846987e-e443-47d6-9332-126ce3133c65" componentID="Audition.StereoPanner" id="clipPan" name="StereoPanner" powered="true">
            <parameter index="0" name="Deslocar" parameterValue="0"/>
          </component>
          <fadeIn crossFadeLinkType="linkedAsymmetric" endPoint="0" shape="0" startPoint="0" type="cosine"/>
          <fadeOut crossFadeLinkType="linkedAsymmetric" endPoint="8202" shape="0" startPoint="8202" type="cosine"/>
          <editParameter parameterIndex="0" slotIndex="4294967280"/>
          <editParameter parameterIndex="0" slotIndex="4294967281"/>
          <channelMap>
            <channel index="0" sourceIndex="0"/>
          </channelMap>
        </audioClip>
        <audioClip clipAutoCrossfade="true" crossFadeHeadClipID="-1" crossFadeTailClipID="-1" endPoint="38400" fileID="0" hue="-1" id="2" lockedInTime="false" looped="false" name="sfx_coin_single2 48000 1" offline="false" select="false" sourceInPoint="0" sourceOutPoint="8202" startPoint="30198" zOrder="3">
          <effectsRack preFader="true">
            <component componentGuid="26ffa90b-9a40-4d08-b56e-e71aacbcc465" componentID="Audition.ComponentGroup" id="rackMix" powered="true">
              <parameter index="0" parameterValue="0"/>
              <parameter index="1" parameterValue="0"/>
            </component>
            <component componentGuid="2de2a6bc-7d9e-4597-8052-3c586460b4c3" id="rackInput" powered="true">
              <parameter index="0" parameterValue="1"/>
              <parameter index="1" parameterValue="0"/>
            </component>
            <component componentGuid="aa6c2bf5-799f-4655-a86a-95580b05fa56" id="rackOutput" powered="true">
              <parameter index="0" parameterValue="1"/>
              <parameter index="1" parameterValue="0"/>
            </component>
            <slot powered="true" slotIndex="0">
              <component componentGuid="ea5f94db-28c3-41ad-97af-393872999726" componentID="164b4e8a-7105-406b-b23b-1ef2cc4d8957" editorHeight="439" editorLeft="705" editorTop="301" editorWidth="511" name="Deslocador de tom">
                <busConfig><![CDATA[{"in":[{"layout":[0],"name":"Entrada de mono","type":0}],"out":[{"layout":[0],"name":"Saída de mono","type":0}]}]]></busConfig>
                <channelMap direction="input">
                  <channel index="0" sourceIndex="0"/>
                </channelMap>
                <channelMap direction="output">
                  <channel index="0" sourceIndex="0"/>
                </channelMap>
                <parameter index="0" name="Transpor proporção" parameterValue="0.2605991363525390625"/>
                <parameter index="1" name="Precisão" parameterValue="0.16666667163372039794921875"/>
                <parameter index="2" name="Frequência" parameterValue="0.0303030312061309814453125"/>
                <parameter index="3" name="Sobreposição" parameterValue="0.20000000298023223876953125"/>
                <parameter index="4" name="Configuração de uso padrão" parameterValue="0.25"/>
              </component>
            </slot>
          </effectsRack>
          <component componentGuid="f90e74ee-2567-4d29-83b3-b815ae24555e" componentID="Audition.Fader" id="clipGain" name="volume" powered="true">
            <parameter index="0" name="volume" parameterValue="1"/>
            <parameter index="1" name="static gain" parameterValue="1"/>
          </component>
          <component componentGuid="adf0a37f-9092-44ca-b29f-42e57385a7b8" componentID="Audition.Mute" id="clipMute" name="Mute" powered="true">
            <parameter index="0" parameterValue="0"/>
            <parameter index="1" name="mute" parameterValue="0"/>
          </component>
          <component componentGuid="3119bfc8-1c5a-461f-a388-833f6773d6d1" componentID="Audition.StereoPanner" id="clipPan" name="StereoPanner" powered="true">
            <parameter index="0" name="Deslocar" parameterValue="0"/>
          </component>
          <fadeIn crossFadeLinkType="linkedAsymmetric" endPoint="0" shape="0" startPoint="0" type="cosine"/>
          <fadeOut crossFadeLinkType="linkedAsymmetric" endPoint="8202" shape="0" startPoint="8202" type="cosine"/>
          <editParameter parameterIndex="0" slotIndex="4294967280"/>
          <editParameter parameterIndex="0" slotIndex="4294967281"/>
          <channelMap>
            <channel index="0" sourceIndex="0"/>
          </channelMap>
        </audioClip>
        <audioClip clipAutoCrossfade="true" crossFadeHeadClipID="-1" crossFadeTailClipID="-1" endPoint="48000" fileID="0" hue="-1" id="3" lockedInTime="false" looped="false" name="sfx_coin_single2 48000 1" offline="false" select="false" sourceInPoint="0" sourceOutPoint="8202" startPoint="39798" zOrder="2">
          <effectsRack preFader="true">
            <component componentGuid="4dcd2830-b997-4867-befb-88a13922e239" componentID="Audition.ComponentGroup" id="rackMix" powered="true">
              <parameter index="0" parameterValue="0"/>
              <parameter index="1" parameterValue="0"/>
            </component>
            <component componentGuid="399077b6-8bdc-40a0-881d-59a16e47cc7a" id="rackInput" powered="true">
              <parameter index="0" parameterValue="1"/>
              <parameter index="1" parameterValue="0"/>
            </component>
            <component componentGuid="918a32e7-cee2-4c8e-919a-148d0a91fe28" id="rackOutput" powered="true">
              <parameter index="0" parameterValue="1"/>
              <parameter index="1" parameterValue="0"/>
            </component>
            <slot powered="true" slotIndex="0">
              <component componentGuid="0bf80a48-03e8-4221-971f-7fd2963e1136" componentID="164b4e8a-7105-406b-b23b-1ef2cc4d8957" editorHeight="439" editorLeft="705" editorTop="301" editorWidth="511" name="Deslocador de tom">
                <busConfig><![CDATA[{"in":[{"layout":[0],"name":"Entrada de mono","type":0}],"out":[{"layout":[0],"name":"Saída de mono","type":0}]}]]></busConfig>
                <channelMap direction="input">
                  <channel index="0" sourceIndex="0"/>
                </channelMap>
                <channelMap direction="output">
                  <channel index="0" sourceIndex="0"/>
                </channelMap>
                <parameter index="0" name="Transpor proporção" parameterValue="0.29591619968414306640625"/>
                <parameter index="1" name="Precisão" parameterValue="0.16666667163372039794921875"/>
                <parameter index="2" name="Frequência" parameterValue="0.0303030312061309814453125"/>
                <parameter index="3" name="Sobreposição" parameterValue="0.20000000298023223876953125"/>
                <parameter index="4" name="Configuração de uso padrão" parameterValue="0.25"/>
              </component>
            </slot>
          </effectsRack>
          <component componentGuid="920eddf6-465c-4b78-951f-30f72fa7479b" componentID="Audition.Fader" id="clipGain" name="volume" powered="true">
            <parameter index="0" name="volume" parameterValue="1"/>
            <parameter index="1" name="static gain" parameterValue="1"/>
          </component>
          <component componentGuid="66e45392-ff13-4101-9881-3dadc7685b42" componentID="Audition.Mute" id="clipMute" name="Mute" powered="true">
            <parameter index="0" parameterValue="0"/>
            <parameter index="1" name="mute" parameterValue="0"/>
          </component>
          <component componentGuid="a14a4c77-87e2-42e8-8188-b33e8a368e59" componentID="Audition.StereoPanner" id="clipPan" name="StereoPanner" powered="true">
            <parameter index="0" name="Deslocar" parameterValue="0"/>
          </component>
          <fadeIn crossFadeLinkType="linkedAsymmetric" endPoint="0" shape="0" startPoint="0" type="cosine"/>
          <fadeOut crossFadeLinkType="linkedAsymmetric" endPoint="8202" shape="0" startPoint="8202" type="cosine"/>
          <editParameter parameterIndex="0" slotIndex="4294967280"/>
          <editParameter parameterIndex="0" slotIndex="4294967281"/>
          <channelMap>
            <channel index="0" sourceIndex="0"/>
          </channelMap>
        </audioClip>
        <audioClip clipAutoCrossfade="true" crossFadeHeadClipID="-1" crossFadeTailClipID="-1" endPoint="65220" fileID="0" hue="-1" id="4" lockedInTime="false" looped="false" name="sfx_coin_single2 48000 1" offline="false" select="false" sourceInPoint="0" sourceOutPoint="8202" startPoint="57018" zOrder="4">
          <effectsRack preFader="true">
            <component componentGuid="2efd2561-cf3e-41c3-b43c-37b92cd4d6c9" componentID="Audition.ComponentGroup" id="rackMix" powered="true">
              <parameter index="0" parameterValue="0"/>
              <parameter index="1" parameterValue="0"/>
            </component>
            <component componentGuid="66d3ba19-64aa-4612-b5c6-e8fffbbe6786" id="rackInput" powered="true">
              <parameter index="0" parameterValue="1"/>
              <parameter index="1" parameterValue="0"/>
            </component>
            <component componentGuid="1a8ee1a6-18f8-4e6e-a521-bbe46ea70edd" id="rackOutput" powered="true">
              <parameter index="0" parameterValue="1"/>
              <parameter index="1" parameterValue="0"/>
            </component>
            <slot powered="true" slotIndex="0">
              <component componentGuid="69b3f4fb-c609-46a1-8488-51a7850d526c" componentID="164b4e8a-7105-406b-b23b-1ef2cc4d8957" editorHeight="439" editorLeft="705" editorTop="301" editorWidth="511" name="Deslocador de tom">
                <busConfig><![CDATA[{"in":[{"layout":[0],"name":"Entrada de mono","type":0}],"out":[{"layout":[0],"name":"Saída de mono","type":0}]}]]></busConfig>
                <channelMap direction="input">
                  <channel index="0" sourceIndex="0"/>
                </channelMap>
                <channelMap direction="output">
                  <channel index="0" sourceIndex="0"/>
                </channelMap>
                <parameter index="0" name="Transpor proporção" parameterValue="0.29591619968414306640625"/>
                <parameter index="1" name="Precisão" parameterValue="0.16666667163372039794921875"/>
                <parameter index="2" name="Frequência" parameterValue="0.0303030312061309814453125"/>
                <parameter index="3" name="Sobreposição" parameterValue="0.20000000298023223876953125"/>
                <parameter index="4" name="Configuração de uso padrão" parameterValue="0.25"/>
              </component>
            </slot>
          </effectsRack>
          <component componentGuid="12030263-38a2-4d21-8036-5beb353bb9c0" componentID="Audition.Fader" id="clipGain" name="volume" powered="true">
            <parameter index="0" name="volume" parameterValue="1"/>
            <parameter index="1" name="static gain" parameterValue="1"/>
          </component>
          <component componentGuid="1a1ac9ce-c15b-4596-99fc-6af467bebe54" componentID="Audition.Mute" id="clipMute" name="Mute" powered="true">
            <parameter index="0" parameterValue="0"/>
            <parameter index="1" name="mute" parameterValue="0"/>
          </component>
          <component componentGuid="e341d6c1-923a-44c3-afb1-7c270e4580f8" componentID="Audition.StereoPanner" id="clipPan" name="StereoPanner" powered="true">
            <parameter index="0" name="Deslocar" parameterValue="0"/>
          </component>
          <fadeIn crossFadeLinkType="linkedAsymmetric" endPoint="0" shape="0" startPoint="0" type="cosine"/>
          <fadeOut crossFadeLinkType="linkedAsymmetric" endPoint="8202" shape="0" startPoint="8202" type="cosine"/>
          <editParameter parameterIndex="0" slotIndex="4294967280"/>
          <editParameter parameterIndex="0" slotIndex="4294967281"/>
          <channelMap>
            <channel index="0" sourceIndex="0"/>
          </channelMap>
        </audioClip>
        <audioClip clipAutoCrossfade="true" crossFadeHeadClipID="-1" crossFadeTailClipID="-1" endPoint="75071" fileID="0" hue="-1" id="5" lockedInTime="false" looped="false" name="sfx_coin_single2 48000 1" offline="false" select="false" sourceInPoint="0" sourceOutPoint="8202" startPoint="66869" zOrder="5">
          <effectsRack preFader="true">
            <component componentGuid="f3398606-223a-4beb-82bf-5bc70ad5b1bd" componentID="Audition.ComponentGroup" id="rackMix" powered="true">
              <parameter index="0" parameterValue="0"/>
              <parameter index="1" parameterValue="0"/>
            </component>
            <component componentGuid="9405b632-e36b-43c7-a8e7-238f4fa15afb" id="rackInput" powered="true">
              <parameter index="0" parameterValue="1"/>
              <parameter index="1" parameterValue="0"/>
            </component>
            <component componentGuid="927b9ea2-d811-475f-9273-441ac7157d98" id="rackOutput" powered="true">
              <parameter index="0" parameterValue="1"/>
              <parameter index="1" parameterValue="0"/>
            </component>
            <slot powered="true" slotIndex="0">
              <component componentGuid="4ac46e7c-347c-48df-b1cf-10f499ac7a74" componentID="164b4e8a-7105-406b-b23b-1ef2cc4d8957" editorHeight="439" editorLeft="705" editorTop="301" editorWidth="511" name="Deslocador de tom">
                <busConfig><![CDATA[{"in":[{"layout":[0],"name":"Entrada de mono","type":0}],"out":[{"layout":[0],"name":"Saída de mono","type":0}]}]]></busConfig>
                <channelMap direction="input">
                  <channel index="0" sourceIndex="0"/>
                </channelMap>
                <channelMap direction="output">
                  <channel index="0" sourceIndex="0"/>
                </channelMap>
                <parameter index="0" name="Transpor proporção" parameterValue="0.2605991363525390625"/>
                <parameter index="1" name="Precisão" parameterValue="0.16666667163372039794921875"/>
                <parameter index="2" name="Frequência" parameterValue="0.0303030312061309814453125"/>
                <parameter index="3" name="Sobreposição" parameterValue="0.20000000298023223876953125"/>
                <parameter index="4" name="Configuração de uso padrão" parameterValue="0.25"/>
              </component>
            </slot>
          </effectsRack>
          <component componentGuid="7171b1e2-8e13-42f8-b654-babac48ed51a" componentID="Audition.Fader" id="clipGain" name="volume" powered="true">
            <parameter index="0" name="volume" parameterValue="1"/>
            <parameter index="1" name="static gain" parameterValue="1"/>
          </component>
          <component componentGuid="6a72b470-3a8f-4e4a-9732-0e8841b12b13" componentID="Audition.Mute" id="clipMute" name="Mute" powered="true">
            <parameter index="0" parameterValue="0"/>
            <parameter index="1" name="mute" parameterValue="0"/>
          </component>
          <component componentGuid="b1066739-d944-4317-9902-6ac80ecd86d0" componentID="Audition.StereoPanner" id="clipPan" name="StereoPanner" powered="true">
            <parameter index="0" name="Deslocar" parameterValue="0"/>
          </component>
          <fadeIn crossFadeLinkType="linkedAsymmetric" endPoint="0" shape="0" startPoint="0" type="cosine"/>
          <fadeOut crossFadeLinkType="linkedAsymmetric" endPoint="8202" shape="0" startPoint="8202" type="cosine"/>
          <editParameter parameterIndex="0" slotIndex="4294967280"/>
          <editParameter parameterIndex="0" slotIndex="4294967281"/>
          <channelMap>
            <channel index="0" sourceIndex="0"/>
          </channelMap>
        </audioClip>
        <audioClip clipAutoCrossfade="true" crossFadeHeadClipID="-1" crossFadeTailClipID="-1" endPoint="85002" fileID="0" hue="-1" id="6" lockedInTime="false" looped="false" name="sfx_coin_single2 48000 1" offline="false" select="false" sourceInPoint="0" sourceOutPoint="8202" startPoint="76800" zOrder="6">
          <effectsRack preFader="true">
            <component componentGuid="c6d6694f-c234-44e3-b571-f6dd82490ef8" componentID="Audition.ComponentGroup" id="rackMix" powered="true">
              <parameter index="0" parameterValue="0"/>
              <parameter index="1" parameterValue="0"/>
            </component>
            <component componentGuid="089acc46-38d0-415d-972f-85e9a466dbb7" id="rackInput" powered="true">
              <parameter index="0" parameterValue="1"/>
              <parameter index="1" parameterValue="0"/>
            </component>
            <component componentGuid="2c19f95b-691f-427c-923d-07c90eac253a" id="rackOutput" powered="true">
              <parameter index="0" parameterValue="1"/>
              <parameter index="1" parameterValue="0"/>
            </component>
            <slot powered="true" slotIndex="0">
              <component componentGuid="7e99c5ff-3de1-4f10-b929-4846c60b7068" componentID="164b4e8a-7105-406b-b23b-1ef2cc4d8957" editorHeight="439" editorLeft="705" editorTop="301" editorWidth="511" name="Deslocador de tom">
                <busConfig><![CDATA[{"in":[{"layout":[0],"name":"Entrada de mono","type":0}],"out":[{"layout":[0],"name":"Saída de mono","type":0}]}]]></busConfig>
                <channelMap direction="input">
                  <channel index="0" sourceIndex="0"/>
                </channelMap>
                <channelMap direction="output">
                  <channel index="0" sourceIndex="0"/>
                </channelMap>
                <parameter index="0" name="Transpor proporção" parameterValue="0.22726428508758544921875"/>
                <parameter index="1" name="Precisão" parameterValue="0.16666667163372039794921875"/>
                <parameter index="2" name="Frequência" parameterValue="0.0303030312061309814453125"/>
                <parameter index="3" name="Sobreposição" parameterValue="0.20000000298023223876953125"/>
                <parameter index="4" name="Configuração de uso padrão" parameterValue="0.25"/>
              </component>
            </slot>
          </effectsRack>
          <component componentGuid="c838b43d-4960-4519-862e-e449727c1d6e" componentID="Audition.Fader" id="clipGain" name="volume" powered="true">
            <parameter index="0" name="volume" parameterValue="1"/>
            <parameter index="1" name="static gain" parameterValue="1"/>
          </component>
          <component componentGuid="a0414558-f123-483a-a5a8-a2e630dc0662" componentID="Audition.Mute" id="clipMute" name="Mute" powered="true">
            <parameter index="0" parameterValue="0"/>
            <parameter index="1" name="mute" parameterValue="0"/>
          </component>
          <component componentGuid="730719d6-4d05-4e3d-bed8-9f5f5d6fdd22" componentID="Audition.StereoPanner" id="clipPan" name="StereoPanner" powered="true">
            <parameter index="0" name="Deslocar" parameterValue="0"/>
          </component>
          <fadeIn crossFadeLinkType="linkedAsymmetric" endPoint="0" shape="0" startPoint="0" type="cosine"/>
          <fadeOut crossFadeLinkType="linkedAsymmetric" endPoint="8202" shape="0" startPoint="8202" type="cosine"/>
          <editParameter parameterIndex="0" slotIndex="4294967280"/>
          <editParameter parameterIndex="0" slotIndex="4294967281"/>
          <channelMap>
            <channel index="0" sourceIndex="0"/>
          </channelMap>
        </audioClip>
        <audioClip clipAutoCrossfade="true" crossFadeHeadClipID="-1" crossFadeTailClipID="-1" endPoint="102033" fileID="0" hue="-1" id="7" lockedInTime="false" looped="false" name="sfx_coin_single2 48000 1" offline="false" select="false" sourceInPoint="0" sourceOutPoint="8202" startPoint="93831" zOrder="7">
          <effectsRack preFader="true">
            <component componentGuid="6dbc5f3a-ad59-4637-918d-44e5ea46ca5a" componentID="Audition.ComponentGroup" id="rackMix" powered="true">
              <parameter index="0" parameterValue="0"/>
              <parameter index="1" parameterValue="0"/>
            </component>
            <component componentGuid="08d8462a-80fc-4dcc-82d2-182293722bd5" id="rackInput" powered="true">
              <parameter index="0" parameterValue="1"/>
              <parameter index="1" parameterValue="0"/>
            </component>
            <component componentGuid="0853a9e3-4cff-4243-bcc8-8487423815ed" id="rackOutput" powered="true">
              <parameter index="0" parameterValue="1"/>
              <parameter index="1" parameterValue="0"/>
            </component>
            <slot powered="true" slotIndex="0">
              <component componentGuid="b6b88d32-2567-4cb6-9340-e18244e47c44" componentID="164b4e8a-7105-406b-b23b-1ef2cc4d8957" editorHeight="439" editorLeft="705" editorTop="301" editorWidth="511" name="Deslocador de tom">
                <busConfig><![CDATA[{"in":[{"layout":[0],"name":"Entrada de mono","type":0}],"out":[{"layout":[0],"name":"Saída de mono","type":0}]}]]></busConfig>
                <channelMap direction="input">
                  <channel index="0" sourceIndex="0"/>
                </channelMap>
                <channelMap direction="output">
                  <channel index="0" sourceIndex="0"/>
                </channelMap>
                <parameter index="0" name="Transpor proporção" parameterValue="0.22726428508758544921875"/>
                <parameter index="1" name="Precisão" parameterValue="0.16666667163372039794921875"/>
                <parameter index="2" name="Frequência" parameterValue="0.0303030312061309814453125"/>
                <parameter index="3" name="Sobreposição" parameterValue="0.20000000298023223876953125"/>
                <parameter index="4" name="Configuração de uso padrão" parameterValue="0.25"/>
              </component>
            </slot>
          </effectsRack>
          <component componentGuid="44789fa8-25c0-4c39-8f07-47259fd81601" componentID="Audition.Fader" id="clipGain" name="volume" powered="true">
            <parameter index="0" name="volume" parameterValue="1"/>
            <parameter index="1" name="static gain" parameterValue="1"/>
          </component>
          <component componentGuid="1ccbdd58-4c7d-44c4-ac60-96f224fe0ad7" componentID="Audition.Mute" id="clipMute" name="Mute" powered="true">
            <parameter index="0" parameterValue="0"/>
            <parameter index="1" name="mute" parameterValue="0"/>
          </component>
          <component componentGuid="67823e97-0d54-4e07-abf4-b87f3a18b827" componentID="Audition.StereoPanner" id="clipPan" name="StereoPanner" powered="true">
            <parameter index="0" name="Deslocar" parameterValue="0"/>
          </component>
          <fadeIn crossFadeLinkType="linkedAsymmetric" endPoint="0" shape="18" startPoint="0" type="log"/>
          <fadeOut crossFadeLinkType="linkedAsymmetric" endPoint="8202" shape="18" startPoint="8202" type="log"/>
          <editParameter parameterIndex="0" slotIndex="4294967280"/>
          <editParameter parameterIndex="0" slotIndex="4294967281"/>
          <channelMap>
            <channel index="0" sourceIndex="0"/>
          </channelMap>
        </audioClip>
        <audioClip clipAutoCrossfade="true" crossFadeHeadClipID="-1" crossFadeTailClipID="-1" endPoint="110235" fileID="0" hue="-1" id="8" lockedInTime="false" looped="false" name="sfx_coin_single2 48000 1" offline="false" select="false" sourceInPoint="0" sourceOutPoint="8202" startPoint="102033" zOrder="12">
          <effectsRack preFader="true">
            <component componentGuid="a3879086-e524-4737-92cb-e8dc62f0dbbb" componentID="Audition.ComponentGroup" id="rackMix" powered="true">
              <parameter index="0" parameterValue="0"/>
              <parameter index="1" parameterValue="0"/>
            </component>
            <component componentGuid="befc64f0-617e-40fe-94e7-255bbc17e50c" id="rackInput" powered="true">
              <parameter index="0" parameterValue="1"/>
              <parameter index="1" parameterValue="0"/>
            </component>
            <component componentGuid="3a652889-3f0a-4d64-9d71-dee17a98729f" id="rackOutput" powered="true">
              <parameter index="0" parameterValue="1"/>
              <parameter index="1" parameterValue="0"/>
            </component>
            <slot powered="true" slotIndex="0">
              <component componentGuid="b4b0aef1-397e-48f7-b793-3c30ff0a25f7" componentID="164b4e8a-7105-406b-b23b-1ef2cc4d8957" editorHeight="439" editorLeft="705" editorTop="301" editorWidth="511" name="Deslocador de tom">
                <busConfig><![CDATA[{"in":[{"layout":[0],"name":"Entrada de mono","type":0}],"out":[{"layout":[0],"name":"Saída de mono","type":0}]}]]></busConfig>
                <channelMap direction="input">
                  <channel index="0" sourceIndex="0"/>
                </channelMap>
                <channelMap direction="output">
                  <channel index="0" sourceIndex="0"/>
                </channelMap>
                <parameter index="0" name="Transpor proporção" parameterValue="0.22726428508758544921875"/>
                <parameter index="1" name="Precisão" parameterValue="0.16666667163372039794921875"/>
                <parameter index="2" name="Frequência" parameterValue="0.0303030312061309814453125"/>
                <parameter index="3" name="Sobreposição" parameterValue="0.20000000298023223876953125"/>
                <parameter index="4" name="Configuração de uso padrão" parameterValue="0.25"/>
              </component>
            </slot>
          </effectsRack>
          <component componentGuid="52aff314-bdf4-42a0-9209-8383fb7fb062" componentID="Audition.Fader" id="clipGain" name="volume" powered="true">
            <parameter index="0" name="volume" parameterValue="1"/>
            <parameter index="1" name="static gain" parameterValue="1"/>
          </component>
          <component componentGuid="71cf4bb1-2b47-40cd-945f-03abbf96483e" componentID="Audition.Mute" id="clipMute" name="Mute" powered="true">
            <parameter index="0" parameterValue="0"/>
            <parameter index="1" name="mute" parameterValue="0"/>
          </component>
          <component componentGuid="1c194f32-dcf9-4248-b719-de2f5c51611e" componentID="Audition.StereoPanner" id="clipPan" name="StereoPanner" powered="true">
            <parameter index="0" name="Deslocar" parameterValue="0"/>
          </component>
          <fadeIn crossFadeLinkType="linkedAsymmetric" endPoint="0" shape="19" startPoint="0" type="log"/>
          <fadeOut crossFadeLinkType="linkedAsymmetric" endPoint="8202" shape="19" startPoint="8202" type="log"/>
          <editParameter parameterIndex="0" slotIndex="4294967280"/>
          <editParameter parameterIndex="0" slotIndex="4294967281"/>
          <channelMap>
            <channel index="0" sourceIndex="0"/>
          </channelMap>
        </audioClip>
        <audioClip clipAutoCrossfade="true" crossFadeHeadClipID="-1" crossFadeTailClipID="-1" endPoint="119583" fileID="0" hue="-1" id="9" lockedInTime="false" looped="false" name="sfx_coin_single2 48000 1" offline="false" select="false" sourceInPoint="0" sourceOutPoint="8202" startPoint="111381" zOrder="22">
          <effectsRack preFader="true">
            <component componentGuid="e935d5f0-7071-4cab-be6d-f3ae459e54ea" componentID="Audition.ComponentGroup" id="rackMix" powered="true">
              <parameter index="0" parameterValue="0"/>
              <parameter index="1" parameterValue="0"/>
            </component>
            <component componentGuid="c5574c59-a13f-4cc7-8061-64b045066f63" id="rackInput" powered="true">
              <parameter index="0" parameterValue="1"/>
              <parameter index="1" parameterValue="0"/>
            </component>
            <component componentGuid="6e2f1035-3825-4773-9b3a-3de456836eca" id="rackOutput" powered="true">
              <parameter index="0" parameterValue="1"/>
              <parameter index="1" parameterValue="0"/>
            </component>
            <slot powered="true" slotIndex="0">
              <component componentGuid="c7abdbfb-de11-4d29-b2e1-f258facc4d9f" componentID="164b4e8a-7105-406b-b23b-1ef2cc4d8957" editorHeight="439" editorLeft="705" editorTop="301" editorWidth="511" name="Deslocador de tom">
                <busConfig><![CDATA[{"in":[{"layout":[0],"name":"Entrada de mono","type":0}],"out":[{"layout":[0],"name":"Saída de mono","type":0}]}]]></busConfig>
                <channelMap direction="input">
                  <channel index="0" sourceIndex="0"/>
                </channelMap>
                <channelMap direction="output">
                  <channel index="0" sourceIndex="0"/>
                </channelMap>
                <parameter index="0" name="Transpor proporção" parameterValue="0.3333333432674407958984375"/>
                <parameter index="1" name="Precisão" parameterValue="0.16666667163372039794921875"/>
                <parameter index="2" name="Frequência" parameterValue="0.0303030312061309814453125"/>
                <parameter index="3" name="Sobreposição" parameterValue="0.20000000298023223876953125"/>
                <parameter index="4" name="Configuração de uso padrão" parameterValue="0.25"/>
              </component>
            </slot>
          </effectsRack>
          <component componentGuid="d6433fa2-fe7c-4e0d-8f10-97b44128f1d0" componentID="Audition.Fader" id="clipGain" name="volume" powered="true">
            <parameter index="0" name="volume" parameterValue="1"/>
            <parameter index="1" name="static gain" parameterValue="1"/>
          </component>
          <component componentGuid="65b5ebd9-d979-49d3-b1a4-c4ede8b3f317" componentID="Audition.Mute" id="clipMute" name="Mute" powered="true">
            <parameter index="0" parameterValue="0"/>
            <parameter index="1" name="mute" parameterValue="0"/>
          </component>
          <component componentGuid="ba18afd9-481b-4ddd-a6c6-e51e3764dda7" componentID="Audition.StereoPanner" id="clipPan" name="StereoPanner" powered="true">
            <parameter index="0" name="Deslocar" parameterValue="0"/>
          </component>
          <fadeIn crossFadeLinkType="linkedAsymmetric" endPoint="0" shape="18" startPoint="0" type="log"/>
          <fadeOut crossFadeLinkType="linkedAsymmetric" endPoint="8202" shape="18" startPoint="8202" type="log"/>
          <editParameter parameterIndex="0" slotIndex="4294967280"/>
          <editParameter parameterIndex="0" slotIndex="4294967281"/>
          <channelMap>
            <channel index="0" sourceIndex="0"/>
          </channelMap>
        </audioClip>
        <audioClip clipAutoCrossfade="true" crossFadeHeadClipID="-1" crossFadeTailClipID="-1" endPoint="127785" fileID="0" hue="-1" id="10" lockedInTime="false" looped="false" name="sfx_coin_single2 48000 1" offline="false" select="false" sourceInPoint="0" sourceOutPoint="8202" startPoint="119583" zOrder="23">
          <effectsRack preFader="true">
            <component componentGuid="7f9fbbc5-3ef9-4acb-a96b-a620cde3931e" componentID="Audition.ComponentGroup" id="rackMix" powered="true">
              <parameter index="0" parameterValue="0"/>
              <parameter index="1" parameterValue="0"/>
            </component>
            <component componentGuid="1aeb4360-d7fc-4821-9484-e110fe97f708" id="rackInput" powered="true">
              <parameter index="0" parameterValue="1"/>
              <parameter index="1" parameterValue="0"/>
            </component>
            <component componentGuid="5da387e0-d8e2-4444-b2ec-e7c7ba95299f" id="rackOutput" powered="true">
              <parameter index="0" parameterValue="1"/>
              <parameter index="1" parameterValue="0"/>
            </component>
            <slot powered="true" slotIndex="0">
              <component componentGuid="7d3f5881-061a-4830-9fc8-6f5925145c8f" componentID="164b4e8a-7105-406b-b23b-1ef2cc4d8957" editorHeight="439" editorLeft="705" editorTop="301" editorWidth="511" name="Deslocador de tom">
                <busConfig><![CDATA[{"in":[{"layout":[0],"name":"Entrada de mono","type":0}],"out":[{"layout":[0],"name":"Saída de mono","type":0}]}]]></busConfig>
                <channelMap direction="input">
                  <channel index="0" sourceIndex="0"/>
                </channelMap>
                <channelMap direction="output">
                  <channel index="0" sourceIndex="0"/>
                </channelMap>
                <parameter index="0" name="Transpor proporção" parameterValue="0.3333333432674407958984375"/>
                <parameter index="1" name="Precisão" parameterValue="0.16666667163372039794921875"/>
                <parameter index="2" name="Frequência" parameterValue="0.0303030312061309814453125"/>
                <parameter index="3" name="Sobreposição" parameterValue="0.20000000298023223876953125"/>
                <parameter index="4" name="Configuração de uso padrão" parameterValue="0.25"/>
              </component>
            </slot>
          </effectsRack>
          <component componentGuid="8bd0a70e-dd5c-4449-b71f-100297f42010" componentID="Audition.Fader" id="clipGain" name="volume" powered="true">
            <parameter index="0" name="volume" parameterValue="1"/>
            <parameter index="1" name="static gain" parameterValue="1"/>
          </component>
          <component componentGuid="8ab5ce90-9d6c-422d-8513-4b7f1fbe86c3" componentID="Audition.Mute" id="clipMute" name="Mute" powered="true">
            <parameter index="0" parameterValue="0"/>
            <parameter index="1" name="mute" parameterValue="0"/>
          </component>
          <component componentGuid="68951a9e-ec95-437b-94aa-c53d41103ee5" componentID="Audition.StereoPanner" id="clipPan" name="StereoPanner" powered="true">
            <parameter index="0" name="Deslocar" parameterValue="0"/>
          </component>
          <fadeIn crossFadeLinkType="linkedAsymmetric" endPoint="0" shape="19" startPoint="0" type="log"/>
          <fadeOut crossFadeLinkType="linkedAsymmetric" endPoint="8202" shape="19" startPoint="8202" type="log"/>
          <editParameter parameterIndex="0" slotIndex="4294967280"/>
          <editParameter parameterIndex="0" slotIndex="4294967281"/>
          <channelMap>
            <channel index="0" sourceIndex="0"/>
          </channelMap>
        </audioClip>
        <audioClip clipAutoCrossfade="true" crossFadeHeadClipID="-1" crossFadeTailClipID="-1" endPoint="135987" fileID="0" hue="-1" id="11" lockedInTime="false" looped="false" name="sfx_coin_single2 48000 1" offline="false" select="false" sourceInPoint="0" sourceOutPoint="8202" startPoint="127785" zOrder="25">
          <effectsRack preFader="true">
            <component componentGuid="f7b541e1-5fa9-43b0-9eb0-760d9bdea783" componentID="Audition.ComponentGroup" id="rackMix" powered="true">
              <parameter index="0" parameterValue="0"/>
              <parameter index="1" parameterValue="0"/>
            </component>
            <component componentGuid="f6aca46d-0c5f-48ab-967c-b95adee40079" id="rackInput" powered="true">
              <parameter index="0" parameterValue="1"/>
              <parameter index="1" parameterValue="0"/>
            </component>
            <component componentGuid="86489071-025f-4da8-bef7-41da6eb3b0c2" id="rackOutput" powered="true">
              <parameter index="0" parameterValue="1"/>
              <parameter index="1" parameterValue="0"/>
            </component>
            <slot powered="true" slotIndex="0">
              <component componentGuid="861a3314-bf35-46f6-9619-e6e69916d2f7" componentID="164b4e8a-7105-406b-b23b-1ef2cc4d8957" editorHeight="439" editorLeft="705" editorTop="301" editorWidth="511" name="Deslocador de tom">
                <busConfig><![CDATA[{"in":[{"layout":[0],"name":"Entrada de mono","type":0}],"out":[{"layout":[0],"name":"Saída de mono","type":0}]}]]></busConfig>
                <channelMap direction="input">
                  <channel index="0" sourceIndex="0"/>
                </channelMap>
                <channelMap direction="output">
                  <channel index="0" sourceIndex="0"/>
                </channelMap>
                <parameter index="0" name="Transpor proporção" parameterValue="0.29591619968414306640625"/>
                <parameter index="1" name="Precisão" parameterValue="0.16666667163372039794921875"/>
                <parameter index="2" name="Frequência" parameterValue="0.0303030312061309814453125"/>
                <parameter index="3" name="Sobreposição" parameterValue="0.20000000298023223876953125"/>
                <parameter index="4" name="Configuração de uso padrão" parameterValue="0.25"/>
              </component>
            </slot>
          </effectsRack>
          <component componentGuid="0321019f-f8c4-4aab-8ab8-ff6d08c688c0" componentID="Audition.Fader" id="clipGain" name="volume" powered="true">
            <parameter index="0" name="volume" parameterValue="1"/>
            <parameter index="1" name="static gain" parameterValue="1"/>
          </component>
          <component componentGuid="a69d8e21-f459-4116-a4bf-7a098ea78026" componentID="Audition.Mute" id="clipMute" name="Mute" powered="true">
            <parameter index="0" parameterValue="0"/>
            <parameter index="1" name="mute" parameterValue="0"/>
          </component>
          <component componentGuid="0c883238-8c70-4bce-99bc-6d6c66579bfd" componentID="Audition.StereoPanner" id="clipPan" name="StereoPanner" powered="true">
            <parameter index="0" name="Deslocar" parameterValue="0"/>
          </component>
          <fadeIn crossFadeLinkType="linkedAsymmetric" endPoint="0" shape="18" startPoint="0" type="log"/>
          <fadeOut crossFadeLinkType="linkedAsymmetric" endPoint="8202" shape="19" startPoint="8202" type="log"/>
          <editParameter parameterIndex="0" slotIndex="4294967280"/>
          <editParameter parameterIndex="0" slotIndex="4294967281"/>
          <channelMap>
            <channel index="0" sourceIndex="0"/>
          </channelMap>
        </audioClip>
        <audioClip clipAutoCrossfade="true" crossFadeHeadClipID="-1" crossFadeTailClipID="-1" endPoint="144189" fileID="0" hue="-1" id="12" lockedInTime="false" looped="false" name="sfx_coin_single2 48000 1" offline="false" select="false" sourceInPoint="0" sourceOutPoint="8202" startPoint="135987" zOrder="26">
          <effectsRack preFader="true">
            <component componentGuid="3e616ca6-2ae5-4f71-811d-6350fa4c8e6a" componentID="Audition.ComponentGroup" id="rackMix" powered="true">
              <parameter index="0" parameterValue="0"/>
              <parameter index="1" parameterValue="0"/>
            </component>
            <component componentGuid="85aacd70-772a-4161-9c17-d56177da18a0" id="rackInput" powered="true">
              <parameter index="0" parameterValue="1"/>
              <parameter index="1" parameterValue="0"/>
            </component>
            <component componentGuid="e92d045d-4587-49a5-b881-e69abe49518e" id="rackOutput" powered="true">
              <parameter index="0" parameterValue="1"/>
              <parameter index="1" parameterValue="0"/>
            </component>
            <slot powered="true" slotIndex="0">
              <component componentGuid="2bdc9df5-77e6-47ee-9432-3b74a3ee6842" componentID="164b4e8a-7105-406b-b23b-1ef2cc4d8957" editorHeight="439" editorLeft="705" editorTop="301" editorWidth="511" name="Deslocador de tom">
                <busConfig><![CDATA[{"in":[{"layout":[0],"name":"Entrada de mono","type":0}],"out":[{"layout":[0],"name":"Saída de mono","type":0}]}]]></busConfig>
                <channelMap direction="input">
                  <channel index="0" sourceIndex="0"/>
                </channelMap>
                <channelMap direction="output">
                  <channel index="0" sourceIndex="0"/>
                </channelMap>
                <parameter index="0" name="Transpor proporção" parameterValue="0.29591619968414306640625"/>
                <parameter index="1" name="Precisão" parameterValue="0.16666667163372039794921875"/>
                <parameter index="2" name="Frequência" parameterValue="0.0303030312061309814453125"/>
                <parameter index="3" name="Sobreposição" parameterValue="0.20000000298023223876953125"/>
                <parameter index="4" name="Configuração de uso padrão" parameterValue="0.25"/>
              </component>
            </slot>
          </effectsRack>
          <component componentGuid="b6817239-91eb-4d95-9a5a-174741f34b65" componentID="Audition.Fader" id="clipGain" name="volume" powered="true">
            <parameter index="0" name="volume" parameterValue="1"/>
            <parameter index="1" name="static gain" parameterValue="1"/>
          </component>
          <component componentGuid="8ba1df73-d2a3-4326-b607-1678f10c63da" componentID="Audition.Mute" id="clipMute" name="Mute" powered="true">
            <parameter index="0" parameterValue="0"/>
            <parameter index="1" name="mute" parameterValue="0"/>
          </component>
          <component componentGuid="6d3b658b-8b93-4859-bf3e-a6e68c2b6edb" componentID="Audition.StereoPanner" id="clipPan" name="StereoPanner" powered="true">
            <parameter index="0" name="Deslocar" parameterValue="0"/>
          </component>
          <fadeIn crossFadeLinkType="linkedAsymmetric" endPoint="0" shape="18" startPoint="0" type="log"/>
          <fadeOut crossFadeLinkType="linkedAsymmetric" endPoint="8202" shape="19" startPoint="8202" type="log"/>
          <editParameter parameterIndex="0" slotIndex="4294967280"/>
          <editParameter parameterIndex="0" slotIndex="4294967281"/>
          <channelMap>
            <channel index="0" sourceIndex="0"/>
          </channelMap>
        </audioClip>
        <audioClip clipAutoCrossfade="true" crossFadeHeadClipID="-1" crossFadeTailClipID="-1" endPoint="155053" fileID="0" hue="-1" id="13" lockedInTime="false" looped="false" name="sfx_coin_single2 48000 1" offline="false" select="false" sourceInPoint="0" sourceOutPoint="8202" startPoint="146851" zOrder="20">
          <effectsRack preFader="true">
            <component componentGuid="f77428a2-b083-41ba-b022-6ece3ccc74e7" componentID="Audition.ComponentGroup" id="rackMix" powered="true">
              <parameter index="0" parameterValue="0"/>
              <parameter index="1" parameterValue="0"/>
            </component>
            <component componentGuid="2de0ab5c-2126-4e18-b35f-ee48ad4be021" id="rackInput" powered="true">
              <parameter index="0" parameterValue="1"/>
              <parameter index="1" parameterValue="0"/>
            </component>
            <component componentGuid="cf218132-2137-4056-857c-06633fad2319" id="rackOutput" powered="true">
              <parameter index="0" parameterValue="1"/>
              <parameter index="1" parameterValue="0"/>
            </component>
            <slot powered="true" slotIndex="0">
              <component componentGuid="6d0cf2ad-b924-45fd-9865-94e7974e19e8" componentID="164b4e8a-7105-406b-b23b-1ef2cc4d8957" editorHeight="439" editorLeft="705" editorTop="301" editorWidth="511" name="Deslocador de tom">
                <busConfig><![CDATA[{"in":[{"layout":[0],"name":"Entrada de mono","type":0}],"out":[{"layout":[0],"name":"Saída de mono","type":0}]}]]></busConfig>
                <channelMap direction="input">
                  <channel index="0" sourceIndex="0"/>
                </channelMap>
                <channelMap direction="output">
                  <channel index="0" sourceIndex="0"/>
                </channelMap>
                <parameter index="0" name="Transpor proporção" parameterValue="0.2605991363525390625"/>
                <parameter index="1" name="Precisão" parameterValue="0.16666667163372039794921875"/>
                <parameter index="2" name="Frequência" parameterValue="0.0303030312061309814453125"/>
                <parameter index="3" name="Sobreposição" parameterValue="0.20000000298023223876953125"/>
                <parameter index="4" name="Configuração de uso padrão" parameterValue="0.25"/>
              </component>
            </slot>
          </effectsRack>
          <component componentGuid="5a46be76-e25b-4afb-a544-cde7748a6211" componentID="Audition.Fader" id="clipGain" name="volume" powered="true">
            <parameter index="0" name="volume" parameterValue="1"/>
            <parameter index="1" name="static gain" parameterValue="1"/>
          </component>
          <component componentGuid="273f0ee6-24cb-41c9-a2db-0b7b2000376c" componentID="Audition.Mute" id="clipMute" name="Mute" powered="true">
            <parameter index="0" parameterValue="0"/>
            <parameter index="1" name="mute" parameterValue="0"/>
          </component>
          <component componentGuid="03ae5f56-862b-4291-8504-c324132040eb" componentID="Audition.StereoPanner" id="clipPan" name="StereoPanner" powered="true">
            <parameter index="0" name="Deslocar" parameterValue="0"/>
          </component>
          <fadeIn crossFadeLinkType="linkedAsymmetric" endPoint="0" shape="19" startPoint="0" type="log"/>
          <fadeOut crossFadeLinkType="linkedAsymmetric" endPoint="8202" shape="19" startPoint="8202" type="log"/>
          <editParameter parameterIndex="0" slotIndex="4294967280"/>
          <editParameter parameterIndex="0" slotIndex="4294967281"/>
          <channelMap>
            <channel index="0" sourceIndex="0"/>
          </channelMap>
        </audioClip>
        <audioClip clipAutoCrossfade="true" crossFadeHeadClipID="-1" crossFadeTailClipID="-1" endPoint="176504" fileID="0" hue="-1" id="14" lockedInTime="false" looped="false" name="sfx_coin_single2 48000 1" offline="false" select="false" sourceInPoint="0" sourceOutPoint="8202" startPoint="168302" zOrder="33">
          <effectsRack preFader="true">
            <component componentGuid="8891add9-6232-4e78-9726-e0cdeb2a6f99" componentID="Audition.ComponentGroup" id="rackMix" powered="true">
              <parameter index="0" parameterValue="0"/>
              <parameter index="1" parameterValue="0"/>
            </component>
            <component componentGuid="09c76899-a2be-4e78-9713-2bf75c7bcfc2" id="rackInput" powered="true">
              <parameter index="0" parameterValue="1"/>
              <parameter index="1" parameterValue="0"/>
            </component>
            <component componentGuid="763f4e88-3595-4374-a633-b68f90a31112" id="rackOutput" powered="true">
              <parameter index="0" parameterValue="1"/>
              <parameter index="1" parameterValue="0"/>
            </component>
            <slot powered="true" slotIndex="0">
              <component componentGuid="ed20c466-53d0-4989-9a53-8da1777a6c53" componentID="164b4e8a-7105-406b-b23b-1ef2cc4d8957" editorHeight="439" editorLeft="705" editorTop="301" editorWidth="511" name="Deslocador de tom">
                <busConfig><![CDATA[{"in":[{"layout":[0],"name":"Entrada de mono","type":0}],"out":[{"layout":[0],"name":"Saída de mono","type":0}]}]]></busConfig>
                <channelMap direction="input">
                  <channel index="0" sourceIndex="0"/>
                </channelMap>
                <channelMap direction="output">
                  <channel index="0" sourceIndex="0"/>
                </channelMap>
                <parameter index="0" name="Transpor proporção" parameterValue="0.22726428508758544921875"/>
                <parameter index="1" name="Precisão" parameterValue="0.16666667163372039794921875"/>
                <parameter index="2" name="Frequência" parameterValue="0.0303030312061309814453125"/>
                <parameter index="3" name="Sobreposição" parameterValue="0.20000000298023223876953125"/>
                <parameter index="4" name="Configuração de uso padrão" parameterValue="0.25"/>
              </component>
            </slot>
          </effectsRack>
          <component componentGuid="ac7b6c9b-0e5a-4054-bcf1-228b5dd79b96" componentID="Audition.Fader" id="clipGain" name="volume" powered="true">
            <parameter index="0" name="volume" parameterValue="1"/>
            <parameter index="1" name="static gain" parameterValue="1"/>
          </component>
          <component componentGuid="0b1c04c3-4b02-4edc-b175-881c372671e3" componentID="Audition.Mute" id="clipMute" name="Mute" powered="true">
            <parameter index="0" parameterValue="0"/>
            <parameter index="1" name="mute" parameterValue="0"/>
          </component>
          <component componentGuid="e1f768cd-67ab-4875-a4e7-5c0e91e8c13b" componentID="Audition.StereoPanner" id="clipPan" name="StereoPanner" powered="true">
            <parameter index="0" name="Deslocar" parameterValue="0"/>
          </component>
          <fadeIn crossFadeLinkType="linkedAsymmetric" endPoint="0" shape="19" startPoint="0" type="log"/>
          <fadeOut crossFadeLinkType="linkedAsymmetric" endPoint="8202" shape="19" startPoint="8202" type="log"/>
          <editParameter parameterIndex="0" slotIndex="4294967280"/>
          <editParameter parameterIndex="0" slotIndex="4294967281"/>
          <channelMap>
            <channel index="0" sourceIndex="0"/>
          </channelMap>
        </audioClip>
        <audioClip clipAutoCrossfade="true" crossFadeHeadClipID="-1" crossFadeTailClipID="-1" endPoint="185780" fileID="0" hue="-1" id="15" lockedInTime="false" looped="false" name="sfx_coin_single2 48000 1" offline="false" select="false" sourceInPoint="0" sourceOutPoint="8202" startPoint="177578" zOrder="48">
          <effectsRack preFader="true">
            <component componentGuid="2b2ed9cb-5184-41b0-816d-cddbf066629a" componentID="Audition.ComponentGroup" id="rackMix" powered="true">
              <parameter index="0" parameterValue="0"/>
              <parameter index="1" parameterValue="0"/>
            </component>
            <component componentGuid="26d51186-d330-4667-be08-ae18ef26a7db" id="rackInput" powered="true">
              <parameter index="0" parameterValue="1"/>
              <parameter index="1" parameterValue="0"/>
            </component>
            <component componentGuid="89567ba6-64f8-4edc-a638-6c96aeb3c67e" id="rackOutput" powered="true">
              <parameter index="0" parameterValue="1"/>
              <parameter index="1" parameterValue="0"/>
            </component>
            <slot powered="true" slotIndex="0">
              <component componentGuid="1fca37a1-09c6-4a9f-b722-23078ac586ad" componentID="164b4e8a-7105-406b-b23b-1ef2cc4d8957" editorHeight="439" editorLeft="668" editorTop="440" editorWidth="511" name="Deslocador de tom">
                <busConfig><![CDATA[{"in":[{"layout":[0],"name":"Entrada de mono","type":0}],"out":[{"layout":[0],"name":"Saída de mono","type":0}]}]]></busConfig>
                <channelMap direction="input">
                  <channel index="0" sourceIndex="0"/>
                </channelMap>
                <channelMap direction="output">
                  <channel index="0" sourceIndex="0"/>
                </channelMap>
                <parameter index="0" name="Transpor proporção" parameterValue="0.2794592678546905517578125"/>
                <parameter index="1" name="Precisão" parameterValue="0.16666667163372039794921875"/>
                <parameter index="2" name="Frequência" parameterValue="0.0303030312061309814453125"/>
                <parameter index="3" name="Sobreposição" parameterValue="0.20000000298023223876953125"/>
                <parameter index="4" name="Configuração de uso padrão" parameterValue="0.25"/>
              </component>
            </slot>
          </effectsRack>
          <component componentGuid="1cdf88e3-f9a1-49be-9ef3-d585ec05a1e6" componentID="Audition.Fader" id="clipGain" name="volume" powered="true">
            <parameter index="0" name="volume" parameterValue="1"/>
            <parameter index="1" name="static gain" parameterValue="1"/>
          </component>
          <component componentGuid="8cb92929-a08e-407c-b93e-6ec607399d56" componentID="Audition.Mute" id="clipMute" name="Mute" powered="true">
            <parameter index="0" parameterValue="0"/>
            <parameter index="1" name="mute" parameterValue="0"/>
          </component>
          <component componentGuid="386ee802-dc07-4a62-bc1d-c6c2f861ed8c" componentID="Audition.StereoPanner" id="clipPan" name="StereoPanner" powered="true">
            <parameter index="0" name="Deslocar" parameterValue="0"/>
          </component>
          <fadeIn crossFadeLinkType="linkedAsymmetric" endPoint="0" shape="19" startPoint="0" type="log"/>
          <fadeOut crossFadeLinkType="linkedAsymmetric" endPoint="8202" shape="19" startPoint="8202" type="log"/>
          <editParameter parameterIndex="0" slotIndex="4294967280"/>
          <editParameter parameterIndex="0" slotIndex="4294967281"/>
          <channelMap>
            <channel index="0" sourceIndex="0"/>
          </channelMap>
        </audioClip>
        <audioClip clipAutoCrossfade="true" crossFadeHeadClipID="-1" crossFadeTailClipID="-1" endPoint="201600" fileID="0" hue="-1" id="16" lockedInTime="false" looped="false" name="sfx_coin_single2 48000 1" offline="false" select="false" sourceInPoint="0" sourceOutPoint="8202" startPoint="193398" zOrder="65">
          <effectsRack preFader="true">
            <component componentGuid="9a946a3a-3e7e-48ce-8459-67699a8f8c1b" componentID="Audition.ComponentGroup" id="rackMix" powered="true">
              <parameter index="0" parameterValue="0"/>
              <parameter index="1" parameterValue="0"/>
            </component>
            <component componentGuid="cd00b9bb-5e3c-468a-a326-e9d4a1db23bf" id="rackInput" powered="true">
              <parameter index="0" parameterValue="1"/>
              <parameter index="1" parameterValue="0"/>
            </component>
            <component componentGuid="c481c572-877b-45fb-a719-87499cab3d26" id="rackOutput" powered="true">
              <parameter index="0" parameterValue="1"/>
              <parameter index="1" parameterValue="0"/>
            </component>
            <slot powered="true" slotIndex="0">
              <component componentGuid="b5dedc11-fddc-4113-b43b-ec2b9103bc41" componentID="164b4e8a-7105-406b-b23b-1ef2cc4d8957" editorHeight="439" editorLeft="705" editorTop="301" editorWidth="511" name="Deslocador de tom">
                <busConfig><![CDATA[{"in":[{"layout":[0],"name":"Entrada de mono","type":0}],"out":[{"layout":[0],"name":"Saída de mono","type":0}]}]]></busConfig>
                <channelMap direction="input">
                  <channel index="0" sourceIndex="0"/>
                </channelMap>
                <channelMap direction="output">
                  <channel index="0" sourceIndex="0"/>
                </channelMap>
                <parameter index="0" name="Transpor proporção" parameterValue="0.3114989101886749267578125"/>
                <parameter index="1" name="Precisão" parameterValue="0.16666667163372039794921875"/>
                <parameter index="2" name="Frequência" parameterValue="0.0303030312061309814453125"/>
                <parameter index="3" name="Sobreposição" parameterValue="0.20000000298023223876953125"/>
                <parameter index="4" name="Configuração de uso padrão" parameterValue="0.25"/>
              </component>
            </slot>
          </effectsRack>
          <component componentGuid="aee83b1a-14b5-4cb8-bae7-122bd9e57ac0" componentID="Audition.Fader" id="clipGain" name="volume" powered="true">
            <parameter index="0" name="volume" parameterValue="1"/>
            <parameter index="1" name="static gain" parameterValue="1"/>
          </component>
          <component componentGuid="77a3e45c-2ce2-44df-89be-0eab3d680211" componentID="Audition.Mute" id="clipMute" name="Mute" powered="true">
            <parameter index="0" parameterValue="0"/>
            <parameter index="1" name="mute" parameterValue="0"/>
          </component>
          <component componentGuid="ea7ba110-1151-4d2b-a39b-957c81d49324" componentID="Audition.StereoPanner" id="clipPan" name="StereoPanner" powered="true">
            <parameter index="0" name="Deslocar" parameterValue="0"/>
          </component>
          <fadeIn crossFadeLinkType="linkedAsymmetric" endPoint="0" shape="19" startPoint="0" type="log"/>
          <fadeOut crossFadeLinkType="linkedAsymmetric" endPoint="8202" shape="18" startPoint="8202" type="log"/>
          <editParameter parameterIndex="0" slotIndex="4294967280"/>
          <editParameter parameterIndex="0" slotIndex="4294967281"/>
          <channelMap>
            <channel index="0" sourceIndex="0"/>
          </channelMap>
        </audioClip>
        <audioClip clipAutoCrossfade="true" crossFadeHeadClipID="-1" crossFadeTailClipID="-1" endPoint="213349" fileID="0" hue="-1" id="17" lockedInTime="false" looped="false" name="sfx_coin_single2 48000 1" offline="false" select="false" sourceInPoint="0" sourceOutPoint="8202" startPoint="205147" zOrder="82">
          <effectsRack preFader="true">
            <component componentGuid="5325e6e4-bc0d-4230-bec9-44b5a3744e7b" componentID="Audition.ComponentGroup" id="rackMix" powered="true">
              <parameter index="0" parameterValue="0"/>
              <parameter index="1" parameterValue="0"/>
            </component>
            <component componentGuid="cd05dc87-a54c-4c89-814d-9616ea029693" id="rackInput" powered="true">
              <parameter index="0" parameterValue="1"/>
              <parameter index="1" parameterValue="0"/>
            </component>
            <component componentGuid="d251ce2f-a1b3-4c20-a3a3-0993323884ed" id="rackOutput" powered="true">
              <parameter index="0" parameterValue="1"/>
              <parameter index="1" parameterValue="0"/>
            </component>
            <slot powered="true" slotIndex="0">
              <component componentGuid="5b7296cf-74ec-4811-b89e-5193f05c7ce4" componentID="164b4e8a-7105-406b-b23b-1ef2cc4d8957" editorHeight="439" editorLeft="705" editorTop="301" editorWidth="511" name="Deslocador de tom">
                <busConfig><![CDATA[{"in":[{"layout":[0],"name":"Entrada de mono","type":0}],"out":[{"layout":[0],"name":"Saída de mono","type":0}]}]]></busConfig>
                <channelMap direction="input">
                  <channel index="0" sourceIndex="0"/>
                </channelMap>
                <channelMap direction="output">
                  <channel index="0" sourceIndex="0"/>
                </channelMap>
                <parameter index="0" name="Transpor proporção" parameterValue="0.2830767929553985595703125"/>
                <parameter index="1" name="Precisão" parameterValue="0.16666667163372039794921875"/>
                <parameter index="2" name="Frequência" parameterValue="0.0303030312061309814453125"/>
                <parameter index="3" name="Sobreposição" parameterValue="0.20000000298023223876953125"/>
                <parameter index="4" name="Configuração de uso padrão" parameterValue="0.25"/>
              </component>
            </slot>
          </effectsRack>
          <component componentGuid="257a0325-cd93-4632-b00c-b109e5024e48" componentID="Audition.Fader" id="clipGain" name="volume" powered="true">
            <parameter index="0" name="volume" parameterValue="1"/>
            <parameter index="1" name="static gain" parameterValue="1"/>
          </component>
          <component componentGuid="847ac84f-59c7-4a27-8d8a-1f2149cfab03" componentID="Audition.Mute" id="clipMute" name="Mute" powered="true">
            <parameter index="0" parameterValue="0"/>
            <parameter index="1" name="mute" parameterValue="0"/>
          </component>
          <component componentGuid="3ea524fd-589c-4839-ac8a-d946ed93ac9f" componentID="Audition.StereoPanner" id="clipPan" name="StereoPanner" powered="true">
            <parameter index="0" name="Deslocar" parameterValue="0"/>
          </component>
          <fadeIn crossFadeLinkType="linkedAsymmetric" endPoint="0" shape="19" startPoint="0" type="log"/>
          <fadeOut crossFadeLinkType="linkedAsymmetric" endPoint="8202" shape="19" startPoint="8202" type="log"/>
          <editParameter parameterIndex="0" slotIndex="4294967280"/>
          <editParameter parameterIndex="0" slotIndex="4294967281"/>
          <channelMap>
            <channel index="0" sourceIndex="0"/>
          </channelMap>
        </audioClip>
        <audioClip clipAutoCrossfade="true" crossFadeHeadClipID="-1" crossFadeTailClipID="-1" endPoint="226435" fileID="0" hue="-1" id="18" lockedInTime="false" looped="false" name="sfx_coin_single2 48000 1" offline="false" select="false" sourceInPoint="0" sourceOutPoint="8202" startPoint="218233" zOrder="85">
          <effectsRack preFader="true">
            <component componentGuid="785e5b38-a918-4f66-8b15-f8d422db4c4a" componentID="Audition.ComponentGroup" id="rackMix" powered="true">
              <parameter index="0" parameterValue="0"/>
              <parameter index="1" parameterValue="0"/>
            </component>
            <component componentGuid="8af9da68-3b3b-4cb8-8ede-04d8c021ba9d" id="rackInput" powered="true">
              <parameter index="0" parameterValue="1"/>
              <parameter index="1" parameterValue="0"/>
            </component>
            <component componentGuid="523859f4-b81d-408f-8edb-cefb83c41726" id="rackOutput" powered="true">
              <parameter index="0" parameterValue="1"/>
              <parameter index="1" parameterValue="0"/>
            </component>
            <slot powered="true" slotIndex="0">
              <component componentGuid="fc0fbe1e-908e-4647-9b58-4041914ed02e" componentID="164b4e8a-7105-406b-b23b-1ef2cc4d8957" editorHeight="439" editorLeft="705" editorTop="301" editorWidth="511" name="Deslocador de tom">
                <busConfig><![CDATA[{"in":[{"layout":[0],"name":"Entrada de mono","type":0}],"out":[{"layout":[0],"name":"Saída de mono","type":0}]}]]></busConfig>
                <channelMap direction="input">
                  <channel index="0" sourceIndex="0"/>
                </channelMap>
                <channelMap direction="output">
                  <channel index="0" sourceIndex="0"/>
                </channelMap>
                <parameter index="0" name="Transpor proporção" parameterValue="0.22726428508758544921875"/>
                <parameter index="1" name="Precisão" parameterValue="0.16666667163372039794921875"/>
                <parameter index="2" name="Frequência" parameterValue="0.0303030312061309814453125"/>
                <parameter index="3" name="Sobreposição" parameterValue="0.20000000298023223876953125"/>
                <parameter index="4" name="Configuração de uso padrão" parameterValue="0.25"/>
              </component>
            </slot>
          </effectsRack>
          <component componentGuid="2d2c7626-1195-4dd7-b53b-5f495d971ff9" componentID="Audition.Fader" id="clipGain" name="volume" powered="true">
            <parameter index="0" name="volume" parameterValue="1"/>
            <parameter index="1" name="static gain" parameterValue="1"/>
          </component>
          <component componentGuid="95462b74-4bb4-4e3c-a1ee-1e3c2d94f34e" componentID="Audition.Mute" id="clipMute" name="Mute" powered="true">
            <parameter index="0" parameterValue="0"/>
            <parameter index="1" name="mute" parameterValue="0"/>
          </component>
          <component componentGuid="6dbf7f80-03e3-4678-bcfa-9f4dd1d3b3f1" componentID="Audition.StereoPanner" id="clipPan" name="StereoPanner" powered="true">
            <parameter index="0" name="Deslocar" parameterValue="0"/>
          </component>
          <fadeIn crossFadeLinkType="linkedAsymmetric" endPoint="0" shape="19" startPoint="0" type="log"/>
          <fadeOut crossFadeLinkType="linkedAsymmetric" endPoint="8202" shape="19" startPoint="8202" type="log"/>
          <editParameter parameterIndex="0" slotIndex="4294967280"/>
          <editParameter parameterIndex="0" slotIndex="4294967281"/>
          <channelMap>
            <channel index="0" sourceIndex="0"/>
          </channelMap>
        </audioClip>
        <audioClip clipAutoCrossfade="true" crossFadeHeadClipID="-1" crossFadeTailClipID="-1" endPoint="240810" fileID="0" hue="-1" id="19" lockedInTime="false" looped="false" name="sfx_coin_single2 48000 1" offline="false" select="false" sourceInPoint="0" sourceOutPoint="8202" startPoint="232608" zOrder="84">
          <effectsRack preFader="true">
            <component componentGuid="0688af3c-0fc8-4001-b291-9d4b46b9ac08" componentID="Audition.ComponentGroup" id="rackMix" powered="true">
              <parameter index="0" parameterValue="0"/>
              <parameter index="1" parameterValue="0"/>
            </component>
            <component componentGuid="e75b44f8-d16f-4ae1-93bd-64bed08f3d73" id="rackInput" powered="true">
              <parameter index="0" parameterValue="1"/>
              <parameter index="1" parameterValue="0"/>
            </component>
            <component componentGuid="4c763415-3070-4e27-95d5-36b795c761c0" id="rackOutput" powered="true">
              <parameter index="0" parameterValue="1"/>
              <parameter index="1" parameterValue="0"/>
            </component>
            <slot powered="true" slotIndex="0">
              <component componentGuid="fe5462f3-9704-4174-880a-3159e2e3dc4e" componentID="164b4e8a-7105-406b-b23b-1ef2cc4d8957" editorHeight="439" editorLeft="705" editorTop="301" editorWidth="511" name="Deslocador de tom">
                <busConfig><![CDATA[{"in":[{"layout":[0],"name":"Entrada de mono","type":0}],"out":[{"layout":[0],"name":"Saída de mono","type":0}]}]]></busConfig>
                <channelMap direction="input">
                  <channel index="0" sourceIndex="0"/>
                </channelMap>
                <channelMap direction="output">
                  <channel index="0" sourceIndex="0"/>
                </channelMap>
                <parameter index="0" name="Transpor proporção" parameterValue="0.22726428508758544921875"/>
                <parameter index="1" name="Precisão" parameterValue="0.16666667163372039794921875"/>
                <parameter index="2" name="Frequência" parameterValue="0.0303030312061309814453125"/>
                <parameter index="3" name="Sobreposição" parameterValue="0.20000000298023223876953125"/>
                <parameter index="4" name="Configuração de uso padrão" parameterValue="0.25"/>
              </component>
            </slot>
          </effectsRack>
          <component componentGuid="e7e64174-b6d0-48bb-970d-f0abd7cc1bf6" componentID="Audition.Fader" id="clipGain" name="volume" powered="true">
            <parameter index="0" name="volume" parameterValue="1"/>
            <parameter index="1" name="static gain" parameterValue="1"/>
          </component>
          <component componentGuid="444f2078-4e94-4a5b-8924-d7850aa65cd0" componentID="Audition.Mute" id="clipMute" name="Mute" powered="true">
            <parameter index="0" parameterValue="0"/>
            <parameter index="1" name="mute" parameterValue="0"/>
          </component>
          <component componentGuid="01d12c58-37c9-4360-aead-b925c3639178" componentID="Audition.StereoPanner" id="clipPan" name="StereoPanner" powered="true">
            <parameter index="0" name="Deslocar" parameterValue="0"/>
          </component>
          <fadeIn crossFadeLinkType="linkedAsymmetric" endPoint="0" shape="18" startPoint="0" type="log"/>
          <fadeOut crossFadeLinkType="linkedAsymmetric" endPoint="8202" shape="19" startPoint="8202" type="log"/>
          <editParameter parameterIndex="0" slotIndex="4294967280"/>
          <editParameter parameterIndex="0" slotIndex="4294967281"/>
          <channelMap>
            <channel index="0" sourceIndex="0"/>
          </channelMap>
        </audioClip>
        <audioClip clipAutoCrossfade="true" crossFadeHeadClipID="-1" crossFadeTailClipID="-1" endPoint="266162" fileID="0" hue="-1" id="20" lockedInTime="false" looped="false" name="sfx_coin_single2 48000 1" offline="false" select="false" sourceInPoint="0" sourceOutPoint="8202" startPoint="257960" zOrder="99">
          <effectsRack preFader="true">
            <component componentGuid="e5b923ea-c82c-4f3f-ba28-e02a16dbbfa9" componentID="Audition.ComponentGroup" id="rackMix" powered="true">
              <parameter index="0" parameterValue="0"/>
              <parameter index="1" parameterValue="0"/>
            </component>
            <component componentGuid="170caa09-1490-4e15-ab0c-3ede4b3a9a58" id="rackInput" powered="true">
              <parameter index="0" parameterValue="1"/>
              <parameter index="1" parameterValue="0"/>
            </component>
            <component componentGuid="c67dd9ca-93c5-4277-9fcc-a6fc32f0f1a5" id="rackOutput" powered="true">
              <parameter index="0" parameterValue="1"/>
              <parameter index="1" parameterValue="0"/>
            </component>
            <slot powered="true" slotIndex="0">
              <component componentGuid="0bd10eda-db8a-4e6c-ad33-afa010cb1af9" componentID="164b4e8a-7105-406b-b23b-1ef2cc4d8957" editorHeight="439" editorLeft="705" editorTop="301" editorWidth="511" name="Deslocador de tom">
                <busConfig><![CDATA[{"in":[{"layout":[0],"name":"Entrada de mono","type":0}],"out":[{"layout":[0],"name":"Saída de mono","type":0}]}]]></busConfig>
                <channelMap direction="input">
                  <channel index="0" sourceIndex="0"/>
                </channelMap>
                <channelMap direction="output">
                  <channel index="0" sourceIndex="0"/>
                </channelMap>
                <parameter index="0" name="Transpor proporção" parameterValue="0.22726428508758544921875"/>
                <parameter index="1" name="Precisão" parameterValue="0.16666667163372039794921875"/>
                <parameter index="2" name="Frequência" parameterValue="0.0303030312061309814453125"/>
                <parameter index="3" name="Sobreposição" parameterValue="0.20000000298023223876953125"/>
                <parameter index="4" name="Configuração de uso padrão" parameterValue="0.25"/>
              </component>
            </slot>
          </effectsRack>
          <component componentGuid="32f82527-a186-45c1-b2ac-f5a1b2c40657" componentID="Audition.Fader" id="clipGain" name="volume" powered="true">
            <parameter index="0" name="volume" parameterValue="1"/>
            <parameter index="1" name="static gain" parameterValue="1"/>
          </component>
          <component componentGuid="eb1a5a70-6b6a-4250-9ff4-4948e448feb8" componentID="Audition.Mute" id="clipMute" name="Mute" powered="true">
            <parameter index="0" parameterValue="0"/>
            <parameter index="1" name="mute" parameterValue="0"/>
          </component>
          <component componentGuid="62e815fb-4f1a-4e05-9839-06b8e67b3ecb" componentID="Audition.StereoPanner" id="clipPan" name="StereoPanner" powered="true">
            <parameter index="0" name="Deslocar" parameterValue="0"/>
          </component>
          <fadeIn crossFadeLinkType="linkedAsymmetric" endPoint="0" shape="18" startPoint="0" type="log"/>
          <fadeOut crossFadeLinkType="linkedAsymmetric" endPoint="8202" shape="19" startPoint="8202" type="log"/>
          <editParameter parameterIndex="0" slotIndex="4294967280"/>
          <editParameter parameterIndex="0" slotIndex="4294967281"/>
          <channelMap>
            <channel index="0" sourceIndex="0"/>
          </channelMap>
        </audioClip>
        <audioClip clipAutoCrossfade="true" crossFadeHeadClipID="-1" crossFadeTailClipID="-1" endPoint="275614" fileID="0" hue="-1" id="21" lockedInTime="false" looped="false" name="sfx_coin_single2 48000 1" offline="false" select="false" sourceInPoint="0" sourceOutPoint="8202" startPoint="267412" zOrder="97">
          <effectsRack preFader="true">
            <component componentGuid="fca4ceca-3c30-4632-8ed3-eeaad7fb3f41" componentID="Audition.ComponentGroup" id="rackMix" powered="true">
              <parameter index="0" parameterValue="0"/>
              <parameter index="1" parameterValue="0"/>
            </component>
            <component componentGuid="a737363a-d044-4ab9-bca9-7314acb5b7f0" id="rackInput" powered="true">
              <parameter index="0" parameterValue="1"/>
              <parameter index="1" parameterValue="0"/>
            </component>
            <component componentGuid="4096c5f0-d3d4-41a9-b453-db3234fda577" id="rackOutput" powered="true">
              <parameter index="0" parameterValue="1"/>
              <parameter index="1" parameterValue="0"/>
            </component>
            <slot powered="true" slotIndex="0">
              <component componentGuid="560369e5-5be7-44bf-b460-d50a5ce143f5" componentID="164b4e8a-7105-406b-b23b-1ef2cc4d8957" editorHeight="439" editorLeft="705" editorTop="301" editorWidth="511" name="Deslocador de tom">
                <busConfig><![CDATA[{"in":[{"layout":[0],"name":"Entrada de mono","type":0}],"out":[{"layout":[0],"name":"Saída de mono","type":0}]}]]></busConfig>
                <channelMap direction="input">
                  <channel index="0" sourceIndex="0"/>
                </channelMap>
                <channelMap direction="output">
                  <channel index="0" sourceIndex="0"/>
                </channelMap>
                <parameter index="0" name="Transpor proporção" parameterValue="0.22726428508758544921875"/>
                <parameter index="1" name="Precisão" parameterValue="0.16666667163372039794921875"/>
                <parameter index="2" name="Frequência" parameterValue="0.0303030312061309814453125"/>
                <parameter index="3" name="Sobreposição" parameterValue="0.20000000298023223876953125"/>
                <parameter index="4" name="Configuração de uso padrão" parameterValue="0.25"/>
              </component>
            </slot>
          </effectsRack>
          <component componentGuid="9c2f3444-4cc1-419f-aa68-6c223da76c00" componentID="Audition.Fader" id="clipGain" name="volume" powered="true">
            <parameter index="0" name="volume" parameterValue="1"/>
            <parameter index="1" name="static gain" parameterValue="1"/>
          </component>
          <component componentGuid="9d8eb578-7b5b-440e-b21a-3f12727f140e" componentID="Audition.Mute" id="clipMute" name="Mute" powered="true">
            <parameter index="0" parameterValue="0"/>
            <parameter index="1" name="mute" parameterValue="0"/>
          </component>
          <component componentGuid="b1ba325c-e12e-4f98-887c-2c25ae046320" componentID="Audition.StereoPanner" id="clipPan" name="StereoPanner" powered="true">
            <parameter index="0" name="Deslocar" parameterValue="0"/>
          </component>
          <fadeIn crossFadeLinkType="linkedAsymmetric" endPoint="0" shape="18" startPoint="0" type="log"/>
          <fadeOut crossFadeLinkType="linkedAsymmetric" endPoint="8202" shape="19" startPoint="8202" type="log"/>
          <editParameter parameterIndex="0" slotIndex="4294967280"/>
          <editParameter parameterIndex="0" slotIndex="4294967281"/>
          <channelMap>
            <channel index="0" sourceIndex="0"/>
          </channelMap>
        </audioClip>
        <audioClip clipAutoCrossfade="true" crossFadeHeadClipID="-1" crossFadeTailClipID="-1" endPoint="286602" fileID="0" hue="-1" id="22" lockedInTime="false" looped="false" name="sfx_coin_single2 48000 1" offline="false" select="false" sourceInPoint="0" sourceOutPoint="8202" startPoint="278400" zOrder="92">
          <effectsRack preFader="true">
            <component componentGuid="40cb141a-b914-46d7-a4f5-36cb4650a94a" componentID="Audition.ComponentGroup" id="rackMix" powered="true">
              <parameter index="0" parameterValue="0"/>
              <parameter index="1" parameterValue="0"/>
            </component>
            <component componentGuid="1b93f722-0756-4e2a-882d-d47c11fced92" id="rackInput" powered="true">
              <parameter index="0" parameterValue="1"/>
              <parameter index="1" parameterValue="0"/>
            </component>
            <component componentGuid="86e50bea-a1c2-48ab-ab0d-c292cd09b5e8" id="rackOutput" powered="true">
              <parameter index="0" parameterValue="1"/>
              <parameter index="1" parameterValue="0"/>
            </component>
            <slot powered="true" slotIndex="0">
              <component componentGuid="bd5532eb-6d41-4308-a131-4e382e213a1f" componentID="164b4e8a-7105-406b-b23b-1ef2cc4d8957" editorHeight="439" editorLeft="705" editorTop="301" editorWidth="511" name="Deslocador de tom">
                <busConfig><![CDATA[{"in":[{"layout":[0],"name":"Entrada de mono","type":0}],"out":[{"layout":[0],"name":"Saída de mono","type":0}]}]]></busConfig>
                <channelMap direction="input">
                  <channel index="0" sourceIndex="0"/>
                </channelMap>
                <channelMap direction="output">
                  <channel index="0" sourceIndex="0"/>
                </channelMap>
                <parameter index="0" name="Transpor proporção" parameterValue="0.3729754388332366943359375"/>
                <parameter index="1" name="Precisão" parameterValue="0.16666667163372039794921875"/>
                <parameter index="2" name="Frequência" parameterValue="0.0303030312061309814453125"/>
                <parameter index="3" name="Sobreposição" parameterValue="0.20000000298023223876953125"/>
                <parameter index="4" name="Configuração de uso padrão" parameterValue="0.25"/>
              </component>
            </slot>
          </effectsRack>
          <component componentGuid="3eb5bced-b90c-4b97-91fd-bc908e2f3651" componentID="Audition.Fader" id="clipGain" name="volume" powered="true">
            <parameter index="0" name="volume" parameterValue="1"/>
            <parameter index="1" name="static gain" parameterValue="1"/>
          </component>
          <component componentGuid="d0742ad7-5509-43d9-b422-b3a29c3fd3b9" componentID="Audition.Mute" id="clipMute" name="Mute" powered="true">
            <parameter index="0" parameterValue="0"/>
            <parameter index="1" name="mute" parameterValue="0"/>
          </component>
          <component componentGuid="e494bd4e-7269-4c96-ad8a-2e06465e3c6b" componentID="Audition.StereoPanner" id="clipPan" name="StereoPanner" powered="true">
            <parameter index="0" name="Deslocar" parameterValue="0"/>
          </component>
          <fadeIn crossFadeLinkType="linkedAsymmetric" endPoint="0" shape="18" startPoint="0" type="log"/>
          <fadeOut crossFadeLinkType="linkedAsymmetric" endPoint="8202" shape="19" startPoint="8202" type="log"/>
          <editParameter parameterIndex="0" slotIndex="4294967280"/>
          <editParameter parameterIndex="0" slotIndex="4294967281"/>
          <channelMap>
            <channel index="0" sourceIndex="0"/>
          </channelMap>
        </audioClip>
        <audioClip clipAutoCrossfade="true" crossFadeHeadClipID="-1" crossFadeTailClipID="-1" endPoint="296126" fileID="0" hue="-1" id="23" lockedInTime="false" looped="false" name="sfx_coin_single2 48000 1" offline="false" select="false" sourceInPoint="0" sourceOutPoint="8202" startPoint="287924" zOrder="100">
          <effectsRack preFader="true">
            <component componentGuid="e6b69a60-5012-4f0d-b042-19ed6683e19f" componentID="Audition.ComponentGroup" id="rackMix" powered="true">
              <parameter index="0" parameterValue="0"/>
              <parameter index="1" parameterValue="0"/>
            </component>
            <component componentGuid="e9145892-14dd-42cf-9d3a-ce6f1a3ef88c" id="rackInput" powered="true">
              <parameter index="0" parameterValue="1"/>
              <parameter index="1" parameterValue="0"/>
            </component>
            <component componentGuid="c7322889-0140-4b76-99a7-6a2b0cda0bdf" id="rackOutput" powered="true">
              <parameter index="0" parameterValue="1"/>
              <parameter index="1" parameterValue="0"/>
            </component>
            <slot powered="true" slotIndex="0">
              <component componentGuid="0199cce8-d122-4dc6-b20b-1d7c595d3624" componentID="164b4e8a-7105-406b-b23b-1ef2cc4d8957" editorHeight="439" editorLeft="705" editorTop="301" editorWidth="511" name="Deslocador de tom">
                <busConfig><![CDATA[{"in":[{"layout":[0],"name":"Entrada de mono","type":0}],"out":[{"layout":[0],"name":"Saída de mono","type":0}]}]]></busConfig>
                <channelMap direction="input">
                  <channel index="0" sourceIndex="0"/>
                </channelMap>
                <channelMap direction="output">
                  <channel index="0" sourceIndex="0"/>
                </channelMap>
                <parameter index="0" name="Transpor proporção" parameterValue="0.345676422119140625"/>
                <parameter index="1" name="Precisão" parameterValue="0.16666667163372039794921875"/>
                <parameter index="2" name="Frequência" parameterValue="0.0303030312061309814453125"/>
                <parameter index="3" name="Sobreposição" parameterValue="0.20000000298023223876953125"/>
                <parameter index="4" name="Configuração de uso padrão" parameterValue="0.25"/>
              </component>
            </slot>
          </effectsRack>
          <component componentGuid="034143af-c6d7-4c14-8b87-d18f9fa3e80d" componentID="Audition.Fader" id="clipGain" name="volume" powered="true">
            <parameter index="0" name="volume" parameterValue="1"/>
            <parameter index="1" name="static gain" parameterValue="1"/>
          </component>
          <component componentGuid="17b4365a-d639-4f02-ae12-da9e2665ad9b" componentID="Audition.Mute" id="clipMute" name="Mute" powered="true">
            <parameter index="0" parameterValue="0"/>
            <parameter index="1" name="mute" parameterValue="0"/>
          </component>
          <component componentGuid="9602f4a6-de00-4711-a33b-0d40084a5413" componentID="Audition.StereoPanner" id="clipPan" name="StereoPanner" powered="true">
            <parameter index="0" name="Deslocar" parameterValue="0"/>
          </component>
          <fadeIn crossFadeLinkType="linkedAsymmetric" endPoint="0" shape="18" startPoint="0" type="log"/>
          <fadeOut crossFadeLinkType="linkedAsymmetric" endPoint="8202" shape="19" startPoint="8202" type="log"/>
          <editParameter parameterIndex="0" slotIndex="4294967280"/>
          <editParameter parameterIndex="0" slotIndex="4294967281"/>
          <channelMap>
            <channel index="0" sourceIndex="0"/>
          </channelMap>
        </audioClip>
        <audioClip clipAutoCrossfade="true" crossFadeHeadClipID="-1" crossFadeTailClipID="-1" endPoint="306344" fileID="0" hue="-1" id="24" lockedInTime="false" looped="false" name="sfx_coin_single2 48000 1" offline="false" select="false" sourceInPoint="0" sourceOutPoint="8202" startPoint="298142" zOrder="101">
          <effectsRack preFader="true">
            <component componentGuid="429f04a2-c31c-45c0-bbdd-8ca4dab1daf9" componentID="Audition.ComponentGroup" id="rackMix" powered="true">
              <parameter index="0" parameterValue="0"/>
              <parameter index="1" parameterValue="0"/>
            </component>
            <component componentGuid="188975f3-c6c6-4a97-aa6f-6e0f83e08d11" id="rackInput" powered="true">
              <parameter index="0" parameterValue="1"/>
              <parameter index="1" parameterValue="0"/>
            </component>
            <component componentGuid="005fe5c1-5c0f-44f8-9168-14d078b67fb2" id="rackOutput" powered="true">
              <parameter index="0" parameterValue="1"/>
              <parameter index="1" parameterValue="0"/>
            </component>
            <slot powered="true" slotIndex="0">
              <component componentGuid="8a58193c-4649-4964-8ec6-2c160b1d4c90" componentID="164b4e8a-7105-406b-b23b-1ef2cc4d8957" editorHeight="439" editorLeft="705" editorTop="301" editorWidth="511" name="Deslocador de tom">
                <busConfig><![CDATA[{"in":[{"layout":[0],"name":"Entrada de mono","type":0}],"out":[{"layout":[0],"name":"Saída de mono","type":0}]}]]></busConfig>
                <channelMap direction="input">
                  <channel index="0" sourceIndex="0"/>
                </channelMap>
                <channelMap direction="output">
                  <channel index="0" sourceIndex="0"/>
                </channelMap>
                <parameter index="0" name="Transpor proporção" parameterValue="0.3016449511051177978515625"/>
                <parameter index="1" name="Precisão" parameterValue="0.16666667163372039794921875"/>
                <parameter index="2" name="Frequência" parameterValue="0.0303030312061309814453125"/>
                <parameter index="3" name="Sobreposição" parameterValue="0.20000000298023223876953125"/>
                <parameter index="4" name="Configuração de uso padrão" parameterValue="0.25"/>
              </component>
            </slot>
          </effectsRack>
          <component componentGuid="5c69b77c-9a93-4bd2-b836-2a68bb06059d" componentID="Audition.Fader" id="clipGain" name="volume" powered="true">
            <parameter index="0" name="volume" parameterValue="1"/>
            <parameter index="1" name="static gain" parameterValue="1"/>
          </component>
          <component componentGuid="3b3a5d3a-bfcc-42a5-a7f5-1f7e8447eb47" componentID="Audition.Mute" id="clipMute" name="Mute" powered="true">
            <parameter index="0" parameterValue="0"/>
            <parameter index="1" name="mute" parameterValue="0"/>
          </component>
          <component componentGuid="dccc5cb4-6969-46a3-8867-210ce9f2ab32" componentID="Audition.StereoPanner" id="clipPan" name="StereoPanner" powered="true">
            <parameter index="0" name="Deslocar" parameterValue="0"/>
          </component>
          <fadeIn crossFadeLinkType="linkedAsymmetric" endPoint="0" shape="19" startPoint="0" type="log"/>
          <fadeOut crossFadeLinkType="linkedAsymmetric" endPoint="8202" shape="18" startPoint="8202" type="log"/>
          <editParameter parameterIndex="0" slotIndex="4294967280"/>
          <editParameter parameterIndex="0" slotIndex="4294967281"/>
          <channelMap>
            <channel index="0" sourceIndex="0"/>
          </channelMap>
        </audioClip>
        <audioClip clipAutoCrossfade="true" crossFadeHeadClipID="-1" crossFadeTailClipID="-1" endPoint="314546" fileID="0" hue="-1" id="25" lockedInTime="false" looped="false" name="sfx_coin_single2 48000 1" offline="false" select="false" sourceInPoint="0" sourceOutPoint="8202" startPoint="306344" zOrder="102">
          <effectsRack preFader="true">
            <component componentGuid="41b356b7-4d45-4b16-b857-e39b1f3804b9" componentID="Audition.ComponentGroup" id="rackMix" powered="true">
              <parameter index="0" parameterValue="0"/>
              <parameter index="1" parameterValue="0"/>
            </component>
            <component componentGuid="360a06e1-5a58-4982-877a-34c1a75a5a5a" id="rackInput" powered="true">
              <parameter index="0" parameterValue="1"/>
              <parameter index="1" parameterValue="0"/>
            </component>
            <component componentGuid="f1090913-d150-482a-8f83-6210d71234d2" id="rackOutput" powered="true">
              <parameter index="0" parameterValue="1"/>
              <parameter index="1" parameterValue="0"/>
            </component>
            <slot powered="true" slotIndex="0">
              <component componentGuid="632720d5-7ed6-4a54-89b0-c2fc5eab8a0e" componentID="164b4e8a-7105-406b-b23b-1ef2cc4d8957" editorHeight="439" editorLeft="705" editorTop="301" editorWidth="511" name="Deslocador de tom">
                <busConfig><![CDATA[{"in":[{"layout":[0],"name":"Entrada de mono","type":0}],"out":[{"layout":[0],"name":"Saída de mono","type":0}]}]]></busConfig>
                <channelMap direction="input">
                  <channel index="0" sourceIndex="0"/>
                </channelMap>
                <channelMap direction="output">
                  <channel index="0" sourceIndex="0"/>
                </channelMap>
                <parameter index="0" name="Transpor proporção" parameterValue="0.24127964675426483154296875"/>
                <parameter index="1" name="Precisão" parameterValue="0.16666667163372039794921875"/>
                <parameter index="2" name="Frequência" parameterValue="0.0303030312061309814453125"/>
                <parameter index="3" name="Sobreposição" parameterValue="0.20000000298023223876953125"/>
                <parameter index="4" name="Configuração de uso padrão" parameterValue="0.25"/>
              </component>
            </slot>
          </effectsRack>
          <component componentGuid="e9c0c8b9-f22f-408f-b54b-dd51af00ca5b" componentID="Audition.Fader" id="clipGain" name="volume" powered="true">
            <parameter index="0" name="volume" parameterValue="1"/>
            <parameter index="1" name="static gain" parameterValue="1"/>
          </component>
          <component componentGuid="01f0dadf-6753-4e28-bade-ead5d38b418d" componentID="Audition.Mute" id="clipMute" name="Mute" powered="true">
            <parameter index="0" parameterValue="0"/>
            <parameter index="1" name="mute" parameterValue="0"/>
          </component>
          <component componentGuid="a2a60531-ed47-478d-b88a-e85a32776abc" componentID="Audition.StereoPanner" id="clipPan" name="StereoPanner" powered="true">
            <parameter index="0" name="Deslocar" parameterValue="0"/>
          </component>
          <fadeIn crossFadeLinkType="linkedAsymmetric" endPoint="0" shape="19" startPoint="0" type="log"/>
          <fadeOut crossFadeLinkType="linkedAsymmetric" endPoint="8202" shape="19" startPoint="8202" type="log"/>
          <editParameter parameterIndex="0" slotIndex="4294967280"/>
          <editParameter parameterIndex="0" slotIndex="4294967281"/>
          <channelMap>
            <channel index="0" sourceIndex="0"/>
          </channelMap>
        </audioClip>
        <audioClip clipAutoCrossfade="true" crossFadeHeadClipID="-1" crossFadeTailClipID="-1" endPoint="323811" fileID="0" hue="-1" id="26" lockedInTime="false" looped="false" name="sfx_coin_single2 48000 1" offline="false" select="false" sourceInPoint="0" sourceOutPoint="8202" startPoint="315609" zOrder="103">
          <effectsRack preFader="true">
            <component componentGuid="8bd03c35-b1d4-47e5-ac6b-faa737bd634f" componentID="Audition.ComponentGroup" id="rackMix" powered="true">
              <parameter index="0" parameterValue="0"/>
              <parameter index="1" parameterValue="0"/>
            </component>
            <component componentGuid="9a211eaa-ad14-4fda-b98c-3f14bb37d8e6" id="rackInput" powered="true">
              <parameter index="0" parameterValue="1"/>
              <parameter index="1" parameterValue="0"/>
            </component>
            <component componentGuid="67dd0107-f06e-408a-adb7-6f35107a1441" id="rackOutput" powered="true">
              <parameter index="0" parameterValue="1"/>
              <parameter index="1" parameterValue="0"/>
            </component>
            <slot powered="true" slotIndex="0">
              <component componentGuid="4ab46aee-5df7-4287-ad55-0bec24844a86" componentID="164b4e8a-7105-406b-b23b-1ef2cc4d8957" name="Deslocador de tom">
                <busConfig><![CDATA[{"in":[{"layout":[0],"name":"Entrada de mono","type":0}],"out":[{"layout":[0],"name":"Saída de mono","type":0}]}]]></busConfig>
                <channelMap direction="input">
                  <channel index="0" sourceIndex="0"/>
                </channelMap>
                <channelMap direction="output">
                  <channel index="0" sourceIndex="0"/>
                </channelMap>
                <parameter index="0" name="Transpor proporção" parameterValue="0.2605991363525390625"/>
                <parameter index="1" name="Precisão" parameterValue="0.16666667163372039794921875"/>
                <parameter index="2" name="Frequência" parameterValue="0.0303030312061309814453125"/>
                <parameter index="3" name="Sobreposição" parameterValue="0.20000000298023223876953125"/>
                <parameter index="4" name="Configuração de uso padrão" parameterValue="0.25"/>
              </component>
            </slot>
          </effectsRack>
          <component componentGuid="2c53da44-471a-465a-8dd8-59d0d762e29b" componentID="Audition.Fader" id="clipGain" name="volume" powered="true">
            <parameter index="0" name="volume" parameterValue="1"/>
            <parameter index="1" name="static gain" parameterValue="1"/>
          </component>
          <component componentGuid="b27d623b-756a-4035-bd51-e22cb62d0122" componentID="Audition.Mute" id="clipMute" name="Mute" powered="true">
            <parameter index="0" parameterValue="0"/>
            <parameter index="1" name="mute" parameterValue="0"/>
          </component>
          <component componentGuid="18df02ee-f4c9-4d9e-a0d0-a1424f142b90" componentID="Audition.StereoPanner" id="clipPan" name="StereoPanner" powered="true">
            <parameter index="0" name="Deslocar" parameterValue="0"/>
          </component>
          <fadeIn crossFadeLinkType="linkedAsymmetric" endPoint="0" shape="19" startPoint="0" type="log"/>
          <fadeOut crossFadeLinkType="linkedAsymmetric" endPoint="8202" shape="19" startPoint="8202" type="log"/>
          <editParameter parameterIndex="0" slotIndex="4294967280"/>
          <editParameter parameterIndex="0" slotIndex="4294967281"/>
          <channelMap>
            <channel index="0" sourceIndex="0"/>
          </channelMap>
        </audioClip>
        <audioClip clipAutoCrossfade="true" crossFadeHeadClipID="-1" crossFadeTailClipID="-1" endPoint="343818" fileID="0" hue="-1" id="27" lockedInTime="false" looped="false" name="sfx_coin_single2 48000 1" offline="false" select="false" sourceInPoint="0" sourceOutPoint="8202" startPoint="335616" zOrder="127">
          <effectsRack preFader="true">
            <component componentGuid="77f5454d-b3f4-47b5-9546-97d59794219d" componentID="Audition.ComponentGroup" id="rackMix" powered="true">
              <parameter index="0" parameterValue="0"/>
              <parameter index="1" parameterValue="0"/>
            </component>
            <component componentGuid="59f58611-42ed-4d77-8d3d-dc6f69b4fdc6" id="rackInput" powered="true">
              <parameter index="0" parameterValue="1"/>
              <parameter index="1" parameterValue="0"/>
            </component>
            <component componentGuid="30b0880a-8bae-49f5-84ed-8e320fbe0409" id="rackOutput" powered="true">
              <parameter index="0" parameterValue="1"/>
              <parameter index="1" parameterValue="0"/>
            </component>
            <slot powered="true" slotIndex="0">
              <component componentGuid="fae0804d-1027-44b0-9036-6761b9bb7e9b" componentID="164b4e8a-7105-406b-b23b-1ef2cc4d8957" editorHeight="439" editorLeft="705" editorTop="301" editorWidth="511" name="Deslocador de tom">
                <busConfig><![CDATA[{"in":[{"layout":[0],"name":"Entrada de mono","type":0}],"out":[{"layout":[0],"name":"Saída de mono","type":0}]}]]></busConfig>
                <channelMap direction="input">
                  <channel index="0" sourceIndex="0"/>
                </channelMap>
                <channelMap direction="output">
                  <channel index="0" sourceIndex="0"/>
                </channelMap>
                <parameter index="0" name="Transpor proporção" parameterValue="0.29591619968414306640625"/>
                <parameter index="1" name="Precisão" parameterValue="0.16666667163372039794921875"/>
                <parameter index="2" name="Frequência" parameterValue="0.0303030312061309814453125"/>
                <parameter index="3" name="Sobreposição" parameterValue="0.20000000298023223876953125"/>
                <parameter index="4" name="Configuração de uso padrão" parameterValue="0.25"/>
              </component>
            </slot>
          </effectsRack>
          <component componentGuid="82f2dd3e-f102-4532-8d45-72cc92ead18a" componentID="Audition.Fader" id="clipGain" name="volume" powered="true">
            <parameter index="0" name="volume" parameterValue="1"/>
            <parameter index="1" name="static gain" parameterValue="1"/>
          </component>
          <component componentGuid="55f9df6c-91a4-4f2e-a039-a725bdd31058" componentID="Audition.Mute" id="clipMute" name="Mute" powered="true">
            <parameter index="0" parameterValue="0"/>
            <parameter index="1" name="mute" parameterValue="0"/>
          </component>
          <component componentGuid="2f0070a7-7437-4db7-890f-6e3f1aa4d683" componentID="Audition.StereoPanner" id="clipPan" name="StereoPanner" powered="true">
            <parameter index="0" name="Deslocar" parameterValue="0"/>
          </component>
          <fadeIn crossFadeLinkType="linkedAsymmetric" endPoint="0" shape="18" startPoint="0" type="log"/>
          <fadeOut crossFadeLinkType="linkedAsymmetric" endPoint="8202" shape="19" startPoint="8202" type="log"/>
          <editParameter parameterIndex="0" slotIndex="4294967280"/>
          <editParameter parameterIndex="0" slotIndex="4294967281"/>
          <channelMap>
            <channel index="0" sourceIndex="0"/>
          </channelMap>
        </audioClip>
        <audioClip clipAutoCrossfade="true" crossFadeHeadClipID="-1" crossFadeTailClipID="-1" endPoint="353270" fileID="0" hue="-1" id="28" lockedInTime="false" looped="false" name="sfx_coin_single2 48000 1" offline="false" select="false" sourceInPoint="0" sourceOutPoint="8202" startPoint="345068" zOrder="126">
          <effectsRack preFader="true">
            <component componentGuid="8126ba7a-1e31-45ca-9cea-cd03d144ded8" componentID="Audition.ComponentGroup" id="rackMix" powered="true">
              <parameter index="0" parameterValue="0"/>
              <parameter index="1" parameterValue="0"/>
            </component>
            <component componentGuid="a84ce9de-8eed-4f8e-892b-5a09cde6b94f" id="rackInput" powered="true">
              <parameter index="0" parameterValue="1"/>
              <parameter index="1" parameterValue="0"/>
            </component>
            <component componentGuid="a4173931-3c96-4422-915b-b2c6139633b7" id="rackOutput" powered="true">
              <parameter index="0" parameterValue="1"/>
              <parameter index="1" parameterValue="0"/>
            </component>
            <slot powered="true" slotIndex="0">
              <component componentGuid="84bab37f-43fa-4429-89d0-d889423e361c" componentID="164b4e8a-7105-406b-b23b-1ef2cc4d8957" editorHeight="439" editorLeft="705" editorTop="301" editorWidth="511" name="Deslocador de tom">
                <busConfig><![CDATA[{"in":[{"layout":[0],"name":"Entrada de mono","type":0}],"out":[{"layout":[0],"name":"Saída de mono","type":0}]}]]></busConfig>
                <channelMap direction="input">
                  <channel index="0" sourceIndex="0"/>
                </channelMap>
                <channelMap direction="output">
                  <channel index="0" sourceIndex="0"/>
                </channelMap>
                <parameter index="0" name="Transpor proporção" parameterValue="0.3129606544971466064453125"/>
                <parameter index="1" name="Precisão" parameterValue="0.16666667163372039794921875"/>
                <parameter index="2" name="Frequência" parameterValue="0.0303030312061309814453125"/>
                <parameter index="3" name="Sobreposição" parameterValue="0.20000000298023223876953125"/>
                <parameter index="4" name="Configuração de uso padrão" parameterValue="0.25"/>
              </component>
            </slot>
          </effectsRack>
          <component componentGuid="45d428b9-64bc-440d-9eac-e77b2df5d9a6" componentID="Audition.Fader" id="clipGain" name="volume" powered="true">
            <parameter index="0" name="volume" parameterValue="1"/>
            <parameter index="1" name="static gain" parameterValue="1"/>
          </component>
          <component componentGuid="68272d6d-e452-4589-99bc-7dc93daeed21" componentID="Audition.Mute" id="clipMute" name="Mute" powered="true">
            <parameter index="0" parameterValue="0"/>
            <parameter index="1" name="mute" parameterValue="0"/>
          </component>
          <component componentGuid="b2446f26-b7eb-40c6-8df2-4a9dc2a26379" componentID="Audition.StereoPanner" id="clipPan" name="StereoPanner" powered="true">
            <parameter index="0" name="Deslocar" parameterValue="0"/>
          </component>
          <fadeIn crossFadeLinkType="linkedAsymmetric" endPoint="0" shape="18" startPoint="0" type="log"/>
          <fadeOut crossFadeLinkType="linkedAsymmetric" endPoint="8202" shape="19" startPoint="8202" type="log"/>
          <editParameter parameterIndex="0" slotIndex="4294967280"/>
          <editParameter parameterIndex="0" slotIndex="4294967281"/>
          <channelMap>
            <channel index="0" sourceIndex="0"/>
          </channelMap>
        </audioClip>
        <audioClip clipAutoCrossfade="true" crossFadeHeadClipID="-1" crossFadeTailClipID="-1" endPoint="364258" fileID="0" hue="-1" id="29" lockedInTime="false" looped="false" name="sfx_coin_single2 48000 1" offline="false" select="false" sourceInPoint="0" sourceOutPoint="8202" startPoint="356056" zOrder="125">
          <effectsRack preFader="true">
            <component componentGuid="4819402a-c2ce-4940-a087-794951a3eca0" componentID="Audition.ComponentGroup" id="rackMix" powered="true">
              <parameter index="0" parameterValue="0"/>
              <parameter index="1" parameterValue="0"/>
            </component>
            <component componentGuid="ff909921-35b3-4a44-b111-a71e4474bbe6" id="rackInput" powered="true">
              <parameter index="0" parameterValue="1"/>
              <parameter index="1" parameterValue="0"/>
            </component>
            <component componentGuid="22ab9afa-230d-45e0-b992-d92d2d7b38b8" id="rackOutput" powered="true">
              <parameter index="0" parameterValue="1"/>
              <parameter index="1" parameterValue="0"/>
            </component>
            <slot powered="true" slotIndex="0">
              <component componentGuid="2014548f-da1a-4a37-a06d-3801d66dc8df" componentID="164b4e8a-7105-406b-b23b-1ef2cc4d8957" name="Deslocador de tom">
                <busConfig><![CDATA[{"in":[{"layout":[0],"name":"Entrada de mono","type":0}],"out":[{"layout":[0],"name":"Saída de mono","type":0}]}]]></busConfig>
                <channelMap direction="input">
                  <channel index="0" sourceIndex="0"/>
                </channelMap>
                <channelMap direction="output">
                  <channel index="0" sourceIndex="0"/>
                </channelMap>
                <parameter index="0" name="Transpor proporção" parameterValue="0.3729754388332366943359375"/>
                <parameter index="1" name="Precisão" parameterValue="0.16666667163372039794921875"/>
                <parameter index="2" name="Frequência" parameterValue="0.0303030312061309814453125"/>
                <parameter index="3" name="Sobreposição" parameterValue="0.20000000298023223876953125"/>
                <parameter index="4" name="Configuração de uso padrão" parameterValue="0.25"/>
              </component>
            </slot>
          </effectsRack>
          <component componentGuid="61f52ee1-48e4-4601-9511-a32b22d2a82d" componentID="Audition.Fader" id="clipGain" name="volume" powered="true">
            <parameter index="0" name="volume" parameterValue="1"/>
            <parameter index="1" name="static gain" parameterValue="1"/>
          </component>
          <component componentGuid="38ea6d91-dea3-4d47-aa4a-da10f98ba84b" componentID="Audition.Mute" id="clipMute" name="Mute" powered="true">
            <parameter index="0" parameterValue="0"/>
            <parameter index="1" name="mute" parameterValue="0"/>
          </component>
          <component componentGuid="538f6a22-27a6-4be2-a175-78dc5161917a" componentID="Audition.StereoPanner" id="clipPan" name="StereoPanner" powered="true">
            <parameter index="0" name="Deslocar" parameterValue="0"/>
          </component>
          <fadeIn crossFadeLinkType="linkedAsymmetric" endPoint="0" shape="18" startPoint="0" type="log"/>
          <fadeOut crossFadeLinkType="linkedAsymmetric" endPoint="8202" shape="19" startPoint="8202" type="log"/>
          <editParameter parameterIndex="0" slotIndex="4294967280"/>
          <editParameter parameterIndex="0" slotIndex="4294967281"/>
          <channelMap>
            <channel index="0" sourceIndex="0"/>
          </channelMap>
        </audioClip>
        <audioClip clipAutoCrossfade="true" crossFadeHeadClipID="-1" crossFadeTailClipID="-1" endPoint="373782" fileID="0" hue="-1" id="30" lockedInTime="false" looped="false" name="sfx_coin_single2 48000 1" offline="false" select="false" sourceInPoint="0" sourceOutPoint="8202" startPoint="365580" zOrder="128">
          <effectsRack preFader="true">
            <component componentGuid="dcfe836e-5b46-4703-983f-63bb0aa30017" componentID="Audition.ComponentGroup" id="rackMix" powered="true">
              <parameter index="0" parameterValue="0"/>
              <parameter index="1" parameterValue="0"/>
            </component>
            <component componentGuid="01614298-bf06-4479-ab74-ce211bc6f64b" id="rackInput" powered="true">
              <parameter index="0" parameterValue="1"/>
              <parameter index="1" parameterValue="0"/>
            </component>
            <component componentGuid="f5ad6266-b34e-47f2-b57d-e3a419d02268" id="rackOutput" powered="true">
              <parameter index="0" parameterValue="1"/>
              <parameter index="1" parameterValue="0"/>
            </component>
            <slot powered="true" slotIndex="0">
              <component componentGuid="e6fad0fc-0db7-40bb-b36b-fb3108e3b466" componentID="164b4e8a-7105-406b-b23b-1ef2cc4d8957" name="Deslocador de tom">
                <busConfig><![CDATA[{"in":[{"layout":[0],"name":"Entrada de mono","type":0}],"out":[{"layout":[0],"name":"Saída de mono","type":0}]}]]></busConfig>
                <channelMap direction="input">
                  <channel index="0" sourceIndex="0"/>
                </channelMap>
                <channelMap direction="output">
                  <channel index="0" sourceIndex="0"/>
                </channelMap>
                <parameter index="0" name="Transpor proporção" parameterValue="0.345676422119140625"/>
                <parameter index="1" name="Precisão" parameterValue="0.16666667163372039794921875"/>
                <parameter index="2" name="Frequência" parameterValue="0.0303030312061309814453125"/>
                <parameter index="3" name="Sobreposição" parameterValue="0.20000000298023223876953125"/>
                <parameter index="4" name="Configuração de uso padrão" parameterValue="0.25"/>
              </component>
            </slot>
          </effectsRack>
          <component componentGuid="69038037-a6c5-4d76-be27-9c253d237009" componentID="Audition.Fader" id="clipGain" name="volume" powered="true">
            <parameter index="0" name="volume" parameterValue="1"/>
            <parameter index="1" name="static gain" parameterValue="1"/>
          </component>
          <component componentGuid="80ba2733-9b6b-4ee0-b38e-6031e78754eb" componentID="Audition.Mute" id="clipMute" name="Mute" powered="true">
            <parameter index="0" parameterValue="0"/>
            <parameter index="1" name="mute" parameterValue="0"/>
          </component>
          <component componentGuid="c61e00fe-8644-466d-9a78-b1b452f86f88" componentID="Audition.StereoPanner" id="clipPan" name="StereoPanner" powered="true">
            <parameter index="0" name="Deslocar" parameterValue="0"/>
          </component>
          <fadeIn crossFadeLinkType="linkedAsymmetric" endPoint="0" shape="18" startPoint="0" type="log"/>
          <fadeOut crossFadeLinkType="linkedAsymmetric" endPoint="8202" shape="19" startPoint="8202" type="log"/>
          <editParameter parameterIndex="0" slotIndex="4294967280"/>
          <editParameter parameterIndex="0" slotIndex="4294967281"/>
          <channelMap>
            <channel index="0" sourceIndex="0"/>
          </channelMap>
        </audioClip>
        <audioClip clipAutoCrossfade="true" crossFadeHeadClipID="-1" crossFadeTailClipID="-1" endPoint="384000" fileID="0" hue="-1" id="31" lockedInTime="false" looped="false" name="sfx_coin_single2 48000 1" offline="false" select="false" sourceInPoint="0" sourceOutPoint="8202" startPoint="375798" zOrder="129">
          <effectsRack preFader="true">
            <component componentGuid="451bb4b8-20a4-4b6c-aa0d-8129b94a85a8" componentID="Audition.ComponentGroup" id="rackMix" powered="true">
              <parameter index="0" parameterValue="0"/>
              <parameter index="1" parameterValue="0"/>
            </component>
            <component componentGuid="fe693dcb-9777-443b-ba55-4b85af64daf7" id="rackInput" powered="true">
              <parameter index="0" parameterValue="1"/>
              <parameter index="1" parameterValue="0"/>
            </component>
            <component componentGuid="a68f9fc9-04e3-4b3f-8a94-88f0b2ef2af4" id="rackOutput" powered="true">
              <parameter index="0" parameterValue="1"/>
              <parameter index="1" parameterValue="0"/>
            </component>
            <slot powered="true" slotIndex="0">
              <component componentGuid="be70ca2c-732c-4e52-a250-9a26acdd4d9c" componentID="164b4e8a-7105-406b-b23b-1ef2cc4d8957" name="Deslocador de tom">
                <busConfig><![CDATA[{"in":[{"layout":[0],"name":"Entrada de mono","type":0}],"out":[{"layout":[0],"name":"Saída de mono","type":0}]}]]></busConfig>
                <channelMap direction="input">
                  <channel index="0" sourceIndex="0"/>
                </channelMap>
                <channelMap direction="output">
                  <channel index="0" sourceIndex="0"/>
                </channelMap>
                <parameter index="0" name="Transpor proporção" parameterValue="0.3016449511051177978515625"/>
                <parameter index="1" name="Precisão" parameterValue="0.16666667163372039794921875"/>
                <parameter index="2" name="Frequência" parameterValue="0.0303030312061309814453125"/>
                <parameter index="3" name="Sobreposição" parameterValue="0.20000000298023223876953125"/>
                <parameter index="4" name="Configuração de uso padrão" parameterValue="0.25"/>
              </component>
            </slot>
          </effectsRack>
          <component componentGuid="85f38d4b-8690-48af-ad89-ca29991de863" componentID="Audition.Fader" id="clipGain" name="volume" powered="true">
            <parameter index="0" name="volume" parameterValue="1"/>
            <parameter index="1" name="static gain" parameterValue="1"/>
          </component>
          <component componentGuid="e541ca18-7c93-4277-9b8e-ec8add2ecc2d" componentID="Audition.Mute" id="clipMute" name="Mute" powered="true">
            <parameter index="0" parameterValue="0"/>
            <parameter index="1" name="mute" parameterValue="0"/>
          </component>
          <component componentGuid="3ade72c9-67b6-4c7e-9457-4755685cc51c" componentID="Audition.StereoPanner" id="clipPan" name="StereoPanner" powered="true">
            <parameter index="0" name="Deslocar" parameterValue="0"/>
          </component>
          <fadeIn crossFadeLinkType="linkedAsymmetric" endPoint="0" shape="19" startPoint="0" type="log"/>
          <fadeOut crossFadeLinkType="linkedAsymmetric" endPoint="8202" shape="18" startPoint="8202" type="log"/>
          <editParameter parameterIndex="0" slotIndex="4294967280"/>
          <editParameter parameterIndex="0" slotIndex="4294967281"/>
          <channelMap>
            <channel index="0" sourceIndex="0"/>
          </channelMap>
        </audioClip>
        <audioClip clipAutoCrossfade="true" crossFadeHeadClipID="-1" crossFadeTailClipID="-1" endPoint="392202" fileID="0" hue="-1" id="32" lockedInTime="false" looped="false" name="sfx_coin_single2 48000 1" offline="false" select="false" sourceInPoint="0" sourceOutPoint="8202" startPoint="384000" zOrder="130">
          <effectsRack preFader="true">
            <component componentGuid="fe7d089c-652e-4d12-bdd8-59a96ba81ace" componentID="Audition.ComponentGroup" id="rackMix" powered="true">
              <parameter index="0" parameterValue="0"/>
              <parameter index="1" parameterValue="0"/>
            </component>
            <component componentGuid="b0671715-9b6c-481f-a3c6-80e70bb631f9" id="rackInput" powered="true">
              <parameter index="0" parameterValue="1"/>
              <parameter index="1" parameterValue="0"/>
            </component>
            <component componentGuid="84f28db8-cbf7-4751-8534-6313e78e04fc" id="rackOutput" powered="true">
              <parameter index="0" parameterValue="1"/>
              <parameter index="1" parameterValue="0"/>
            </component>
            <slot powered="true" slotIndex="0">
              <component componentGuid="2894fc2e-654c-4f99-bcd4-5738e010604a" componentID="164b4e8a-7105-406b-b23b-1ef2cc4d8957" editorHeight="439" editorLeft="705" editorTop="301" editorWidth="511" name="Deslocador de tom">
                <busConfig><![CDATA[{"in":[{"layout":[0],"name":"Entrada de mono","type":0}],"out":[{"layout":[0],"name":"Saída de mono","type":0}]}]]></busConfig>
                <channelMap direction="input">
                  <channel index="0" sourceIndex="0"/>
                </channelMap>
                <channelMap direction="output">
                  <channel index="0" sourceIndex="0"/>
                </channelMap>
                <parameter index="0" name="Transpor proporção" parameterValue="0.24127964675426483154296875"/>
                <parameter index="1" name="Precisão" parameterValue="0.16666667163372039794921875"/>
                <parameter index="2" name="Frequência" parameterValue="0.0303030312061309814453125"/>
                <parameter index="3" name="Sobreposição" parameterValue="0.20000000298023223876953125"/>
                <parameter index="4" name="Configuração de uso padrão" parameterValue="0.25"/>
              </component>
            </slot>
          </effectsRack>
          <component componentGuid="9e83a907-0bc7-47af-bded-f309d39cb8ab" componentID="Audition.Fader" id="clipGain" name="volume" powered="true">
            <parameter index="0" name="volume" parameterValue="1"/>
            <parameter index="1" name="static gain" parameterValue="1"/>
          </component>
          <component componentGuid="0424263f-d8f3-4dc0-8ee3-64a06c7497ee" componentID="Audition.Mute" id="clipMute" name="Mute" powered="true">
            <parameter index="0" parameterValue="0"/>
            <parameter index="1" name="mute" parameterValue="0"/>
          </component>
          <component componentGuid="068c3058-78a3-407e-9139-e6f6f76e4b57" componentID="Audition.StereoPanner" id="clipPan" name="StereoPanner" powered="true">
            <parameter index="0" name="Deslocar" parameterValue="0"/>
          </component>
          <fadeIn crossFadeLinkType="linkedAsymmetric" endPoint="0" shape="19" startPoint="0" type="log"/>
          <fadeOut crossFadeLinkType="linkedAsymmetric" endPoint="8202" shape="19" startPoint="8202" type="log"/>
          <editParameter parameterIndex="0" slotIndex="4294967280"/>
          <editParameter parameterIndex="0" slotIndex="4294967281"/>
          <channelMap>
            <channel index="0" sourceIndex="0"/>
          </channelMap>
        </audioClip>
        <audioClip clipAutoCrossfade="true" crossFadeHeadClipID="-1" crossFadeTailClipID="-1" endPoint="401467" fileID="0" hue="-1" id="33" lockedInTime="false" looped="false" name="sfx_coin_single2 48000 1" offline="false" select="false" sourceInPoint="0" sourceOutPoint="8202" startPoint="393265" zOrder="131">
          <effectsRack preFader="true">
            <component componentGuid="5e783be7-acc8-4ae4-bcfd-8e29becedb14" componentID="Audition.ComponentGroup" id="rackMix" powered="true">
              <parameter index="0" parameterValue="0"/>
              <parameter index="1" parameterValue="0"/>
            </component>
            <component componentGuid="977d3839-e757-4f3f-abad-f3193dc6dc6e" id="rackInput" powered="true">
              <parameter index="0" parameterValue="1"/>
              <parameter index="1" parameterValue="0"/>
            </component>
            <component componentGuid="74762ed6-dc4d-4264-87dc-e5c767579729" id="rackOutput" powered="true">
              <parameter index="0" parameterValue="1"/>
              <parameter index="1" parameterValue="0"/>
            </component>
            <slot powered="true" slotIndex="0">
              <component componentGuid="aadeadc7-7cfe-4f58-b246-28adcc393865" componentID="164b4e8a-7105-406b-b23b-1ef2cc4d8957" editorHeight="439" editorLeft="705" editorTop="301" editorWidth="511" name="Deslocador de tom">
                <busConfig><![CDATA[{"in":[{"layout":[0],"name":"Entrada de mono","type":0}],"out":[{"layout":[0],"name":"Saída de mono","type":0}]}]]></busConfig>
                <channelMap direction="input">
                  <channel index="0" sourceIndex="0"/>
                </channelMap>
                <channelMap direction="output">
                  <channel index="0" sourceIndex="0"/>
                </channelMap>
                <parameter index="0" name="Transpor proporção" parameterValue="0.19580034911632537841796875"/>
                <parameter index="1" name="Precisão" parameterValue="0.16666667163372039794921875"/>
                <parameter index="2" name="Frequência" parameterValue="0.0303030312061309814453125"/>
                <parameter index="3" name="Sobreposição" parameterValue="0.20000000298023223876953125"/>
                <parameter index="4" name="Configuração de uso padrão" parameterValue="0.25"/>
              </component>
            </slot>
          </effectsRack>
          <component componentGuid="4b4938b4-fd76-4ef5-b79a-4df1dbc3c191" componentID="Audition.Fader" id="clipGain" name="volume" powered="true">
            <parameter index="0" name="volume" parameterValue="1"/>
            <parameter index="1" name="static gain" parameterValue="1"/>
          </component>
          <component componentGuid="f5b7deac-bfb7-4305-8dd7-5ccc334b18ce" componentID="Audition.Mute" id="clipMute" name="Mute" powered="true">
            <parameter index="0" parameterValue="0"/>
            <parameter index="1" name="mute" parameterValue="0"/>
          </component>
          <component componentGuid="97057900-48d9-4d4f-ba26-00fdaf5978ae" componentID="Audition.StereoPanner" id="clipPan" name="StereoPanner" powered="true">
            <parameter index="0" name="Deslocar" parameterValue="0"/>
          </component>
          <fadeIn crossFadeLinkType="linkedAsymmetric" endPoint="0" shape="19" startPoint="0" type="log"/>
          <fadeOut crossFadeLinkType="linkedAsymmetric" endPoint="8202" shape="19" startPoint="8202" type="log"/>
          <editParameter parameterIndex="0" slotIndex="4294967280"/>
          <editParameter parameterIndex="0" slotIndex="4294967281"/>
          <channelMap>
            <channel index="0" sourceIndex="0"/>
          </channelMap>
        </audioClip>
        <audioClip clipAutoCrossfade="true" crossFadeHeadClipID="-1" crossFadeTailClipID="-1" endPoint="425662" fileID="0" hue="-1" id="34" lockedInTime="false" looped="false" name="sfx_coin_single2 48000 1" offline="false" select="false" sourceInPoint="0" sourceOutPoint="8202" startPoint="417460" zOrder="112">
          <effectsRack preFader="true">
            <component componentGuid="fba088c7-754c-45be-9758-3e10217c97a5" componentID="Audition.ComponentGroup" id="rackMix" powered="true">
              <parameter index="0" parameterValue="0"/>
              <parameter index="1" parameterValue="0"/>
            </component>
            <component componentGuid="e82b631a-b578-48ba-82d5-8d1e2f155239" id="rackInput" powered="true">
              <parameter index="0" parameterValue="1"/>
              <parameter index="1" parameterValue="0"/>
            </component>
            <component componentGuid="2e7e94df-a36a-4983-8670-a0d53fe5402a" id="rackOutput" powered="true">
              <parameter index="0" parameterValue="1"/>
              <parameter index="1" parameterValue="0"/>
            </component>
            <slot powered="true" slotIndex="0">
              <component componentGuid="c348d476-f159-44a5-9347-f1e1e2b527c2" componentID="164b4e8a-7105-406b-b23b-1ef2cc4d8957" name="Deslocador de tom">
                <busConfig><![CDATA[{"in":[{"layout":[0],"name":"Entrada de mono","type":0}],"out":[{"layout":[0],"name":"Saída de mono","type":0}]}]]></busConfig>
                <channelMap direction="input">
                  <channel index="0" sourceIndex="0"/>
                </channelMap>
                <channelMap direction="output">
                  <channel index="0" sourceIndex="0"/>
                </channelMap>
                <parameter index="0" name="Transpor proporção" parameterValue="0.22726428508758544921875"/>
                <parameter index="1" name="Precisão" parameterValue="0.16666667163372039794921875"/>
                <parameter index="2" name="Frequência" parameterValue="0.0303030312061309814453125"/>
                <parameter index="3" name="Sobreposição" parameterValue="0.20000000298023223876953125"/>
                <parameter index="4" name="Configuração de uso padrão" parameterValue="0.25"/>
              </component>
            </slot>
          </effectsRack>
          <component componentGuid="ecf85d9e-fe82-4a16-ae27-9041e58b2fac" componentID="Audition.Fader" id="clipGain" name="volume" powered="true">
            <parameter index="0" name="volume" parameterValue="1"/>
            <parameter index="1" name="static gain" parameterValue="1"/>
          </component>
          <component componentGuid="7134fdee-2855-4785-b8a5-850fa35d0927" componentID="Audition.Mute" id="clipMute" name="Mute" powered="true">
            <parameter index="0" parameterValue="0"/>
            <parameter index="1" name="mute" parameterValue="0"/>
          </component>
          <component componentGuid="659e4171-5d89-4f74-b931-34fc3088822b" componentID="Audition.StereoPanner" id="clipPan" name="StereoPanner" powered="true">
            <parameter index="0" name="Deslocar" parameterValue="0"/>
          </component>
          <fadeIn crossFadeLinkType="linkedAsymmetric" endPoint="0" shape="19" startPoint="0" type="log"/>
          <fadeOut crossFadeLinkType="linkedAsymmetric" endPoint="8202" shape="19" startPoint="8202" type="log"/>
          <editParameter parameterIndex="0" slotIndex="4294967280"/>
          <editParameter parameterIndex="0" slotIndex="4294967281"/>
          <channelMap>
            <channel index="0" sourceIndex="0"/>
          </channelMap>
        </audioClip>
        <audioClip clipAutoCrossfade="true" crossFadeHeadClipID="-1" crossFadeTailClipID="-1" endPoint="434938" fileID="0" hue="-1" id="35" lockedInTime="false" looped="false" name="sfx_coin_single2 48000 1" offline="false" select="false" sourceInPoint="0" sourceOutPoint="8202" startPoint="426736" zOrder="113">
          <effectsRack preFader="true">
            <component componentGuid="898c6a6e-2ce4-4fc8-b2c2-e06eccf89953" componentID="Audition.ComponentGroup" id="rackMix" powered="true">
              <parameter index="0" parameterValue="0"/>
              <parameter index="1" parameterValue="0"/>
            </component>
            <component componentGuid="d2214aae-963c-420e-81f0-384582103b94" id="rackInput" powered="true">
              <parameter index="0" parameterValue="1"/>
              <parameter index="1" parameterValue="0"/>
            </component>
            <component componentGuid="ea442bdc-d71e-4c4e-8329-3fcb594ddd49" id="rackOutput" powered="true">
              <parameter index="0" parameterValue="1"/>
              <parameter index="1" parameterValue="0"/>
            </component>
            <slot powered="true" slotIndex="0">
              <component componentGuid="7c812a9c-d5b8-421a-8f78-8e5a2099825f" componentID="164b4e8a-7105-406b-b23b-1ef2cc4d8957" name="Deslocador de tom">
                <busConfig><![CDATA[{"in":[{"layout":[0],"name":"Entrada de mono","type":0}],"out":[{"layout":[0],"name":"Saída de mono","type":0}]}]]></busConfig>
                <channelMap direction="input">
                  <channel index="0" sourceIndex="0"/>
                </channelMap>
                <channelMap direction="output">
                  <channel index="0" sourceIndex="0"/>
                </channelMap>
                <parameter index="0" name="Transpor proporção" parameterValue="0.2794592678546905517578125"/>
                <parameter index="1" name="Precisão" parameterValue="0.16666667163372039794921875"/>
                <parameter index="2" name="Frequência" parameterValue="0.0303030312061309814453125"/>
                <parameter index="3" name="Sobreposição" parameterValue="0.20000000298023223876953125"/>
                <parameter index="4" name="Configuração de uso padrão" parameterValue="0.25"/>
              </component>
            </slot>
          </effectsRack>
          <component componentGuid="65fb20d2-2dba-48e9-87a9-b5eb040cd613" componentID="Audition.Fader" id="clipGain" name="volume" powered="true">
            <parameter index="0" name="volume" parameterValue="1"/>
            <parameter index="1" name="static gain" parameterValue="1"/>
          </component>
          <component componentGuid="19e69cba-fed9-4aac-bc7a-e05183ddfa2e" componentID="Audition.Mute" id="clipMute" name="Mute" powered="true">
            <parameter index="0" parameterValue="0"/>
            <parameter index="1" name="mute" parameterValue="0"/>
          </component>
          <component componentGuid="9ec6342d-8acd-4d7f-aade-0e4808fe2122" componentID="Audition.StereoPanner" id="clipPan" name="StereoPanner" powered="true">
            <parameter index="0" name="Deslocar" parameterValue="0"/>
          </component>
          <fadeIn crossFadeLinkType="linkedAsymmetric" endPoint="0" shape="19" startPoint="0" type="log"/>
          <fadeOut crossFadeLinkType="linkedAsymmetric" endPoint="8202" shape="19" startPoint="8202" type="log"/>
          <editParameter parameterIndex="0" slotIndex="4294967280"/>
          <editParameter parameterIndex="0" slotIndex="4294967281"/>
          <channelMap>
            <channel index="0" sourceIndex="0"/>
          </channelMap>
        </audioClip>
        <audioClip clipAutoCrossfade="true" crossFadeHeadClipID="-1" crossFadeTailClipID="-1" endPoint="450758" fileID="0" hue="-1" id="36" lockedInTime="false" looped="false" name="sfx_coin_single2 48000 1" offline="false" select="false" sourceInPoint="0" sourceOutPoint="8202" startPoint="442556" zOrder="114">
          <effectsRack preFader="true">
            <component componentGuid="1280a4c5-d869-4ea1-9d0e-563b6ac25121" componentID="Audition.ComponentGroup" id="rackMix" powered="true">
              <parameter index="0" parameterValue="0"/>
              <parameter index="1" parameterValue="0"/>
            </component>
            <component componentGuid="ddf18092-4454-4bc1-9a3c-bdb6edaa1bc4" id="rackInput" powered="true">
              <parameter index="0" parameterValue="1"/>
              <parameter index="1" parameterValue="0"/>
            </component>
            <component componentGuid="4aabfc44-469e-46c5-8759-511319de6750" id="rackOutput" powered="true">
              <parameter index="0" parameterValue="1"/>
              <parameter index="1" parameterValue="0"/>
            </component>
            <slot powered="true" slotIndex="0">
              <component componentGuid="e9ce307c-f1af-4670-824f-8b230ed3cdf5" componentID="164b4e8a-7105-406b-b23b-1ef2cc4d8957" name="Deslocador de tom">
                <busConfig><![CDATA[{"in":[{"layout":[0],"name":"Entrada de mono","type":0}],"out":[{"layout":[0],"name":"Saída de mono","type":0}]}]]></busConfig>
                <channelMap direction="input">
                  <channel index="0" sourceIndex="0"/>
                </channelMap>
                <channelMap direction="output">
                  <channel index="0" sourceIndex="0"/>
                </channelMap>
                <parameter index="0" name="Transpor proporção" parameterValue="0.3114989101886749267578125"/>
                <parameter index="1" name="Precisão" parameterValue="0.16666667163372039794921875"/>
                <parameter index="2" name="Frequência" parameterValue="0.0303030312061309814453125"/>
                <parameter index="3" name="Sobreposição" parameterValue="0.20000000298023223876953125"/>
                <parameter index="4" name="Configuração de uso padrão" parameterValue="0.25"/>
              </component>
            </slot>
          </effectsRack>
          <component componentGuid="87fae9e3-1c88-45b0-ad8b-395c6572e082" componentID="Audition.Fader" id="clipGain" name="volume" powered="true">
            <parameter index="0" name="volume" parameterValue="1"/>
            <parameter index="1" name="static gain" parameterValue="1"/>
          </component>
          <component componentGuid="c2feda2b-25d8-4f3a-aed3-e22925f34cd1" componentID="Audition.Mute" id="clipMute" name="Mute" powered="true">
            <parameter index="0" parameterValue="0"/>
            <parameter index="1" name="mute" parameterValue="0"/>
          </component>
          <component componentGuid="90e171aa-51eb-40fd-a7c6-258b7836b07c" componentID="Audition.StereoPanner" id="clipPan" name="StereoPanner" powered="true">
            <parameter index="0" name="Deslocar" parameterValue="0"/>
          </component>
          <fadeIn crossFadeLinkType="linkedAsymmetric" endPoint="0" shape="19" startPoint="0" type="log"/>
          <fadeOut crossFadeLinkType="linkedAsymmetric" endPoint="8202" shape="18" startPoint="8202" type="log"/>
          <editParameter parameterIndex="0" slotIndex="4294967280"/>
          <editParameter parameterIndex="0" slotIndex="4294967281"/>
          <channelMap>
            <channel index="0" sourceIndex="0"/>
          </channelMap>
        </audioClip>
        <audioClip clipAutoCrossfade="true" crossFadeHeadClipID="-1" crossFadeTailClipID="-1" endPoint="462507" fileID="0" hue="-1" id="37" lockedInTime="false" looped="false" name="sfx_coin_single2 48000 1" offline="false" select="false" sourceInPoint="0" sourceOutPoint="8202" startPoint="454305" zOrder="115">
          <effectsRack preFader="true">
            <component componentGuid="54d1590c-47c0-45c3-811c-a934111568b7" componentID="Audition.ComponentGroup" id="rackMix" powered="true">
              <parameter index="0" parameterValue="0"/>
              <parameter index="1" parameterValue="0"/>
            </component>
            <component componentGuid="581d0b04-05a6-4e77-9764-b19b4e2a8cad" id="rackInput" powered="true">
              <parameter index="0" parameterValue="1"/>
              <parameter index="1" parameterValue="0"/>
            </component>
            <component componentGuid="b9307f35-4172-43b2-b29f-e617a1613e5f" id="rackOutput" powered="true">
              <parameter index="0" parameterValue="1"/>
              <parameter index="1" parameterValue="0"/>
            </component>
            <slot powered="true" slotIndex="0">
              <component componentGuid="3ec53d21-4bad-4ee7-b84a-c4195800f35e" componentID="164b4e8a-7105-406b-b23b-1ef2cc4d8957" name="Deslocador de tom">
                <busConfig><![CDATA[{"in":[{"layout":[0],"name":"Entrada de mono","type":0}],"out":[{"layout":[0],"name":"Saída de mono","type":0}]}]]></busConfig>
                <channelMap direction="input">
                  <channel index="0" sourceIndex="0"/>
                </channelMap>
                <channelMap direction="output">
                  <channel index="0" sourceIndex="0"/>
                </channelMap>
                <parameter index="0" name="Transpor proporção" parameterValue="0.2830767929553985595703125"/>
                <parameter index="1" name="Precisão" parameterValue="0.16666667163372039794921875"/>
                <parameter index="2" name="Frequência" parameterValue="0.0303030312061309814453125"/>
                <parameter index="3" name="Sobreposição" parameterValue="0.20000000298023223876953125"/>
                <parameter index="4" name="Configuração de uso padrão" parameterValue="0.25"/>
              </component>
            </slot>
          </effectsRack>
          <component componentGuid="49b9a027-6ce8-4a96-9767-85de54325bea" componentID="Audition.Fader" id="clipGain" name="volume" powered="true">
            <parameter index="0" name="volume" parameterValue="1"/>
            <parameter index="1" name="static gain" parameterValue="1"/>
          </component>
          <component componentGuid="05725367-231f-4463-946b-8464ab88767b" componentID="Audition.Mute" id="clipMute" name="Mute" powered="true">
            <parameter index="0" parameterValue="0"/>
            <parameter index="1" name="mute" parameterValue="0"/>
          </component>
          <component componentGuid="f96ccf4e-a70b-4b40-a44b-6eb4c7d1f1bb" componentID="Audition.StereoPanner" id="clipPan" name="StereoPanner" powered="true">
            <parameter index="0" name="Deslocar" parameterValue="0"/>
          </component>
          <fadeIn crossFadeLinkType="linkedAsymmetric" endPoint="0" shape="19" startPoint="0" type="log"/>
          <fadeOut crossFadeLinkType="linkedAsymmetric" endPoint="8202" shape="19" startPoint="8202" type="log"/>
          <editParameter parameterIndex="0" slotIndex="4294967280"/>
          <editParameter parameterIndex="0" slotIndex="4294967281"/>
          <channelMap>
            <channel index="0" sourceIndex="0"/>
          </channelMap>
        </audioClip>
        <audioClip clipAutoCrossfade="true" crossFadeHeadClipID="-1" crossFadeTailClipID="-1" endPoint="475593" fileID="0" hue="-1" id="38" lockedInTime="false" looped="false" name="sfx_coin_single2 48000 1" offline="false" select="false" sourceInPoint="0" sourceOutPoint="8202" startPoint="467391" zOrder="117">
          <effectsRack preFader="true">
            <component componentGuid="efc747d9-0d77-486d-8297-206c5e9c1575" componentID="Audition.ComponentGroup" id="rackMix" powered="true">
              <parameter index="0" parameterValue="0"/>
              <parameter index="1" parameterValue="0"/>
            </component>
            <component componentGuid="c2da82b5-bc89-4bd8-80b2-5db8e232de51" id="rackInput" powered="true">
              <parameter index="0" parameterValue="1"/>
              <parameter index="1" parameterValue="0"/>
            </component>
            <component componentGuid="fae24a7e-a02f-476b-9daa-d8f0270ae0a6" id="rackOutput" powered="true">
              <parameter index="0" parameterValue="1"/>
              <parameter index="1" parameterValue="0"/>
            </component>
            <slot powered="true" slotIndex="0">
              <component componentGuid="1ed0b40d-c440-4df9-bd88-035b2a733676" componentID="164b4e8a-7105-406b-b23b-1ef2cc4d8957" name="Deslocador de tom">
                <busConfig><![CDATA[{"in":[{"layout":[0],"name":"Entrada de mono","type":0}],"out":[{"layout":[0],"name":"Saída de mono","type":0}]}]]></busConfig>
                <channelMap direction="input">
                  <channel index="0" sourceIndex="0"/>
                </channelMap>
                <channelMap direction="output">
                  <channel index="0" sourceIndex="0"/>
                </channelMap>
                <parameter index="0" name="Transpor proporção" parameterValue="0.22726428508758544921875"/>
                <parameter index="1" name="Precisão" parameterValue="0.16666667163372039794921875"/>
                <parameter index="2" name="Frequência" parameterValue="0.0303030312061309814453125"/>
                <parameter index="3" name="Sobreposição" parameterValue="0.20000000298023223876953125"/>
                <parameter index="4" name="Configuração de uso padrão" parameterValue="0.25"/>
              </component>
            </slot>
          </effectsRack>
          <component componentGuid="7d02e008-695a-4e0f-8482-557c85d0d80e" componentID="Audition.Fader" id="clipGain" name="volume" powered="true">
            <parameter index="0" name="volume" parameterValue="1"/>
            <parameter index="1" name="static gain" parameterValue="1"/>
          </component>
          <component componentGuid="b36fdda4-4d9d-4da8-af15-3b8d856e3933" componentID="Audition.Mute" id="clipMute" name="Mute" powered="true">
            <parameter index="0" parameterValue="0"/>
            <parameter index="1" name="mute" parameterValue="0"/>
          </component>
          <component componentGuid="a54c8113-65b5-437a-846f-c33602496559" componentID="Audition.StereoPanner" id="clipPan" name="StereoPanner" powered="true">
            <parameter index="0" name="Deslocar" parameterValue="0"/>
          </component>
          <fadeIn crossFadeLinkType="linkedAsymmetric" endPoint="0" shape="19" startPoint="0" type="log"/>
          <fadeOut crossFadeLinkType="linkedAsymmetric" endPoint="8202" shape="19" startPoint="8202" type="log"/>
          <editParameter parameterIndex="0" slotIndex="4294967280"/>
          <editParameter parameterIndex="0" slotIndex="4294967281"/>
          <channelMap>
            <channel index="0" sourceIndex="0"/>
          </channelMap>
        </audioClip>
        <audioClip clipAutoCrossfade="true" crossFadeHeadClipID="-1" crossFadeTailClipID="-1" endPoint="489968" fileID="0" hue="-1" id="39" lockedInTime="false" looped="false" name="sfx_coin_single2 48000 1" offline="false" select="false" sourceInPoint="0" sourceOutPoint="8202" startPoint="481766" zOrder="116">
          <effectsRack preFader="true">
            <component componentGuid="92d36413-34f0-4cc0-84c0-999e1f4aecb6" componentID="Audition.ComponentGroup" id="rackMix" powered="true">
              <parameter index="0" parameterValue="0"/>
              <parameter index="1" parameterValue="0"/>
            </component>
            <component componentGuid="05c283ac-57e0-4542-ad67-c846d4fb0d98" id="rackInput" powered="true">
              <parameter index="0" parameterValue="1"/>
              <parameter index="1" parameterValue="0"/>
            </component>
            <component componentGuid="f31b6395-1665-4f14-8504-4efa80250b30" id="rackOutput" powered="true">
              <parameter index="0" parameterValue="1"/>
              <parameter index="1" parameterValue="0"/>
            </component>
            <slot powered="true" slotIndex="0">
              <component componentGuid="4288c4f1-dafa-4e8a-a598-54f915295166" componentID="164b4e8a-7105-406b-b23b-1ef2cc4d8957" name="Deslocador de tom">
                <busConfig><![CDATA[{"in":[{"layout":[0],"name":"Entrada de mono","type":0}],"out":[{"layout":[0],"name":"Saída de mono","type":0}]}]]></busConfig>
                <channelMap direction="input">
                  <channel index="0" sourceIndex="0"/>
                </channelMap>
                <channelMap direction="output">
                  <channel index="0" sourceIndex="0"/>
                </channelMap>
                <parameter index="0" name="Transpor proporção" parameterValue="0.22726428508758544921875"/>
                <parameter index="1" name="Precisão" parameterValue="0.16666667163372039794921875"/>
                <parameter index="2" name="Frequência" parameterValue="0.0303030312061309814453125"/>
                <parameter index="3" name="Sobreposição" parameterValue="0.20000000298023223876953125"/>
                <parameter index="4" name="Configuração de uso padrão" parameterValue="0.25"/>
              </component>
            </slot>
          </effectsRack>
          <component componentGuid="9ef344cd-0ab7-415a-acb7-81f5c0a5d51c" componentID="Audition.Fader" id="clipGain" name="volume" powered="true">
            <parameter index="0" name="volume" parameterValue="1"/>
            <parameter index="1" name="static gain" parameterValue="1"/>
          </component>
          <component componentGuid="eeb2974a-c9cc-46a1-8fc6-94f914b8ba92" componentID="Audition.Mute" id="clipMute" name="Mute" powered="true">
            <parameter index="0" parameterValue="0"/>
            <parameter index="1" name="mute" parameterValue="0"/>
          </component>
          <component componentGuid="16f1776d-6598-4002-9983-5b499510edf7" componentID="Audition.StereoPanner" id="clipPan" name="StereoPanner" powered="true">
            <parameter index="0" name="Deslocar" parameterValue="0"/>
          </component>
          <fadeIn crossFadeLinkType="linkedAsymmetric" endPoint="0" shape="18" startPoint="0" type="log"/>
          <fadeOut crossFadeLinkType="linkedAsymmetric" endPoint="8202" shape="19" startPoint="8202" type="log"/>
          <editParameter parameterIndex="0" slotIndex="4294967280"/>
          <editParameter parameterIndex="0" slotIndex="4294967281"/>
          <channelMap>
            <channel index="0" sourceIndex="0"/>
          </channelMap>
        </audioClip>
      </audioTrack>
      <audioTrack automationLaneOpenState="false" id="10002" index="2" select="false" visible="true">
        <trackParameters trackHeight="316" trackHue="267" trackMinimized="false">
          <name>Faixa 2</name>
        </trackParameters>
        <trackAudioParameters audioChannelType="stereo" automationMode="1" monitoring="false" recordArmed="false" solo="false" soloSafe="false">
          <trackOutput outputID="10000" type="trackID"/>
          <trackInput inputID="1"/>
          <component componentGuid="68f58544-72c1-488d-835a-bae7f9d4f60c" componentID="Audition.Fader" id="trackFader" name="volume" powered="true">
            <parameter index="0" name="volume" parameterValue="1"/>
            <parameter index="1" name="static gain" parameterValue="1"/>
          </component>
          <component componentGuid="885f251e-2cfa-409e-bd37-5fde51ee77ef" componentID="Audition.Mute" id="trackMute" name="Mute" powered="true">
            <parameter index="0" parameterValue="0"/>
            <parameter index="1" name="mute" parameterValue="0"/>
          </component>
          <component componentGuid="d66717ee-fdfe-4c95-a9ea-c9ca557961d0" componentID="Audition.StereoPanner" id="trackPan" name="StereoPanner" powered="true">
            <parameter index="0" name="Deslocar" parameterValue="0"/>
          </component>
          <component componentGuid="2cb11c79-346e-4766-8334-5efcd7dac2a6" componentID="Audition.EQ" id="trackEQ" name="EQ" powered="false">
            <parameter index="0" name="Frequência de estante inferior" parameterValue="0.000834028352983295917510986328125"/>
            <parameter index="1" name="Ganho de estante inferior" parameterValue="0.5"/>
            <parameter index="2" name="Frequência de prateleira superior" parameterValue="0.74979150295257568359375"/>
            <parameter index="3" name="Ganho de estante superior" parameterValue="0.5"/>
            <parameter index="4" name="Frequência central de banda de EQ 1" parameterValue="0.00125104258768260478973388671875"/>
            <parameter index="5" name="Banda de EQ 1 Q" parameterValue="0.000199989997781813144683837890625"/>
            <parameter index="6" name="Ganho de banda de EQ 1" parameterValue="0.5"/>
            <parameter index="7" name="Ativar Banda de EQ 1" parameterValue="1"/>
            <parameter index="8" name="Frequências centrais de banda de EQ 2" parameterValue="0.0075062550604343414306640625"/>
            <parameter index="9" name="Banda de EQ 2 Q" parameterValue="0.000199989997781813144683837890625"/>
            <parameter index="10" name="Ganho de banda de EQ 2" parameterValue="0.5"/>
            <parameter index="11" name="Ativar banda de EQ 2" parameterValue="1"/>
            <parameter index="12" name="Frequências centrais de banda de EQ 3" parameterValue="0.0325271077454090118408203125"/>
            <parameter index="13" name="Banda de EQ 3 Q" parameterValue="0.000199989997781813144683837890625"/>
            <parameter index="14" name="Ganho de banda de EQ 3" parameterValue="0.5"/>
            <parameter index="15" name="Ativar banda de EQ 3" parameterValue="1"/>
            <parameter index="16" name="Frequência central de banda de EQ 4" parameterValue="0.13261051476001739501953125"/>
            <parameter index="17" name="Banda de EQ 4 Q" parameterValue="0.000199989997781813144683837890625"/>
            <parameter index="18" name="Ganho de banda de EQ 4" parameterValue="0.5"/>
            <parameter index="19" name="Ativar banda de EQ 4" parameterValue="1"/>
            <parameter index="20" name="Frequências centrais de banda de EQ 5" parameterValue="0.532944142818450927734375"/>
            <parameter index="21" name="Banda de EQ 5 Q" parameterValue="0.000199989997781813144683837890625"/>
            <parameter index="22" name="Ganho de banda de EQ 5" parameterValue="0.5"/>
            <parameter index="23" name="Ativar banda de EQ 5" parameterValue="1"/>
            <parameter index="24" name="Ganho principal" parameterValue="0.666666686534881591796875"/>
            <parameter index="25" name="ConstantQ" parameterValue="1"/>
            <parameter index="26" name="Ordem de filtro de estante inferior" parameterValue="0"/>
            <parameter index="27" name="Ordem de filtro de estante superior" parameterValue="0"/>
            <parameter index="28" name="Modo ultra silencioso" parameterValue="0"/>
            <parameter index="29" name="Ativar estante inferior" parameterValue="1"/>
            <parameter index="30" name="Ativar estante superior" parameterValue="1"/>
            <parameter index="31" name="Taxa de amostragem original" parameterValue="0.25"/>
            <parameter index="32" name="Largura de banda de banda de EQ 1" parameterValue="0.002499990165233612060546875"/>
            <parameter index="33" name="Largura de banda de EQ 2" parameterValue="0.0099999904632568359375"/>
            <parameter index="34" name="Largura de banda de EQ 3" parameterValue="0.0399999916553497314453125"/>
            <parameter index="35" name="Largura de banda de EQ 4" parameterValue="0.15999998152256011962890625"/>
            <parameter index="36" name="Largura de banda de EQ 5" parameterValue="0.63999998569488525390625"/>
            <parameter index="37" name="Ativar filtro de alta frequência" parameterValue="0"/>
            <parameter index="38" name="Frequência de corte de alta frequência" parameterValue="0"/>
            <parameter index="39" name="Inclinação de alta frequência" parameterValue="0.4000000059604644775390625"/>
            <parameter index="40" name="Ativar filtro de passagem de baixa aprovação" parameterValue="0"/>
            <parameter index="41" name="Frequência de corte de passe para baixo" parameterValue="0.833194315433502197265625"/>
            <parameter index="42" name="Inclinação de passe para baixo" parameterValue="0.4000000059604644775390625"/>
            <parameter index="43" name="Desvio" parameterValue="0"/>
            <parameter index="44" name="Faixa de gráfico baixa" parameterValue="1"/>
          </component>
        </trackAudioParameters>
        <editParameter parameterIndex="0" slotIndex="4294967280"/>
      </audioTrack>
      <audioTrack automationLaneOpenState="false" id="10003" index="3" select="false" visible="true">
        <trackParameters trackHeight="316" trackHue="51" trackMinimized="false">
          <name>Faixa 3</name>
        </trackParameters>
        <trackAudioParameters audioChannelType="stereo" automationMode="1" monitoring="false" recordArmed="false" solo="false" soloSafe="false">
          <trackOutput outputID="10000" type="trackID"/>
          <trackInput inputID="1"/>
          <component componentGuid="a441965f-7c3d-44fa-9ecf-601591ae93c8" componentID="Audition.Fader" id="trackFader" name="volume" powered="true">
            <parameter index="0" name="volume" parameterValue="1"/>
            <parameter index="1" name="static gain" parameterValue="1"/>
          </component>
          <component componentGuid="3c74e0c9-84ab-4148-b907-c2d6ca434fbd" componentID="Audition.Mute" id="trackMute" name="Mute" powered="true">
            <parameter index="0" parameterValue="0"/>
            <parameter index="1" name="mute" parameterValue="0"/>
          </component>
          <component componentGuid="ee051e30-345e-4f9e-9242-c230157535bd" componentID="Audition.StereoPanner" id="trackPan" name="StereoPanner" powered="true">
            <parameter index="0" name="Deslocar" parameterValue="0"/>
          </component>
          <component componentGuid="3e143c3d-9df5-4c4f-9abc-4d5777e9b38d" componentID="Audition.EQ" id="trackEQ" name="EQ" powered="false">
            <parameter index="0" name="Frequência de estante inferior" parameterValue="0.000834028352983295917510986328125"/>
            <parameter index="1" name="Ganho de estante inferior" parameterValue="0.5"/>
            <parameter index="2" name="Frequência de prateleira superior" parameterValue="0.74979150295257568359375"/>
            <parameter index="3" name="Ganho de estante superior" parameterValue="0.5"/>
            <parameter index="4" name="Frequência central de banda de EQ 1" parameterValue="0.00125104258768260478973388671875"/>
            <parameter index="5" name="Banda de EQ 1 Q" parameterValue="0.000199989997781813144683837890625"/>
            <parameter index="6" name="Ganho de banda de EQ 1" parameterValue="0.5"/>
            <parameter index="7" name="Ativar Banda de EQ 1" parameterValue="1"/>
            <parameter index="8" name="Frequências centrais de banda de EQ 2" parameterValue="0.0075062550604343414306640625"/>
            <parameter index="9" name="Banda de EQ 2 Q" parameterValue="0.000199989997781813144683837890625"/>
            <parameter index="10" name="Ganho de banda de EQ 2" parameterValue="0.5"/>
            <parameter index="11" name="Ativar banda de EQ 2" parameterValue="1"/>
            <parameter index="12" name="Frequências centrais de banda de EQ 3" parameterValue="0.0325271077454090118408203125"/>
            <parameter index="13" name="Banda de EQ 3 Q" parameterValue="0.000199989997781813144683837890625"/>
            <parameter index="14" name="Ganho de banda de EQ 3" parameterValue="0.5"/>
            <parameter index="15" name="Ativar banda de EQ 3" parameterValue="1"/>
            <parameter index="16" name="Frequência central de banda de EQ 4" parameterValue="0.13261051476001739501953125"/>
            <parameter index="17" name="Banda de EQ 4 Q" parameterValue="0.000199989997781813144683837890625"/>
            <parameter index="18" name="Ganho de banda de EQ 4" parameterValue="0.5"/>
            <parameter index="19" name="Ativar banda de EQ 4" parameterValue="1"/>
            <parameter index="20" name="Frequências centrais de banda de EQ 5" parameterValue="0.532944142818450927734375"/>
            <parameter index="21" name="Banda de EQ 5 Q" parameterValue="0.000199989997781813144683837890625"/>
            <parameter index="22" name="Ganho de banda de EQ 5" parameterValue="0.5"/>
            <parameter index="23" name="Ativar banda de EQ 5" parameterValue="1"/>
            <parameter index="24" name="Ganho principal" parameterValue="0.666666686534881591796875"/>
            <parameter index="25" name="ConstantQ" parameterValue="1"/>
            <parameter index="26" name="Ordem de filtro de estante inferior" parameterValue="0"/>
            <parameter index="27" name="Ordem de filtro de estante superior" parameterValue="0"/>
            <parameter index="28" name="Modo ultra silencioso" parameterValue="0"/>
            <parameter index="29" name="Ativar estante inferior" parameterValue="1"/>
            <parameter index="30" name="Ativar estante superior" parameterValue="1"/>
            <parameter index="31" name="Taxa de amostragem original" parameterValue="0.25"/>
            <parameter index="32" name="Largura de banda de banda de EQ 1" parameterValue="0.002499990165233612060546875"/>
            <parameter index="33" name="Largura de banda de EQ 2" parameterValue="0.0099999904632568359375"/>
            <parameter index="34" name="Largura de banda de EQ 3" parameterValue="0.0399999916553497314453125"/>
            <parameter index="35" name="Largura de banda de EQ 4" parameterValue="0.15999998152256011962890625"/>
            <parameter index="36" name="Largura de banda de EQ 5" parameterValue="0.63999998569488525390625"/>
            <parameter index="37" name="Ativar filtro de alta frequência" parameterValue="0"/>
            <parameter index="38" name="Frequência de corte de alta frequência" parameterValue="0"/>
            <parameter index="39" name="Inclinação de alta frequência" parameterValue="0.4000000059604644775390625"/>
            <parameter index="40" name="Ativar filtro de passagem de baixa aprovação" parameterValue="0"/>
            <parameter index="41" name="Frequência de corte de passe para baixo" parameterValue="0.833194315433502197265625"/>
            <parameter index="42" name="Inclinação de passe para baixo" parameterValue="0.4000000059604644775390625"/>
            <parameter index="43" name="Desvio" parameterValue="0"/>
            <parameter index="44" name="Faixa de gráfico baixa" parameterValue="1"/>
          </component>
        </trackAudioParameters>
        <editParameter parameterIndex="0" slotIndex="4294967280"/>
      </audioTrack>
      <audioTrack automationLaneOpenState="false" id="10004" index="4" select="false" visible="true">
        <trackParameters trackHeight="316" trackHue="182" trackMinimized="false">
          <name>Faixa 4</name>
        </trackParameters>
        <trackAudioParameters audioChannelType="stereo" automationMode="1" monitoring="false" recordArmed="false" solo="false" soloSafe="false">
          <trackOutput outputID="10000" type="trackID"/>
          <trackInput inputID="1"/>
          <component componentGuid="e024bda7-5994-4dc1-bab5-6eca0ad03e45" componentID="Audition.Fader" id="trackFader" name="volume" powered="true">
            <parameter index="0" name="volume" parameterValue="1"/>
            <parameter index="1" name="static gain" parameterValue="1"/>
          </component>
          <component componentGuid="a7462a4d-5844-4a60-aa48-f77b4136c642" componentID="Audition.Mute" id="trackMute" name="Mute" powered="true">
            <parameter index="0" parameterValue="0"/>
            <parameter index="1" name="mute" parameterValue="0"/>
          </component>
          <component componentGuid="57800086-8723-4905-beaa-4d57b8f8c1e7" componentID="Audition.StereoPanner" id="trackPan" name="StereoPanner" powered="true">
            <parameter index="0" name="Deslocar" parameterValue="0"/>
          </component>
          <component componentGuid="026ffeff-3c2f-4d61-a2d3-95f26d363d1f" componentID="Audition.EQ" id="trackEQ" name="EQ" powered="false">
            <parameter index="0" name="Frequência de estante inferior" parameterValue="0.000834028352983295917510986328125"/>
            <parameter index="1" name="Ganho de estante inferior" parameterValue="0.5"/>
            <parameter index="2" name="Frequência de prateleira superior" parameterValue="0.74979150295257568359375"/>
            <parameter index="3" name="Ganho de estante superior" parameterValue="0.5"/>
            <parameter index="4" name="Frequência central de banda de EQ 1" parameterValue="0.00125104258768260478973388671875"/>
            <parameter index="5" name="Banda de EQ 1 Q" parameterValue="0.000199989997781813144683837890625"/>
            <parameter index="6" name="Ganho de banda de EQ 1" parameterValue="0.5"/>
            <parameter index="7" name="Ativar Banda de EQ 1" parameterValue="1"/>
            <parameter index="8" name="Frequências centrais de banda de EQ 2" parameterValue="0.0075062550604343414306640625"/>
            <parameter index="9" name="Banda de EQ 2 Q" parameterValue="0.000199989997781813144683837890625"/>
            <parameter index="10" name="Ganho de banda de EQ 2" parameterValue="0.5"/>
            <parameter index="11" name="Ativar banda de EQ 2" parameterValue="1"/>
            <parameter index="12" name="Frequências centrais de banda de EQ 3" parameterValue="0.0325271077454090118408203125"/>
            <parameter index="13" name="Banda de EQ 3 Q" parameterValue="0.000199989997781813144683837890625"/>
            <parameter index="14" name="Ganho de banda de EQ 3" parameterValue="0.5"/>
            <parameter index="15" name="Ativar banda de EQ 3" parameterValue="1"/>
            <parameter index="16" name="Frequência central de banda de EQ 4" parameterValue="0.13261051476001739501953125"/>
            <parameter index="17" name="Banda de EQ 4 Q" parameterValue="0.000199989997781813144683837890625"/>
            <parameter index="18" name="Ganho de banda de EQ 4" parameterValue="0.5"/>
            <parameter index="19" name="Ativar banda de EQ 4" parameterValue="1"/>
            <parameter index="20" name="Frequências centrais de banda de EQ 5" parameterValue="0.532944142818450927734375"/>
            <parameter index="21" name="Banda de EQ 5 Q" parameterValue="0.000199989997781813144683837890625"/>
            <parameter index="22" name="Ganho de banda de EQ 5" parameterValue="0.5"/>
            <parameter index="23" name="Ativar banda de EQ 5" parameterValue="1"/>
            <parameter index="24" name="Ganho principal" parameterValue="0.666666686534881591796875"/>
            <parameter index="25" name="ConstantQ" parameterValue="1"/>
            <parameter index="26" name="Ordem de filtro de estante inferior" parameterValue="0"/>
            <parameter index="27" name="Ordem de filtro de estante superior" parameterValue="0"/>
            <parameter index="28" name="Modo ultra silencioso" parameterValue="0"/>
            <parameter index="29" name="Ativar estante inferior" parameterValue="1"/>
            <parameter index="30" name="Ativar estante superior" parameterValue="1"/>
            <parameter index="31" name="Taxa de amostragem original" parameterValue="0.25"/>
            <parameter index="32" name="Largura de banda de banda de EQ 1" parameterValue="0.002499990165233612060546875"/>
            <parameter index="33" name="Largura de banda de EQ 2" parameterValue="0.0099999904632568359375"/>
            <parameter index="34" name="Largura de banda de EQ 3" parameterValue="0.0399999916553497314453125"/>
            <parameter index="35" name="Largura de banda de EQ 4" parameterValue="0.15999998152256011962890625"/>
            <parameter index="36" name="Largura de banda de EQ 5" parameterValue="0.63999998569488525390625"/>
            <parameter index="37" name="Ativar filtro de alta frequência" parameterValue="0"/>
            <parameter index="38" name="Frequência de corte de alta frequência" parameterValue="0"/>
            <parameter index="39" name="Inclinação de alta frequência" parameterValue="0.4000000059604644775390625"/>
            <parameter index="40" name="Ativar filtro de passagem de baixa aprovação" parameterValue="0"/>
            <parameter index="41" name="Frequência de corte de passe para baixo" parameterValue="0.833194315433502197265625"/>
            <parameter index="42" name="Inclinação de passe para baixo" parameterValue="0.4000000059604644775390625"/>
            <parameter index="43" name="Desvio" parameterValue="0"/>
            <parameter index="44" name="Faixa de gráfico baixa" parameterValue="1"/>
          </component>
        </trackAudioParameters>
        <editParameter parameterIndex="0" slotIndex="4294967280"/>
      </audioTrack>
      <audioTrack automationLaneOpenState="false" id="10005" index="5" select="false" visible="true">
        <trackParameters trackHeight="316" trackHue="294" trackMinimized="false">
          <name>Faixa 5</name>
        </trackParameters>
        <trackAudioParameters audioChannelType="stereo" automationMode="1" monitoring="false" recordArmed="false" solo="false" soloSafe="false">
          <trackOutput outputID="10000" type="trackID"/>
          <trackInput inputID="1"/>
          <component componentGuid="2144dbe9-1ba6-467c-9e38-63e9c069d38e" componentID="Audition.Fader" id="trackFader" name="volume" powered="true">
            <parameter index="0" name="volume" parameterValue="1"/>
            <parameter index="1" name="static gain" parameterValue="1"/>
          </component>
          <component componentGuid="58bb1c88-b1e2-4411-b970-68698175f169" componentID="Audition.Mute" id="trackMute" name="Mute" powered="true">
            <parameter index="0" parameterValue="0"/>
            <parameter index="1" name="mute" parameterValue="0"/>
          </component>
          <component componentGuid="038d107a-f175-467c-9c89-c7fddb0a0b76" componentID="Audition.StereoPanner" id="trackPan" name="StereoPanner" powered="true">
            <parameter index="0" name="Deslocar" parameterValue="0"/>
          </component>
          <component componentGuid="57916ce1-2b52-4b78-a55b-e06742ea0961" componentID="Audition.EQ" id="trackEQ" name="EQ" powered="false">
            <parameter index="0" name="Frequência de estante inferior" parameterValue="0.000834028352983295917510986328125"/>
            <parameter index="1" name="Ganho de estante inferior" parameterValue="0.5"/>
            <parameter index="2" name="Frequência de prateleira superior" parameterValue="0.74979150295257568359375"/>
            <parameter index="3" name="Ganho de estante superior" parameterValue="0.5"/>
            <parameter index="4" name="Frequência central de banda de EQ 1" parameterValue="0.00125104258768260478973388671875"/>
            <parameter index="5" name="Banda de EQ 1 Q" parameterValue="0.000199989997781813144683837890625"/>
            <parameter index="6" name="Ganho de banda de EQ 1" parameterValue="0.5"/>
            <parameter index="7" name="Ativar Banda de EQ 1" parameterValue="1"/>
            <parameter index="8" name="Frequências centrais de banda de EQ 2" parameterValue="0.0075062550604343414306640625"/>
            <parameter index="9" name="Banda de EQ 2 Q" parameterValue="0.000199989997781813144683837890625"/>
            <parameter index="10" name="Ganho de banda de EQ 2" parameterValue="0.5"/>
            <parameter index="11" name="Ativar banda de EQ 2" parameterValue="1"/>
            <parameter index="12" name="Frequências centrais de banda de EQ 3" parameterValue="0.0325271077454090118408203125"/>
            <parameter index="13" name="Banda de EQ 3 Q" parameterValue="0.000199989997781813144683837890625"/>
            <parameter index="14" name="Ganho de banda de EQ 3" parameterValue="0.5"/>
            <parameter index="15" name="Ativar banda de EQ 3" parameterValue="1"/>
            <parameter index="16" name="Frequência central de banda de EQ 4" parameterValue="0.13261051476001739501953125"/>
            <parameter index="17" name="Banda de EQ 4 Q" parameterValue="0.000199989997781813144683837890625"/>
            <parameter index="18" name="Ganho de banda de EQ 4" parameterValue="0.5"/>
            <parameter index="19" name="Ativar banda de EQ 4" parameterValue="1"/>
            <parameter index="20" name="Frequências centrais de banda de EQ 5" parameterValue="0.532944142818450927734375"/>
            <parameter index="21" name="Banda de EQ 5 Q" parameterValue="0.000199989997781813144683837890625"/>
            <parameter index="22" name="Ganho de banda de EQ 5" parameterValue="0.5"/>
            <parameter index="23" name="Ativar banda de EQ 5" parameterValue="1"/>
            <parameter index="24" name="Ganho principal" parameterValue="0.666666686534881591796875"/>
            <parameter index="25" name="ConstantQ" parameterValue="1"/>
            <parameter index="26" name="Ordem de filtro de estante inferior" parameterValue="0"/>
            <parameter index="27" name="Ordem de filtro de estante superior" parameterValue="0"/>
            <parameter index="28" name="Modo ultra silencioso" parameterValue="0"/>
            <parameter index="29" name="Ativar estante inferior" parameterValue="1"/>
            <parameter index="30" name="Ativar estante superior" parameterValue="1"/>
            <parameter index="31" name="Taxa de amostragem original" parameterValue="0.25"/>
            <parameter index="32" name="Largura de banda de banda de EQ 1" parameterValue="0.002499990165233612060546875"/>
            <parameter index="33" name="Largura de banda de EQ 2" parameterValue="0.0099999904632568359375"/>
            <parameter index="34" name="Largura de banda de EQ 3" parameterValue="0.0399999916553497314453125"/>
            <parameter index="35" name="Largura de banda de EQ 4" parameterValue="0.15999998152256011962890625"/>
            <parameter index="36" name="Largura de banda de EQ 5" parameterValue="0.63999998569488525390625"/>
            <parameter index="37" name="Ativar filtro de alta frequência" parameterValue="0"/>
            <parameter index="38" name="Frequência de corte de alta frequência" parameterValue="0"/>
            <parameter index="39" name="Inclinação de alta frequência" parameterValue="0.4000000059604644775390625"/>
            <parameter index="40" name="Ativar filtro de passagem de baixa aprovação" parameterValue="0"/>
            <parameter index="41" name="Frequência de corte de passe para baixo" parameterValue="0.833194315433502197265625"/>
            <parameter index="42" name="Inclinação de passe para baixo" parameterValue="0.4000000059604644775390625"/>
            <parameter index="43" name="Desvio" parameterValue="0"/>
            <parameter index="44" name="Faixa de gráfico baixa" parameterValue="1"/>
          </component>
        </trackAudioParameters>
        <editParameter parameterIndex="0" slotIndex="4294967280"/>
      </audioTrack>
      <audioTrack automationLaneOpenState="false" id="10006" index="6" select="false" visible="true">
        <trackParameters trackHeight="316" trackHue="92" trackMinimized="false">
          <name>Faixa 6</name>
        </trackParameters>
        <trackAudioParameters audioChannelType="stereo" automationMode="1" monitoring="false" recordArmed="false" solo="false" soloSafe="false">
          <trackOutput outputID="10000" type="trackID"/>
          <trackInput inputID="1"/>
          <component componentGuid="e7109aad-7eb1-4796-aae7-196028977c55" componentID="Audition.Fader" id="trackFader" name="volume" powered="true">
            <parameter index="0" name="volume" parameterValue="1"/>
            <parameter index="1" name="static gain" parameterValue="1"/>
          </component>
          <component componentGuid="52e386db-fe19-441b-aa96-12d250909aec" componentID="Audition.Mute" id="trackMute" name="Mute" powered="true">
            <parameter index="0" parameterValue="0"/>
            <parameter index="1" name="mute" parameterValue="0"/>
          </component>
          <component componentGuid="178ad07d-93c1-4ddf-b99e-d7dba1d5363a" componentID="Audition.StereoPanner" id="trackPan" name="StereoPanner" powered="true">
            <parameter index="0" name="Deslocar" parameterValue="0"/>
          </component>
          <component componentGuid="f8a548c8-1fa0-4188-be21-6071b01f80d3" componentID="Audition.EQ" id="trackEQ" name="EQ" powered="false">
            <parameter index="0" name="Frequência de estante inferior" parameterValue="0.000834028352983295917510986328125"/>
            <parameter index="1" name="Ganho de estante inferior" parameterValue="0.5"/>
            <parameter index="2" name="Frequência de prateleira superior" parameterValue="0.74979150295257568359375"/>
            <parameter index="3" name="Ganho de estante superior" parameterValue="0.5"/>
            <parameter index="4" name="Frequência central de banda de EQ 1" parameterValue="0.00125104258768260478973388671875"/>
            <parameter index="5" name="Banda de EQ 1 Q" parameterValue="0.000199989997781813144683837890625"/>
            <parameter index="6" name="Ganho de banda de EQ 1" parameterValue="0.5"/>
            <parameter index="7" name="Ativar Banda de EQ 1" parameterValue="1"/>
            <parameter index="8" name="Frequências centrais de banda de EQ 2" parameterValue="0.0075062550604343414306640625"/>
            <parameter index="9" name="Banda de EQ 2 Q" parameterValue="0.000199989997781813144683837890625"/>
            <parameter index="10" name="Ganho de banda de EQ 2" parameterValue="0.5"/>
            <parameter index="11" name="Ativar banda de EQ 2" parameterValue="1"/>
            <parameter index="12" name="Frequências centrais de banda de EQ 3" parameterValue="0.0325271077454090118408203125"/>
            <parameter index="13" name="Banda de EQ 3 Q" parameterValue="0.000199989997781813144683837890625"/>
            <parameter index="14" name="Ganho de banda de EQ 3" parameterValue="0.5"/>
            <parameter index="15" name="Ativar banda de EQ 3" parameterValue="1"/>
            <parameter index="16" name="Frequência central de banda de EQ 4" parameterValue="0.13261051476001739501953125"/>
            <parameter index="17" name="Banda de EQ 4 Q" parameterValue="0.000199989997781813144683837890625"/>
            <parameter index="18" name="Ganho de banda de EQ 4" parameterValue="0.5"/>
            <parameter index="19" name="Ativar banda de EQ 4" parameterValue="1"/>
            <parameter index="20" name="Frequências centrais de banda de EQ 5" parameterValue="0.532944142818450927734375"/>
            <parameter index="21" name="Banda de EQ 5 Q" parameterValue="0.000199989997781813144683837890625"/>
            <parameter index="22" name="Ganho de banda de EQ 5" parameterValue="0.5"/>
            <parameter index="23" name="Ativar banda de EQ 5" parameterValue="1"/>
            <parameter index="24" name="Ganho principal" parameterValue="0.666666686534881591796875"/>
            <parameter index="25" name="ConstantQ" parameterValue="1"/>
            <parameter index="26" name="Ordem de filtro de estante inferior" parameterValue="0"/>
            <parameter index="27" name="Ordem de filtro de estante superior" parameterValue="0"/>
            <parameter index="28" name="Modo ultra silencioso" parameterValue="0"/>
            <parameter index="29" name="Ativar estante inferior" parameterValue="1"/>
            <parameter index="30" name="Ativar estante superior" parameterValue="1"/>
            <parameter index="31" name="Taxa de amostragem original" parameterValue="0.25"/>
            <parameter index="32" name="Largura de banda de banda de EQ 1" parameterValue="0.002499990165233612060546875"/>
            <parameter index="33" name="Largura de banda de EQ 2" parameterValue="0.0099999904632568359375"/>
            <parameter index="34" name="Largura de banda de EQ 3" parameterValue="0.0399999916553497314453125"/>
            <parameter index="35" name="Largura de banda de EQ 4" parameterValue="0.15999998152256011962890625"/>
            <parameter index="36" name="Largura de banda de EQ 5" parameterValue="0.63999998569488525390625"/>
            <parameter index="37" name="Ativar filtro de alta frequência" parameterValue="0"/>
            <parameter index="38" name="Frequência de corte de alta frequência" parameterValue="0"/>
            <parameter index="39" name="Inclinação de alta frequência" parameterValue="0.4000000059604644775390625"/>
            <parameter index="40" name="Ativar filtro de passagem de baixa aprovação" parameterValue="0"/>
            <parameter index="41" name="Frequência de corte de passe para baixo" parameterValue="0.833194315433502197265625"/>
            <parameter index="42" name="Inclinação de passe para baixo" parameterValue="0.4000000059604644775390625"/>
            <parameter index="43" name="Desvio" parameterValue="0"/>
            <parameter index="44" name="Faixa de gráfico baixa" parameterValue="1"/>
          </component>
        </trackAudioParameters>
        <editParameter parameterIndex="0" slotIndex="4294967280"/>
      </audioTrack>
      <masterTrack automationLaneOpenState="false" id="10000" index="7" select="false" visible="true">
        <trackParameters trackHeight="316" trackHue="-1" trackMinimized="false">
          <name>Mestre</name>
        </trackParameters>
        <trackAudioParameters audioChannelType="stereo" automationMode="1" monitoring="false" recordArmed="false" solo="false" soloSafe="true">
          <trackOutput outputID="1" type="hardwareOutput"/>
          <trackInput inputID="-1"/>
          <component componentGuid="81e677cf-0d33-43be-9caf-718be5dd9233" componentID="Audition.Fader" id="trackFader" name="volume" powered="true">
            <parameter index="0" name="volume" parameterValue="1"/>
            <parameter index="1" name="static gain" parameterValue="1"/>
          </component>
          <component componentGuid="08ec104f-ed77-4fd6-b4d3-c66058654423" componentID="Audition.Mute" id="trackMute" name="Mute" powered="true">
            <parameter index="0" parameterValue="0"/>
            <parameter index="1" name="mute" parameterValue="0"/>
          </component>
          <component componentGuid="90c1222b-c50b-4e75-a6f7-b116a32ffca8" componentID="Audition.StereoPanner" id="trackPan" name="StereoPanner" powered="true">
            <parameter index="0" name="Deslocar" parameterValue="0"/>
          </component>
          <component componentGuid="8d2667a0-f14c-4206-a788-c1b003407d87" componentID="Audition.EQ" id="trackEQ" name="EQ" powered="false">
            <parameter index="0" name="Frequência de estante inferior" parameterValue="0.000834028352983295917510986328125"/>
            <parameter index="1" name="Ganho de estante inferior" parameterValue="0.5"/>
            <parameter index="2" name="Frequência de prateleira superior" parameterValue="0.74979150295257568359375"/>
            <parameter index="3" name="Ganho de estante superior" parameterValue="0.5"/>
            <parameter index="4" name="Frequência central de banda de EQ 1" parameterValue="0.00125104258768260478973388671875"/>
            <parameter index="5" name="Banda de EQ 1 Q" parameterValue="0.000199989997781813144683837890625"/>
            <parameter index="6" name="Ganho de banda de EQ 1" parameterValue="0.5"/>
            <parameter index="7" name="Ativar Banda de EQ 1" parameterValue="1"/>
            <parameter index="8" name="Frequências centrais de banda de EQ 2" parameterValue="0.0075062550604343414306640625"/>
            <parameter index="9" name="Banda de EQ 2 Q" parameterValue="0.000199989997781813144683837890625"/>
            <parameter index="10" name="Ganho de banda de EQ 2" parameterValue="0.5"/>
            <parameter index="11" name="Ativar banda de EQ 2" parameterValue="1"/>
            <parameter index="12" name="Frequências centrais de banda de EQ 3" parameterValue="0.0325271077454090118408203125"/>
            <parameter index="13" name="Banda de EQ 3 Q" parameterValue="0.000199989997781813144683837890625"/>
            <parameter index="14" name="Ganho de banda de EQ 3" parameterValue="0.5"/>
            <parameter index="15" name="Ativar banda de EQ 3" parameterValue="1"/>
            <parameter index="16" name="Frequência central de banda de EQ 4" parameterValue="0.13261051476001739501953125"/>
            <parameter index="17" name="Banda de EQ 4 Q" parameterValue="0.000199989997781813144683837890625"/>
            <parameter index="18" name="Ganho de banda de EQ 4" parameterValue="0.5"/>
            <parameter index="19" name="Ativar banda de EQ 4" parameterValue="1"/>
            <parameter index="20" name="Frequências centrais de banda de EQ 5" parameterValue="0.532944142818450927734375"/>
            <parameter index="21" name="Banda de EQ 5 Q" parameterValue="0.000199989997781813144683837890625"/>
            <parameter index="22" name="Ganho de banda de EQ 5" parameterValue="0.5"/>
            <parameter index="23" name="Ativar banda de EQ 5" parameterValue="1"/>
            <parameter index="24" name="Ganho principal" parameterValue="0.666666686534881591796875"/>
            <parameter index="25" name="ConstantQ" parameterValue="1"/>
            <parameter index="26" name="Ordem de filtro de estante inferior" parameterValue="0"/>
            <parameter index="27" name="Ordem de filtro de estante superior" parameterValue="0"/>
            <parameter index="28" name="Modo ultra silencioso" parameterValue="0"/>
            <parameter index="29" name="Ativar estante inferior" parameterValue="1"/>
            <parameter index="30" name="Ativar estante superior" parameterValue="1"/>
            <parameter index="31" name="Taxa de amostragem original" parameterValue="0.25"/>
            <parameter index="32" name="Largura de banda de banda de EQ 1" parameterValue="0.002499990165233612060546875"/>
            <parameter index="33" name="Largura de banda de EQ 2" parameterValue="0.0099999904632568359375"/>
            <parameter index="34" name="Largura de banda de EQ 3" parameterValue="0.0399999916553497314453125"/>
            <parameter index="35" name="Largura de banda de EQ 4" parameterValue="0.15999998152256011962890625"/>
            <parameter index="36" name="Largura de banda de EQ 5" parameterValue="0.63999998569488525390625"/>
            <parameter index="37" name="Ativar filtro de alta frequência" parameterValue="0"/>
            <parameter index="38" name="Frequência de corte de alta frequência" parameterValue="0"/>
            <parameter index="39" name="Inclinação de alta frequência" parameterValue="0.4000000059604644775390625"/>
            <parameter index="40" name="Ativar filtro de passagem de baixa aprovação" parameterValue="0"/>
            <parameter index="41" name="Frequência de corte de passe para baixo" parameterValue="0.833194315433502197265625"/>
            <parameter index="42" name="Inclinação de passe para baixo" parameterValue="0.4000000059604644775390625"/>
            <parameter index="43" name="Desvio" parameterValue="0"/>
            <parameter index="44" name="Faixa de gráfico baixa" parameterValue="1"/>
          </component>
        </trackAudioParameters>
        <editParameter parameterIndex="0" slotIndex="4294967280"/>
      </masterTrack>
    </tracks>
    <sessionState ctiPosition="160799" smpteStart="0">
      <selectionState selectionDuration="0" selectionStart="160799"/>
      <viewState horizontalViewDuration="612079" horizontalViewStart="148677" trackControlsWidth="224" verticalScrollOffset="0"/>
      <timeFormatState beatsPerBar="4" beatsPerMinute="120" customFrameRate="12" linkToDefaultTimeSettings="true" noteLength="4" subdivisions="16" timeCodeDropFrame="false" timeCodeFrameRate="30" timeCodeNTSC="false" timeFormat="timeFormatDecimal"/>
      <mixingOptionState defaultPanModeLogarithmic="false" panPower="-3"/>
    </sessionState>
    <xmpMetadata><![CDATA[<?xpacket begin="﻿" id="W5M0MpCehiHzreSzNTczkc9d"?>
<x:xmpmeta xmlns:x="adobe:ns:meta/" x:xmptk="Adobe XMP Core 5.6-c145 79.163499, 2018/08/13-16:40:22        ">
   <rdf:RDF xmlns:rdf="http://www.w3.org/1999/02/22-rdf-syntax-ns#">
      <rdf:Description rdf:about=""
            xmlns:xmp="http://ns.adobe.com/xap/1.0/"
            xmlns:xmpMM="http://ns.adobe.com/xap/1.0/mm/"
            xmlns:stEvt="http://ns.adobe.com/xap/1.0/sType/ResourceEvent#"
            xmlns:dc="http://purl.org/dc/elements/1.1/"
            xmlns:xmpDM="http://ns.adobe.com/xmp/1.0/DynamicMedia/">
         <xmp:CreatorTool>Adobe Audition CC 2019.0 (Windows)</xmp:CreatorTool>
         <xmp:CreateDate>2018-11-22T10:59:06Z</xmp:CreateDate>
         <xmp:MetadataDate>2018-11-22T11:46:39Z</xmp:MetadataDate>
         <xmp:ModifyDate>2018-11-22T11:46:39Z</xmp:ModifyDate>
         <xmpMM:InstanceID>xmp.iid:5a2bea4b-921b-8c40-a6d1-14fe42363fe3</xmpMM:InstanceID>
         <xmpMM:DocumentID>xmp.did:a0ab8489-1dca-e74d-b7d9-5c2e6f7eb146</xmpMM:DocumentID>
         <xmpMM:OriginalDocumentID>xmp.did:a0ab8489-1dca-e74d-b7d9-5c2e6f7eb146</xmpMM:OriginalDocumentID>
         <xmpMM:History>
            <rdf:Seq>
               <rdf:li rdf:parseType="Resource">
                  <stEvt:action>saved</stEvt:action>
                  <stEvt:instanceID>xmp.iid:a0ab8489-1dca-e74d-b7d9-5c2e6f7eb146</stEvt:instanceID>
                  <stEvt:when>2018-11-22T10:59:07Z</stEvt:when>
                  <stEvt:softwareAgent>Adobe Audition CC 2019.0 (Windows)</stEvt:softwareAgent>
                  <stEvt:changed>/metadata</stEvt:changed>
               </rdf:li>
               <rdf:li rdf:parseType="Resource">
                  <stEvt:action>saved</stEvt:action>
                  <stEvt:instanceID>xmp.iid:ef220acd-0cd7-174b-a798-a869b5895ac5</stEvt:instanceID>
                  <stEvt:when>2018-11-22T11:40:05Z</stEvt:when>
                  <stEvt:softwareAgent>Adobe Audition CC 2019.0 (Windows)</stEvt:softwareAgent>
                  <stEvt:changed>/metadata</stEvt:changed>
               </rdf:li>
               <rdf:li rdf:parseType="Resource">
                  <stEvt:action>saved</stEvt:action>
                  <stEvt:instanceID>xmp.iid:adb9c5aa-6cf7-e94d-a654-fa72c5b1a5e1</stEvt:instanceID>
                  <stEvt:when>2018-11-22T11:40:05Z</stEvt:when>
                  <stEvt:softwareAgent>Adobe Audition CC 2019.0 (Windows)</stEvt:softwareAgent>
                  <stEvt:changed>/</stEvt:changed>
               </rdf:li>
               <rdf:li rdf:parseType="Resource">
                  <stEvt:action>saved</stEvt:action>
                  <stEvt:instanceID>xmp.iid:325bfac7-d0ce-024a-bbf2-98e11dce30fd</stEvt:instanceID>
                  <stEvt:when>2018-11-22T11:40:24Z</stEvt:when>
                  <stEvt:softwareAgent>Adobe Audition CC 2019.0 (Windows)</stEvt:softwareAgent>
                  <stEvt:changed>/metadata</stEvt:changed>
               </rdf:li>
               <rdf:li rdf:parseType="Resource">
                  <stEvt:action>saved</stEvt:action>
                  <stEvt:instanceID>xmp.iid:174cb600-0da3-c94b-8a90-442a4fc965cc</stEvt:instanceID>
                  <stEvt:when>2018-11-22T11:40:24Z</stEvt:when>
                  <stEvt:softwareAgent>Adobe Audition CC 2019.0 (Windows)</stEvt:softwareAgent>
                  <stEvt:changed>/</stEvt:changed>
               </rdf:li>
               <rdf:li rdf:parseType="Resource">
                  <stEvt:action>saved</stEvt:action>
                  <stEvt:instanceID>xmp.iid:defbcef6-7f64-0a4c-9fbe-1e04acd7915f</stEvt:instanceID>
                  <stEvt:when>2018-11-22T11:41:49Z</stEvt:when>
                  <stEvt:softwareAgent>Adobe Audition CC 2019.0 (Windows)</stEvt:softwareAgent>
                  <stEvt:changed>/metadata</stEvt:changed>
               </rdf:li>
               <rdf:li rdf:parseType="Resource">
                  <stEvt:action>saved</stEvt:action>
                  <stEvt:instanceID>xmp.iid:4c921166-4e20-6f42-b4b0-33eebf52e606</stEvt:instanceID>
                  <stEvt:when>2018-11-22T11:41:49Z</stEvt:when>
                  <stEvt:softwareAgent>Adobe Audition CC 2019.0 (Windows)</stEvt:softwareAgent>
                  <stEvt:changed>/</stEvt:changed>
               </rdf:li>
               <rdf:li rdf:parseType="Resource">
                  <stEvt:action>saved</stEvt:action>
                  <stEvt:instanceID>xmp.iid:bed8a38c-b654-a148-8806-f6af794e7daf</stEvt:instanceID>
                  <stEvt:when>2018-11-22T11:46:39Z</stEvt:when>
                  <stEvt:softwareAgent>Adobe Audition CC 2019.0 (Windows)</stEvt:softwareAgent>
                  <stEvt:changed>/metadata</stEvt:changed>
               </rdf:li>
               <rdf:li rdf:parseType="Resource">
                  <stEvt:action>saved</stEvt:action>
                  <stEvt:instanceID>xmp.iid:5a2bea4b-921b-8c40-a6d1-14fe42363fe3</stEvt:instanceID>
                  <stEvt:when>2018-11-22T11:46:39Z</stEvt:when>
                  <stEvt:softwareAgent>Adobe Audition CC 2019.0 (Windows)</stEvt:softwareAgent>
                  <stEvt:changed>/</stEvt:changed>
               </rdf:li>
            </rdf:Seq>
         </xmpMM:History>
         <dc:format>application/xml</dc:format>
         <xmpDM:Tracks>
            <rdf:Bag>
               <rdf:li rdf:parseType="Resource">
                  <xmpDM:trackName>CuePoint Markers</xmpDM:trackName>
                  <xmpDM:trackType>Cue</xmpDM:trackType>
                  <xmpDM:frameRate>f48000</xmpDM:frameRate>
               </rdf:li>
               <rdf:li rdf:parseType="Resource">
                  <xmpDM:trackName>CD Track Markers</xmpDM:trackName>
                  <xmpDM:trackType>Track</xmpDM:trackType>
                  <xmpDM:frameRate>f48000</xmpDM:frameRate>
               </rdf:li>
               <rdf:li rdf:parseType="Resource">
                  <xmpDM:trackName>Subclip Markers</xmpDM:trackName>
                  <xmpDM:trackType>InOut</xmpDM:trackType>
                  <xmpDM:frameRate>f48000</xmpDM:frameRate>
               </rdf:li>
            </rdf:Bag>
         </xmpDM:Tracks>
      </rdf:Description>
   </rdf:RDF>
</x:xmpmeta>
                                                                                                    
                                                                                                    
                                                                                                    
                                                                                                    
                                                                                                    
                                                                                                    
                                                                                                    
                                                                                                    
                                                                                                    
                                                                                                    
                                                                                                    
                                                                                                    
                                                                                                    
                                                                                                    
                                                                                                    
                                                                                                    
                                                                                                    
                                                                                                    
                                                                                                    
                                                                                                    
                           
<?xpacket end="w"?>]]></xmpMetadata>
    <clipGroups/>
    <metronome enabled="false" pattern="downBeat subdivision subdivision subdivision " soundSet="sticks">
      <metronomeTrack automationLaneOpenState="false" id="40000" index="0" select="false" visible="false">
        <trackParameters trackHeight="77" trackHue="-1" trackMinimized="false">
          <name>Metrônomo</name>
        </trackParameters>
        <trackAudioParameters audioChannelType="mono" automationMode="1" monitoring="false" recordArmed="false" solo="false" soloSafe="true">
          <trackOutput outputID="10000" type="trackID"/>
          <trackInput inputID="-1"/>
          <component componentGuid="1fdd5a47-0c76-4b72-8c46-869c2db8e392" componentID="Audition.Fader" id="trackFader" name="volume" powered="true">
            <parameter index="0" name="volume" parameterValue="0.50118720531463623046875"/>
            <parameter index="1" name="static gain" parameterValue="1"/>
          </component>
          <component componentGuid="1e003dce-b871-464f-b233-51d74a934e1c" componentID="Audition.Mute" id="trackMute" name="Mute" powered="true">
            <parameter index="0" parameterValue="0"/>
            <parameter index="1" name="mute" parameterValue="0"/>
          </component>
          <component componentGuid="5f560134-2234-463e-9088-0b4be60d4892" componentID="Audition.StereoPanner" id="trackPan" name="StereoPanner" powered="true">
            <parameter index="0" name="Deslocar" parameterValue="0"/>
          </component>
          <component componentGuid="e642291c-8471-4ac5-ab61-ad9e033fb360" componentID="Audition.EQ" id="trackEQ" name="EQ" powered="false">
            <parameter index="0" name="Frequência de estante inferior" parameterValue="0.000834028352983295917510986328125"/>
            <parameter index="1" name="Ganho de estante inferior" parameterValue="0.5"/>
            <parameter index="2" name="Frequência de prateleira superior" parameterValue="0.74979150295257568359375"/>
            <parameter index="3" name="Ganho de estante superior" parameterValue="0.5"/>
            <parameter index="4" name="Frequência central de banda de EQ 1" parameterValue="0.00125104258768260478973388671875"/>
            <parameter index="5" name="Banda de EQ 1 Q" parameterValue="0.000199989997781813144683837890625"/>
            <parameter index="6" name="Ganho de banda de EQ 1" parameterValue="0.5"/>
            <parameter index="7" name="Ativar Banda de EQ 1" parameterValue="1"/>
            <parameter index="8" name="Frequências centrais de banda de EQ 2" parameterValue="0.0075062550604343414306640625"/>
            <parameter index="9" name="Banda de EQ 2 Q" parameterValue="0.000199989997781813144683837890625"/>
            <parameter index="10" name="Ganho de banda de EQ 2" parameterValue="0.5"/>
            <parameter index="11" name="Ativar banda de EQ 2" parameterValue="1"/>
            <parameter index="12" name="Frequências centrais de banda de EQ 3" parameterValue="0.0325271077454090118408203125"/>
            <parameter index="13" name="Banda de EQ 3 Q" parameterValue="0.000199989997781813144683837890625"/>
            <parameter index="14" name="Ganho de banda de EQ 3" parameterValue="0.5"/>
            <parameter index="15" name="Ativar banda de EQ 3" parameterValue="1"/>
            <parameter index="16" name="Frequência central de banda de EQ 4" parameterValue="0.13261051476001739501953125"/>
            <parameter index="17" name="Banda de EQ 4 Q" parameterValue="0.000199989997781813144683837890625"/>
            <parameter index="18" name="Ganho de banda de EQ 4" parameterValue="0.5"/>
            <parameter index="19" name="Ativar banda de EQ 4" parameterValue="1"/>
            <parameter index="20" name="Frequências centrais de banda de EQ 5" parameterValue="0.532944142818450927734375"/>
            <parameter index="21" name="Banda de EQ 5 Q" parameterValue="0.000199989997781813144683837890625"/>
            <parameter index="22" name="Ganho de banda de EQ 5" parameterValue="0.5"/>
            <parameter index="23" name="Ativar banda de EQ 5" parameterValue="1"/>
            <parameter index="24" name="Ganho principal" parameterValue="0.666666686534881591796875"/>
            <parameter index="25" name="ConstantQ" parameterValue="1"/>
            <parameter index="26" name="Ordem de filtro de estante inferior" parameterValue="0"/>
            <parameter index="27" name="Ordem de filtro de estante superior" parameterValue="0"/>
            <parameter index="28" name="Modo ultra silencioso" parameterValue="0"/>
            <parameter index="29" name="Ativar estante inferior" parameterValue="1"/>
            <parameter index="30" name="Ativar estante superior" parameterValue="1"/>
            <parameter index="31" name="Taxa de amostragem original" parameterValue="0.25"/>
            <parameter index="32" name="Largura de banda de banda de EQ 1" parameterValue="0.002499990165233612060546875"/>
            <parameter index="33" name="Largura de banda de EQ 2" parameterValue="0.0099999904632568359375"/>
            <parameter index="34" name="Largura de banda de EQ 3" parameterValue="0.0399999916553497314453125"/>
            <parameter index="35" name="Largura de banda de EQ 4" parameterValue="0.15999998152256011962890625"/>
            <parameter index="36" name="Largura de banda de EQ 5" parameterValue="0.63999998569488525390625"/>
            <parameter index="37" name="Ativar filtro de alta frequência" parameterValue="0"/>
            <parameter index="38" name="Frequência de corte de alta frequência" parameterValue="0"/>
            <parameter index="39" name="Inclinação de alta frequência" parameterValue="0.4000000059604644775390625"/>
            <parameter index="40" name="Ativar filtro de passagem de baixa aprovação" parameterValue="0"/>
            <parameter index="41" name="Frequência de corte de passe para baixo" parameterValue="0.833194315433502197265625"/>
            <parameter index="42" name="Inclinação de passe para baixo" parameterValue="0.4000000059604644775390625"/>
            <parameter index="43" name="Desvio" parameterValue="0"/>
            <parameter index="44" name="Faixa de gráfico baixa" parameterValue="1"/>
          </component>
        </trackAudioParameters>
        <editParameter parameterIndex="0" slotIndex="4294967280"/>
      </metronomeTrack>
    </metronome>
    <properties>
      <property key="EssentialSoundConfigurations">[{"Guid":"a8b40e3e-13e7-4c1f-b382-96058f1f691d","Name":"$$$/app/Presets/DefaultPresetName=(Default)","PresetData":{"ModeID":"ambience","Models":{"model_loudness":{"DefaultLoudness":{"type":"float","value":-30},"LoudnessStandard":{"type":"std::uint32_t","value":0},"MaxLoudness":{"type":"float","value":-12},"MinLoudness":{"type":"float","value":-42}},"model_soundeffects":{"ReverbPresets":{"type":"tree::any","value":{"$$$/app/Presets/EssentialSound/ReverbPreset/LargeRoomAmbience=Large Room Ambience":{"type":"array::float","value":[0.051507499068975449,0.32432401180267334,0.29292899370193481,0.30000001192092896,0.20000000298023224,0,0.14285700023174286,0.40000000596046448,0.5,0.69999998807907104,0.30000001192092896,0.25125628709793091,0.03125]},"$$$/app/Presets/EssentialSound/ReverbPreset/OutsideAmbience=Outside Ambience":{"type":"array::float","value":[0.091708503663539886,0.043893899768590927,1,0.5,0.20000000298023224,0.80000001192092896,0.18367299437522888,1,0.5,0,0.80000001192092896,0.25125628709793091,0.03125]},"$$$/app/Presets/EssentialSound/ReverbPreset/RoomAmbience=Room Ambience":{"type":"array::float","value":[0.057788901031017303,0.44944900274276733,0.49494898319244385,0.89999997615814209,0.10000000149011612,0.15000000596046448,0.081632703542709351,0.40000000596046448,0.5,0.80000001192092896,0.20000000298023224,0.25125628709793091,0.03125]},"$$$/app/Presets/EssentialSound/ReverbPreset/WindEffect=Wind Effect":{"type":"array::float","value":[0.19597999751567841,0.6896899938583374,0.69696998596191406,0.25,0.5,0.5,0.23469400405883789,0.51999998092651367,0.5,0.75,0.25,0.25125628709793091,0.03125]}}}},"model_stereowidth":{},"model_volume":{"MaxGain":{"type":"float","value":15},"MinGain":{"type":"float","value":-60}}}},"Type":"1c19ca71-c24c-49cd-8dd5-2cc46018507a","Version":1},{"Guid":"58dc27a8-6a2a-480c-bd0c-4b45fff346a6","Name":"$$$/app/Presets/DefaultPresetName=(Default)","PresetData":{"ModeID":"dialog","Models":{"model_clarity":{"EQPresets":{"type":"tree::any","value":{"$$$/app/Presets/EssentialSound/EQPreset/BackgroundVoice=Background Voice":{"type":"array::float","value":[0.12099699676036835,0.5,0.39240506291389465,0,0.5,0.5,0.5,0.5,0.5,0.47827938199043274,0.45772689580917358,0.45778733491897583,0.47946760058403015,0.5,0]},"$$$/app/Presets/EssentialSound/EQPreset/Intercom=Intercom":{"type":"array::float","value":[0.19432899355888367,0.5,1,0,0.071499988436698914,0.071499988436698914,0.071499988436698914,0.40238627791404724,0.48571401834487915,0.5,0.55155748128890991,0.59602576494216919,0.22246670722961426,0.071499988436698914,0]},"$$$/app/Presets/EssentialSound/EQPreset/LockedInTheTrunk=Locked in the Trunk":{"type":"array::float","value":[0.12099699676036835,0.5,0.79746836423873901,0,0.5,0.5,0.5,0.5,0.5,0.32846158742904663,0.15721426904201508,0.15721426904201508,0.15721426904201508,0.15721426904201508,0]},"$$$/app/Presets/EssentialSound/EQPreset/OldRadio=Old Radio":{"type":"array::float","value":[0.12099699676036835,0.5,0.79746836423873901,0,0.15721426904201508,0.15721426904201508,0.15721426904201508,0.28442040085792542,0.48315632343292236,0.36498492956161499,0.52853888273239136,0.43511500954627991,0.27154684066772461,0.15721426904201508,0]},"$$$/app/Presets/EssentialSound/EQPreset/OnTheTelephone=On the Telephone":{"type":"array::float","value":[0.12099699676036835,0.5,0.39240506291389465,0,0.32864287495613098,0.32864287495613098,0.32864287495613098,0.32864287495613098,0.48571401834487915,0.53071397542953491,0.53071397542953491,0.48357096314430237,0.32864287495613098,0.32864287495613098,0]},"$$$/app/Presets/EssentialSound/EQPreset/OutsideOfTheRoom=Outside of the Room":{"type":"array::float","value":[0.12099699676036835,0.5,0.79746836423873901,0,0.42539370059967041,0.47865453362464905,0.5,0.5,0.48571401834487915,0.40073278546333313,0.25656309723854065,0.15721426904201508,0.15721426904201508,0.15721426904201508,0]},"$$$/app/Presets/EssentialSound/EQPreset/PodcastVoice=Podcast Voice":{"type":"array::float","value":[0.12099699676036835,0.5,0.39240506291389465,0,0.5,0.5,0.5,0.51789408922195435,0.50770342350006104,0.5,0.51789408922195435,0.528114914894104,0.5102812647819519,0.5,0]},"$$$/app/Presets/EssentialSound/EQPreset/SubtleBoostFemale=Subtle Boost (Female)":{"type":"array::float","value":[0.096553400158882141,0.5,0.29113924503326416,0,0.5,0.5,0.5,0.5,0.5,0.51933407783508301,0.54642897844314575,0.52706766128540039,0.5,0.5,0]},"$$$/app/Presets/EssentialSound/EQPreset/SubtleBoostMale=Subtle Boost (Male)":{"type":"array::float","value":[0.096553400158882141,0.5,0.29113924503326416,0,0.5,0.5,0.5,0.5,0.5,0.5135338306427002,0.54642897844314575,0.51933407783508301,0.5,0.5,0]},"$$$/app/Presets/EssentialSound/EQPreset/ThatPublicRadioSound=That Public Radio Sound":{"type":"array::float","value":[0.12099699676036835,0.5,0.79746836423873901,0,0.15721426904201508,0.15721426904201508,0.15721426904201508,0.36334344744682312,0.49468311667442322,0.5,0.5,0.5,0.5,0.5,0]},"$$$/app/Presets/EssentialSound/EQPreset/VocalPresence=Vocal Presence":{"type":"array::float","value":[0.096553400158882141,0.5,0.32489451766014099,0,0.3572143018245697,0.3572143018245697,0.46428570151329041,0.47857141494750977,0.4763694703578949,0.49570354819297791,0.55924957990646362,0.56523394584655762,0.50859290361404419,0.46992480754852295,0]}}}},"model_loudness":{"DefaultLoudness":{"type":"float","value":-23},"LoudnessStandard":{"type":"std::uint32_t","value":0},"MaxLoudness":{"type":"float","value":-12},"MinLoudness":{"type":"float","value":-42}},"model_restoration":{"ReduceNoiseMaxSetting":{"type":"array::float","value":[1,0,0,0,0]},"ReduceNoiseMinSetting":{"type":"array::float","value":[0,0,0,0,0]},"ReduceReverbMaxSetting":{"type":"array::float","value":[1,0,0,0,0]},"ReduceReverbMinSetting":{"type":"array::float","value":[0,0,0,0,0]},"ReduceRumbleMaxSetting":{"type":"array::float","value":[1,0.084112152457237244,0.375,0,0,0.00083333335351198912,1,0,1,0.0390625,0.00083408987848088145,0,0.0041666668839752674,0.00022554649331141263,0.0046875001862645149,0.75,0.0052083334885537624,0.75,1,0.75,0.0040520834736526012,0.75,0.0042629167437553406,0.00022554649331141263,0.0064883334562182426,0.00022554649331141263,0.006866666954010725,0.75,0.0071704164147377014,0.00022554649331141263,0.01041458360850811,0.00022554649331141263,0.010900000110268593,0.75,0.011407917365431786,0.00022554649331141263,0.015606249682605267,0.00022554649331141263,0.016333334147930145,0.75,0.017094582319259644,0.00022554649331141263,0.026243748143315315,0.00022554649331141263,0.0274666678160429,0.75,0.028746666386723518,0.00022554649331141263,0.041658751666545868,0.00022554649331141263,0.043600000441074371,0.75,0.045631669461727142,0.00022554649331141263,0.062424581497907639,0.00022554649331141263,0.065333336591720581,0.75,0.068377502262592316,0.00022554649331141263,0.10497540980577469,0.00022554649331141263,0.1098666712641716,0.75,0.11498583108186722,0.00022554649331141263,0.16663584113121033,0.00022554649331141263,0.17440000176429749,0.75,0.18252624571323395,0.00022554649331141263,0.91874998807907104,0.00022554649331141263,1,0.00022554649331141263,0,0,0,0,0,0,0,0,0,0,0,0,0,0,0,0,0,0,0,0,0,0,0,0,0,0,0,0,0,0,0,0,0,0,0,0,0,0,0,0,0,0,0,0,0,0,0,0,0,0,0,0,0,0,0,0,0,0,0,0,0,0,0,0,0,0,0,0,0,0,0,0,0,0,0,0,0,0,0,0,0,0,0,0,0,0,0,0,0,0,0,0,0,0,0,0,0,0,0,0,0,0,0,0,0,0,0,0,0,0,0,0,0,0,0,0,0,0,0,0,0,0,0,0,0,0,0,0,0,0,0,0,0,0,0,0,0,0,0,0,0,0,0,0,0,0,0,0,0,0,0,0,0,0,0,0,0,0,0,0,0,0,0,0,0,0,0,0,0,0,0,0,0,0,0,0,0,0,0,0,0,0,0,0,0,0,0,0,0,0]},"ReduceRumbleMinSetting":{"type":"array::float","value":[1,0.084112152457237244,0.375,0,0,0.00083333335351198912,1,0,1,0.0390625,0.00083408987848088145,0.75,0.0041666668839752674,0.75,0.0046875001862645149,0.75,0.0052083334885537624,0.75,1,0.75,0.91874998807907104,0.61237245798110962,1,0.61237245798110962,0,0,0,0,0,0,0,0,0,0,0,0,0,0,0,0,0,0,0,0,0,0,0,0,0,0,0,0,0,0,0,0,0,0,0,0,0,0,0,0,0,0,0,0,0,0,0,0,0,0,0,0,0,0,0,0,0,0,0,0,0,0,0,0,0,0,0,0,0,0,0,0,0,0,0,0,0,0,0,0,0,0,0,0,0,0,0,0,0,0,0,0,0,0,0,0,0,0,0,0,0,0,0,0,0,0,0,0,0,0,0,0,0,0,0,0,0,0,0,0,0,0,0,0,0,0,0,0,0,0,0,0,0,0,0,0,0,0,0,0,0,0,0,0,0,0,0,0,0,0,0,0,0,0,0,0,0,0,0,0,0,0,0,0,0,0,0,0,0,0,0,0,0,0,0,0,0,0,0,0,0,0,0,0,0,0,0,0,0,0,0,0,0,0,0,0,0,0,0,0,0,0,0,0,0,0,0,0,0,0,0,0,0,0,0,0,0,0,0,0,0,0,0,0,0,0,0,0,0,0,0,0,0,0,0,0,0,0,0,0,0,0]},"ReduceSibilanceMaxSetting":{"type":"array::float","value":[0.5,0.19983997941017151,0.18367347121238708,0.26086956262588501,0.52702701091766357,0,1,0,0,0,0,0.75,1,1,0.40000000596046448]},"ReduceSibilanceMinSetting":{"type":"array::float","value":[0.875,0.19983997941017151,0.18367347121238708,0.19130434095859528,0.25675675272941589,0,1,0,0,0,0,0.75,1,1,0.40000000596046448]}},"model_soundeffects":{"ReverbPresets":{"type":"tree::any","value":{"$$$/app/Presets/EssentialSound/ReverbPreset/Auditorium=Auditorium":{"type":"array::float","value":[0.013047545216977596,0.15895412862300873,1,0.89999997615814209,0,0.52007436752319336,0.41663265228271484,0.46000000834465027,0.5,0.73000001907348633,0.15999999642372131,0.75376886129379272,0.03125]},"$$$/app/Presets/EssentialSound/ReverbPreset/Church=Church":{"type":"array::float","value":[0.032663315534591675,0.39939939975738525,0.79797977209091187,0.25,0.5,0.5,0.2297959178686142,0.72000002861022949,0.5,0.62999999523162842,0.87999999523162842,0.25125628709793091,0.03125]},"$$$/app/Presets/EssentialSound/ReverbPreset/LargeReflectiveRoom=Large Reflective Room":{"type":"array::float","value":[0.0074449013918638229,0.098988421261310577,0.79890537261962891,0.89999997615814209,0.10000000149011612,0.40110713243484497,0.060284845530986786,0.27522978186607361,0.5,0.73000001907348633,0.31999999284744263,0.25125628709793091,0.03125]},"$$$/app/Presets/EssentialSound/ReverbPreset/OutsideTheClub=Outside the Club":{"type":"array::float","value":[0.020615793764591217,0.050136558711528778,0.69696998596191406,0.25,0.094355784356594086,0.22242647409439087,0.1071428582072258,0.2800000011920929,0.5,0.73000001907348633,0.46000000834465027,0.25125628709793091,0.03125]},"$$$/app/Presets/EssentialSound/ReverbPreset/SmallDryRoom=Small Dry Room":{"type":"array::float","value":[0.24623115360736847,0.69975000619888306,0.29292899370193481,0.40000000596046448,0.20000000298023224,0.40000000596046448,0.039285715669393539,0.10000000149011612,0.5,1,0.5,0.75376886129379272,0.03125]},"$$$/app/Presets/EssentialSound/ReverbPreset/ThickenVoice=Thicken Voice":{"type":"array::float","value":[0.19597999751567841,0.23931467533111572,0.69696998596191406,0.25,0.5,0.53999996185302734,0.020408162847161293,0.20945435762405396,0.5,1,0.34999999403953552,0.25125628709793091,0.03125]},"$$$/app/Presets/EssentialSound/ReverbPreset/WarmRoom=Warm Room":{"type":"array::float","value":[0.020100502297282219,0.074074074625968933,0.49494948983192444,0.40000000596046448,0.74960309267044067,0.40000000596046448,0.1239795908331871,0.67000001668930054,0.5,0.85000002384185791,0.56000000238418579,0.25125628709793091,0.03125]},"$$$/app/Presets/EssentialSound/ReverbPreset/WarmVoice=Warm Voice":{"type":"array::float","value":[0.19597989320755005,0.89989989995956421,0,0.40000000596046448,0.20000000298023224,0.40000000596046448,0.10204081982374191,0.090000003576278687,0.5,1,0.30000001192092896,0.25125628709793091,0.03125]}}}},"model_volume":{"MaxGain":{"type":"float","value":15},"MinGain":{"type":"float","value":-60}}}},"Type":"1c19ca71-c24c-49cd-8dd5-2cc46018507a","Version":1},{"Guid":"353811fa-4179-435e-8e5e-23028ba15a7a","Name":"$$$/app/Presets/DefaultPresetName=(Default)","PresetData":{"ModeID":"generic","Models":{"model_volume":{"MaxGain":{"type":"float","value":15},"MinGain":{"type":"float","value":-60}}}},"Type":"1c19ca71-c24c-49cd-8dd5-2cc46018507a","Version":1},{"Guid":"31ba96a6-5d3e-4d89-b1e1-1dbe3c055d0c","Name":"$$$/app/Presets/DefaultPresetName=(Default)","PresetData":{"ModeID":"music","Models":{"model_ducking":{},"model_duration":{},"model_loudness":{"DefaultLoudness":{"type":"float","value":-25},"LoudnessStandard":{"type":"std::uint32_t","value":0},"MaxLoudness":{"type":"float","value":-12},"MinLoudness":{"type":"float","value":-42}},"model_volume":{"MaxGain":{"type":"float","value":15},"MinGain":{"type":"float","value":-60}}}},"Type":"1c19ca71-c24c-49cd-8dd5-2cc46018507a","Version":1},{"Guid":"cea63332-1adc-44a9-a6eb-5490f965859b","Name":"$$$/app/Presets/DefaultPresetName=(Default)","PresetData":{"ModeID":"sfx","Models":{"model_loudness":{"DefaultLoudness":{"type":"float","value":-21},"LoudnessStandard":{"type":"std::uint32_t","value":0},"MaxLoudness":{"type":"float","value":-12},"MinLoudness":{"type":"float","value":-42}},"model_pan":{},"model_soundeffects":{"ReverbPresets":{"type":"tree::any","value":{"$$$/app/Presets/EssentialSound/ReverbPreset/HeavyReverb=Heavy Reverb":{"type":"array::float","value":[0.13316600024700165,0.29929900169372559,1,0.95999997854232788,0.85000002384185791,0.5,0.51530599594116211,0.30000001192092896,0.5,0.5,0.5,0.25125628709793091,0.0625]},"$$$/app/Presets/EssentialSound/ReverbPreset/LightReverb=Light Reverb":{"type":"array::float","value":[0.095477402210235596,0.29929900169372559,0.090909101068973541,1,1,0.80000001192092896,0.22449000179767609,0.60000002384185791,0.5,0.69999998807907104,0.30000001192092896,0.25125628709793091,0.0625]},"$$$/app/Presets/EssentialSound/ReverbPreset/OutsideReverb=Outside Reverb":{"type":"array::float","value":[0.091708503663539886,0.043893899768590927,1,0.5,0.20000000298023224,0.80000001192092896,0.18367299437522888,1,0.5,0,0.80000001192092896,0.25125628709793091,0.0625]},"$$$/app/Presets/EssentialSound/ReverbPreset/RoomReverb=Room Reverb":{"type":"array::float","value":[0.057788901031017303,0.44944900274276733,0.49494898319244385,0.89999997615814209,0.10000000149011612,0.15000000596046448,0.081632703542709351,0.40000000596046448,0.5,0.80000001192092896,0.20000000298023224,0.25125628709793091,0.0625]}}}},"model_volume":{"MaxGain":{"type":"float","value":15},"MinGain":{"type":"float","value":-60}}}},"Type":"1c19ca71-c24c-49cd-8dd5-2cc46018507a","Version":1}]</property>
    </properties>
  </session>

  <files>
    <file absolutePath="C:\Users\filipereis\OneDrive\lel projects\OpenTetris\Resources\AuditionSource\Conformed Files\sfx_coin_single2 48000 1.wav" id="0" importerPrivateSettings="Compression:0:0;LargeFileSupport:0:0;SampleType:0:40;" mediaHandler="AmioWav" relativePath="Conformed Files/sfx_coin_single2 48000 1.wav"/>
  </files>

  <audioDevice inputID="" outputID="2716F5DB-9778-4C6A-AB1A-030A42F942AC">
    <inputPort id="1" name="Entrada estéreo padrão"/>
    <outputPort id="1" name="Saída padrão"/>
    <outputPort id="2" name="[01M] Altifalantes (Realtek High Definition Audio) 1"/>
    <outputPort id="3" name="[02M] Altifalantes (Realtek High Definition Audio) 2"/>
    <outputPort id="4" name="Saída estéreo padrão"/>
    <outputPort id="5" name="[01S] Altifalantes (Realtek High Definition Audio) 1"/>
    <outputPort id="6" name="Saída surround padrão"/>
  </audioDevice>

</sesx>
